<svg width="60" height="60" viewBox="0 0 60 60" fill="none" xmlns="http://www.w3.org/2000/svg">
<g clip-path="url(#clip0_364_20799)">
<path fill-rule="evenodd" clip-rule="evenodd" d="M25 3.125C17.7513 3.125 11.875 9.00126 11.875 16.25C11.875 23.4987 17.7513 29.375 25 29.375C32.2487 29.375 38.125 23.4987 38.125 16.25C38.125 9.00126 32.2487 3.125 25 3.125ZM15.625 16.25C15.625 11.0723 19.8223 6.875 25 6.875C30.1777 6.875 34.375 11.0723 34.375 16.25C34.375 21.4277 30.1777 25.625 25 25.625C19.8223 25.625 15.625 21.4277 15.625 16.25Z" fill="#A5ACB8"/>
<path fill-rule="evenodd" clip-rule="evenodd" d="M24.9993 33.125C15.3721 33.125 5.99767 37.6723 3.48723 47.3774C3.27123 48.2124 3.12888 48.9946 3.12508 49.804C3.12121 50.6292 3.26139 51.3929 3.51133 52.2007C3.74126 52.9438 4.16753 53.6706 4.6291 54.2676C5.0894 54.863 5.69291 55.4691 6.37874 55.8804C8.04422 56.8794 9.74508 56.8775 11.8514 56.8752H38.1472C40.2535 56.8775 41.9544 56.8794 43.6199 55.8805C44.3037 55.4703 44.9073 54.8667 45.3688 54.272C45.8312 53.6762 46.2594 52.9494 46.49 52.2042C47.0286 50.4634 46.9706 49.1525 46.5114 47.3775C44.001 37.6723 34.6265 33.125 24.9993 33.125ZM7.11773 48.3165C9.03817 40.8923 16.3355 36.875 24.9993 36.875C33.663 36.875 40.9605 40.8924 42.8809 48.3166C43.2059 49.5728 43.1978 50.1577 42.9076 51.0958C42.8469 51.2919 42.6796 51.6207 42.4062 51.973C42.1319 52.3265 41.8595 52.5635 41.691 52.6646C41.0115 53.0721 40.3935 53.125 37.8376 53.125H12.1611C9.60517 53.125 8.98707 53.0721 8.30762 52.6646C8.14112 52.5647 7.86993 52.3284 7.59581 51.9739C7.32297 51.621 7.15508 51.2904 7.09375 51.0922C6.92923 50.5605 6.87334 50.1823 6.87504 49.8216C6.8768 49.445 6.94165 48.9972 7.11773 48.3165Z" fill="#A5ACB8"/>
<path d="M56.875 22.5C56.875 23.5355 56.0355 24.375 55 24.375H50.625V28.75C50.625 29.7855 49.7855 30.625 48.75 30.625C47.7145 30.625 46.875 29.7855 46.875 28.75V24.375H42.5C41.4645 24.375 40.625 23.5355 40.625 22.5C40.625 21.4645 41.4645 20.625 42.5 20.625H46.875V16.25C46.875 15.2145 47.7145 14.375 48.75 14.375C49.7855 14.375 50.625 15.2145 50.625 16.25V20.625H55C56.0355 20.625 56.875 21.4645 56.875 22.5Z" fill="#A5ACB8"/>
</g>
<defs>
<clipPath id="clip0_364_20799">
<rect width="60" height="60" fill="white"/>
</clipPath>
</defs>
</svg>
