<svg width="20" height="20" viewBox="0 0 20 20" fill="none" xmlns="http://www.w3.org/2000/svg">
<g clip-path="url(#clip0_275_16380)">
<path fill-rule="evenodd" clip-rule="evenodd" d="M2.10893 1.22471C1.86486 0.980637 1.46913 0.980637 1.22505 1.22471C0.980973 1.46879 0.980973 1.86452 1.22505 2.1086L4.95652 5.84007C4.326 6.79436 3.95866 7.93857 3.95866 9.16723V10.8333C3.95866 11.2254 3.78045 11.4876 3.45866 11.9167L3.43393 11.9496C3.13177 12.3518 2.70866 12.9151 2.70866 13.75C2.70866 14.1749 2.81822 14.6066 3.12434 14.9918C3.42112 15.3651 3.85992 15.6407 4.41968 15.8469C5.03111 16.0721 5.8465 16.2357 6.91566 16.3367C7.15639 17.8233 8.4458 18.9583 10.0003 18.9583C11.5549 18.9583 12.8443 17.8233 13.085 16.3367C13.9022 16.2595 14.5706 16.1459 15.1127 15.9963L17.8917 18.7753C18.1358 19.0193 18.5315 19.0193 18.7756 18.7753C19.0197 18.5312 19.0197 18.1355 18.7756 17.8914L2.10893 1.22471ZM11.7806 16.4235C11.2386 16.4467 10.6465 16.4583 10.0003 16.4583C9.35431 16.4583 8.76221 16.4467 8.22009 16.4235C8.4674 17.1699 9.17098 17.7083 10.0003 17.7083C10.8297 17.7083 11.5333 17.1699 11.7806 16.4235ZM14.0655 14.949L5.8636 6.74715C5.44719 7.4573 5.20866 8.28392 5.20866 9.16723V10.8333C5.20866 11.6683 4.78555 12.2315 4.48339 12.6337L4.45866 12.6667C4.13687 13.0957 3.95866 13.358 3.95866 13.75C3.95866 13.9501 4.00535 14.0913 4.10287 14.214C4.20974 14.3484 4.42198 14.5156 4.85181 14.674C5.7296 14.9973 7.29975 15.2083 10.0003 15.2083C11.8263 15.2083 13.1364 15.1119 14.0655 14.949Z" fill="black"/>
<path fill-rule="evenodd" clip-rule="evenodd" d="M7.90359 4.85684C8.53617 4.54838 9.24712 4.375 10.0003 4.375C12.6466 4.375 14.792 6.52078 14.792 9.16723V10.8333C14.792 11.5636 15.1119 12.0773 15.3935 12.4663C15.4555 12.5519 15.513 12.6292 15.5661 12.7004C15.774 12.9795 15.914 13.1676 15.9918 13.4158C16.095 13.7452 16.4456 13.9286 16.775 13.8254C17.1044 13.7222 17.2878 13.3716 17.1846 13.0422C17.0366 12.5694 16.739 12.1757 16.5216 11.8881C16.4795 11.8325 16.4404 11.7807 16.406 11.7332C16.1706 11.4081 16.042 11.1619 16.042 10.8333V9.16723C16.042 6.64171 14.4924 4.47772 12.292 3.57486V3.33333C12.292 2.06768 11.266 1.04166 10.0003 1.04166C8.73467 1.04166 7.70866 2.06768 7.70866 3.33333V3.57504C7.58905 3.62411 7.47136 3.67691 7.35573 3.7333C7.04547 3.88459 6.9166 4.25874 7.06789 4.569C7.21917 4.87926 7.59333 5.00813 7.90359 4.85684ZM10.0003 3.125C10.3531 3.125 10.6989 3.15525 11.0351 3.21329C10.9756 2.69454 10.535 2.29166 10.0003 2.29166C9.46559 2.29166 9.02496 2.69459 8.96549 3.2134C9.30192 3.15527 9.64771 3.125 10.0003 3.125Z" fill="black"/>
</g>
<defs>
<clipPath id="clip0_275_16380">
<rect width="20" height="20" fill="white"/>
</clipPath>
</defs>
</svg>
