<svg width="24" height="25" viewBox="0 0 24 25" fill="none" xmlns="http://www.w3.org/2000/svg">
<g clip-path="url(#clip0_511_3898)">
<path fill-rule="evenodd" clip-rule="evenodd" d="M18.1753 2.00686C18.8664 1.66438 19.6778 1.66438 20.3689 2.00686C20.7353 2.18842 21.0539 2.50765 21.4431 2.89773L21.5227 2.97735L21.6023 3.05686C21.9923 3.44612 22.3116 3.76468 22.4931 4.13108C22.8356 4.82219 22.8356 5.6336 22.4931 6.32471C22.3116 6.69111 21.9924 7.00967 21.6023 7.39893L13.1645 15.8367C12.9689 16.0325 12.8058 16.1958 12.614 16.3267C12.4451 16.4421 12.2626 16.5361 12.0705 16.6065C11.8525 16.6864 11.6248 16.7242 11.3518 16.7695L8.78159 17.1979C8.67192 17.2162 8.54562 17.2373 8.4353 17.2456C8.31448 17.2547 8.11639 17.2585 7.90597 17.1682C7.64799 17.0576 7.44242 16.852 7.33177 16.594C7.24152 16.3836 7.24528 16.1855 7.2544 16.0647C7.26273 15.9544 7.28383 15.8281 7.30215 15.7184L7.7305 13.1482C7.77584 12.8752 7.81364 12.6475 7.89353 12.4295C7.96391 12.2374 8.05787 12.0549 8.17325 11.886C8.30423 11.6942 8.46752 11.5311 8.66332 11.3356L17.1011 2.89774C17.4903 2.50766 17.8089 2.18842 18.1753 2.00686ZM19.7029 3.35088C19.4315 3.21637 19.1128 3.21637 18.8413 3.35088C18.7264 3.40781 18.594 3.52622 18.0822 4.03801L17.3404 4.77978L19.7202 7.15956L20.462 6.41778C20.9738 5.90599 21.0922 5.77355 21.1491 5.65869C21.2836 5.38724 21.2836 5.06855 21.1491 4.7971C21.0922 4.68224 20.9738 4.5498 20.462 4.03801C19.9502 3.52622 19.8178 3.40781 19.7029 3.35088ZM18.6596 8.22022L16.2798 5.84044L9.76079 12.3594C9.50985 12.6104 9.4538 12.6706 9.41183 12.7321C9.36651 12.7984 9.3296 12.8701 9.30196 12.9456C9.27636 13.0154 9.2599 13.0961 9.20156 13.4461L8.8311 15.6689L11.0539 15.2984C11.4039 15.2401 11.4846 15.2236 11.5544 15.198C11.6299 15.1704 11.7016 15.1335 11.7679 15.0882C11.8294 15.0462 11.8896 14.9901 12.1406 14.7392L18.6596 8.22022Z" fill="#1A6AFC"/>
<path d="M5.5 5.25C3.98122 5.25 2.75 6.48122 2.75 8V19C2.75 20.5188 3.98122 21.75 5.5 21.75H16.5C18.0188 21.75 19.25 20.5188 19.25 19V14.5C19.25 14.0858 19.5858 13.75 20 13.75C20.4142 13.75 20.75 14.0858 20.75 14.5V19C20.75 21.3472 18.8472 23.25 16.5 23.25H5.5C3.15279 23.25 1.25 21.3472 1.25 19V8C1.25 5.65279 3.15279 3.75 5.5 3.75H10C10.4142 3.75 10.75 4.08579 10.75 4.5C10.75 4.91421 10.4142 5.25 10 5.25H5.5Z" fill="#1A6AFC"/>
</g>
<defs>
<clipPath id="clip0_511_3898">
<rect width="24" height="24" fill="white" transform="translate(0 0.5)"/>
</clipPath>
</defs>
</svg>
