<svg width="32" height="32" viewBox="0 0 32 32" fill="none" xmlns="http://www.w3.org/2000/svg">
<g clip-path="url(#clip0_513_12595)">
<path fill-rule="evenodd" clip-rule="evenodd" d="M12.3335 5.33317C12.3335 3.30813 13.9751 1.6665 16.0002 1.6665C18.0252 1.6665 19.6668 3.30813 19.6668 5.33317V5.71961C23.1874 7.1642 25.6668 10.6266 25.6668 14.6674V17.3332C25.6668 17.9604 25.952 18.38 26.4668 19.0665L26.5064 19.1192C26.9898 19.7628 27.6668 20.6639 27.6668 21.9998C27.6668 22.6797 27.4915 23.3705 27.0017 23.9867C26.5269 24.5841 25.8248 25.0249 24.9292 25.3548C23.9509 25.7153 22.6463 25.977 20.9356 26.1386C20.5505 28.5171 18.4874 30.3332 16.0002 30.3332C13.5129 30.3332 11.4499 28.5171 11.0647 26.1386C9.35404 25.977 8.04941 25.7153 7.07112 25.3548C6.17552 25.0249 5.47344 24.5841 4.99859 23.9867C4.50879 23.3705 4.3335 22.6797 4.3335 21.9998C4.3335 20.6639 5.01048 19.7628 5.49393 19.1192L5.5335 19.0665C6.04836 18.38 6.3335 17.9604 6.3335 17.3332V14.6674C6.3335 10.6266 8.8129 7.1642 12.3335 5.71961V5.33317ZM13.1518 26.2774C13.5475 27.4717 14.6732 28.3332 16.0002 28.3332C17.3271 28.3332 18.4528 27.4717 18.8485 26.2774C17.9812 26.3146 17.0338 26.3332 16.0002 26.3332C14.9665 26.3332 14.0192 26.3146 13.1518 26.2774Z" fill="#1A6AFC"/>
</g>
<defs>
<clipPath id="clip0_513_12595">
<rect width="32" height="32" fill="white"/>
</clipPath>
</defs>
</svg>
