<svg width="32" height="33" viewBox="0 0 32 33" fill="none" xmlns="http://www.w3.org/2000/svg">
<g clip-path="url(#clip0_513_12389)">
<path d="M14.3332 16.8822C14.3332 15.9617 15.0794 15.2155 15.9998 15.2155C16.9203 15.2155 17.6665 15.9617 17.6665 16.8822C17.6665 17.8026 16.9203 18.5488 15.9998 18.5488C15.0794 18.5488 14.3332 17.8026 14.3332 16.8822Z" fill="#1A6AFC"/>
<path fill-rule="evenodd" clip-rule="evenodd" d="M15.9998 2.54883C8.08376 2.54883 1.6665 8.96608 1.6665 16.8822C1.6665 24.7982 8.08376 31.2155 15.9998 31.2155C23.9159 31.2155 30.3332 24.7982 30.3332 16.8822C30.3332 8.96608 23.9159 2.54883 15.9998 2.54883ZM13.6153 13.2326L22.0344 10.4264C22.295 10.3395 22.5429 10.5874 22.4561 10.848L19.6495 19.2669C19.4504 19.8641 18.9818 20.3327 18.3846 20.5318L9.96601 23.338C9.70543 23.4249 9.45751 23.177 9.54436 22.9164L12.3504 14.4976C12.5494 13.9004 13.0181 13.4317 13.6153 13.2326Z" fill="#1A6AFC"/>
</g>
<defs>
<clipPath id="clip0_513_12389">
<rect width="32" height="32" fill="white" transform="translate(0 0.882324)"/>
</clipPath>
</defs>
</svg>
