<svg width="24" height="24" viewBox="0 0 24 24" fill="none" xmlns="http://www.w3.org/2000/svg">
<g id="edit-2" clip-path="url(#clip0_40_1181)">
<g id="edit-2_2">
<path fill-rule="evenodd" clip-rule="evenodd" d="M16.6789 1.58351C17.5763 1.13883 18.6299 1.13883 19.5272 1.58351C20.0013 1.81844 20.4191 2.23676 20.9967 2.81499L21.1851 3.00338C21.7633 3.58093 22.1816 3.99877 22.4166 4.47283C22.8612 5.3702 22.8612 6.42378 22.4166 7.32115C22.1816 7.79522 21.7633 8.21306 21.1851 8.79062L9.1598 20.8158C8.87077 21.1051 8.65843 21.3175 8.41024 21.4871C8.19093 21.6369 7.95387 21.7589 7.70448 21.8503C7.42224 21.9537 7.12593 22.003 6.72259 22.0701L3.06874 22.679C2.9071 22.706 2.74026 22.7339 2.59774 22.7446C2.44448 22.7562 2.22273 22.758 1.99245 22.6592C1.6997 22.5337 1.46642 22.3004 1.34085 22.0076C1.24208 21.7773 1.24388 21.5556 1.25545 21.4023C1.2662 21.2598 1.29404 21.093 1.32101 20.9314L1.92999 17.2775C1.99708 16.8741 2.04637 16.5778 2.14978 16.2956C2.24116 16.0462 2.36316 15.8091 2.51298 15.5898C2.68253 15.3416 2.895 15.1293 3.18421 14.8403L15.2095 2.81497C15.787 2.23675 16.2049 1.81843 16.6789 1.58351ZM18.8612 2.92754C18.3835 2.69082 17.8226 2.69082 17.3449 2.92754C17.1217 3.03819 16.8887 3.25709 16.176 3.96987L14.6033 5.54255L18.4575 9.39679L20.0302 7.82411C20.743 7.11133 20.9619 6.8784 21.0725 6.65513C21.3092 6.17742 21.3092 5.61656 21.0725 5.13886C20.9619 4.91558 20.743 4.68265 20.0302 3.96987C19.3174 3.25709 19.0845 3.03819 18.8612 2.92754ZM17.3969 10.4575L13.5426 6.60321L4.28819 15.8576C3.938 16.2078 3.83233 16.3177 3.75155 16.436C3.6718 16.5527 3.60685 16.6789 3.55821 16.8117C3.50894 16.9461 3.48094 17.096 3.39952 17.5845L2.79632 21.2037L6.41558 20.6005C6.90409 20.5191 7.05395 20.4911 7.18841 20.4419C7.32116 20.3932 7.44736 20.3283 7.56411 20.2485C7.68235 20.1677 7.79225 20.0621 8.14244 19.7119L17.3969 10.4575Z" fill="#1A6AFC"/>
<path d="M22.0001 21.75H14.0001C13.5859 21.75 13.2501 21.4142 13.2501 21C13.2501 20.5858 13.5859 20.25 14.0001 20.25H22.0001C22.4143 20.25 22.7501 20.5858 22.7501 21C22.7501 21.4142 22.4143 21.75 22.0001 21.75Z" fill="#1A6AFC"/>
</g>
</g>
<defs>
<clipPath id="clip0_40_1181">
<rect width="24" height="24" fill="white"/>
</clipPath>
</defs>
</svg>
