<svg width="15" height="17" viewBox="0 0 15 17" fill="none" xmlns="http://www.w3.org/2000/svg">
<path fill-rule="evenodd" clip-rule="evenodd" d="M10.9545 0L10.9302 5.036C10.9302 5.036 9.9902 4.80667 9.33786 5.16933C8.2982 5.749 8.30453 6.57167 8.5342 7.20933C8.9362 8.326 11.9582 7.787 11.9582 5.63367V1.326C11.9582 1.326 13.4099 2.06267 13.5089 3.441C13.5478 3.98112 13.3048 4.41805 13.1082 4.77159C12.9139 5.12105 12.7649 5.38903 12.9782 5.59467C12.9782 5.59467 14.1989 4.46933 14.2212 3.39267C14.2695 0.988 12.5475 0 10.9552 0H10.9545ZM6.80286 15.982H5.56953L4.90286 15.2357C4.33903 15.7398 3.61184 16.023 2.85553 16.033C1.5712 16.033 0.595531 15.2653 0.595531 14.077C0.595531 13.1927 1.1362 12.6497 1.88053 12.23C1.96386 12.18 2.0522 12.1353 2.1452 12.0907C1.70386 11.6183 1.32153 11.151 1.32153 10.5343C1.32153 9.67567 2.04686 8.96767 3.06186 8.96767C4.01786 8.96767 4.8022 9.60133 4.8022 10.541C4.8022 11.3867 4.14986 11.869 3.39986 12.2717L4.82753 13.9227C5.07085 13.3984 5.18438 12.8234 5.15853 12.246V11.9873H6.03153V12.2757C6.07469 13.0829 5.8858 13.8857 5.4872 14.589L6.80286 15.982ZM2.64486 12.6747C2.57153 12.7093 2.50286 12.7443 2.4342 12.784C1.90453 13.0723 1.54186 13.426 1.5422 14.0023C1.5422 14.793 2.1772 15.0977 2.90286 15.0977C3.43118 15.1211 3.94651 14.9299 4.33153 14.5673L2.64486 12.6747ZM2.90086 11.7347L2.90052 11.7343C3.49351 11.4311 3.91953 11.1328 3.91953 10.586C3.93379 10.2725 3.77431 9.97653 3.50459 9.81602C3.23487 9.65552 2.8987 9.65651 2.62993 9.81859C2.36116 9.98068 2.20343 10.2775 2.21953 10.591C2.21953 10.9346 2.38612 11.2225 2.90052 11.7343L2.89986 11.7347H2.90086ZM11.7779 12.5107L9.38786 16.0223L8.1732 16.0537L10.8592 12.3927L13.3229 8.986H14.5029L11.7779 12.5107ZM4.26953 3.15933H3.26953V3.66048L0.269531 3.66133V2.65933H7.26953V3.65933L4.26953 3.66019V3.15933ZM4.26953 3.66019V7.65933H3.26953V3.66048L4.26953 3.66019ZM7.26953 0.659333H0.269531V1.65933H7.26953V0.659333ZM12.6759 14.2127C12.6759 13.6703 12.8799 13.2703 13.2969 13.2703C13.6969 13.2703 13.9092 13.648 13.9092 14.2217V14.2617C13.9092 14.8397 13.6789 15.2173 13.2925 15.2173C12.8972 15.2173 12.6759 14.8307 12.6759 14.2527V14.2127ZM13.2822 15.995C12.4045 15.995 11.9045 15.2473 11.9045 14.304V14.1647C11.9045 13.2457 12.4189 12.498 13.2919 12.498C14.1649 12.498 14.6795 13.2353 14.6795 14.1737V14.314C14.6795 15.2223 14.1745 15.995 13.2822 15.995ZM8.67886 10.704C8.67886 10.1643 8.8822 9.766 9.2972 9.766C9.69486 9.766 9.90686 10.142 9.90686 10.7127V10.7523C9.90686 11.3277 9.67786 11.7037 9.29286 11.7037C8.89953 11.7037 8.67886 11.3187 8.67886 10.7437V10.7057V10.704ZM9.2822 12.4857C8.40453 12.4857 7.90453 11.738 7.90453 10.7947V10.6567C7.90453 9.73767 8.41886 8.99 9.29186 8.99C10.1649 8.99 10.6795 9.72733 10.6795 10.6657V10.8047C10.6795 11.713 10.1745 12.4857 9.2822 12.4857Z" fill="#707174"/>
</svg>
