<svg width="32" height="32" viewBox="0 0 32 32" fill="none" xmlns="http://www.w3.org/2000/svg">
<path d="M11.2256 6.75709C10.9248 6.88128 10.6519 7.0646 10.4233 7.29622C10.1927 7.5297 10.0119 7.80743 9.89156 8.11266C9.77123 8.4179 9.71393 8.74434 9.72312 9.07232C9.73231 9.40029 9.80779 9.72301 9.94502 10.021L10.1459 10.4573H10.1518L10.6436 11.4974L10.6437 11.4976C10.8648 11.9648 11.001 12.4675 11.0459 12.9824L11.182 14.5437L12.3125 13.4583L15.2278 10.6589L15.6136 10.2885L15.3891 9.80314L14.55 7.98863L14.5501 7.98858L14.5442 7.97652C14.335 7.5445 14.0074 7.18079 13.5995 6.92772C13.1926 6.67527 12.7226 6.54326 12.2438 6.54695L11.2256 6.75709Z" stroke="#A5ACB8" stroke-width="1.5"/>
<path d="M23.1106 17.4425C23.1262 17.3329 23.1342 17.2218 23.1342 17.1099C23.1342 16.4959 22.8942 15.9062 22.4653 15.4667L22.4571 15.4583L22.4487 15.4502C22.0177 15.0353 21.4484 14.7962 20.8522 14.7779C20.841 14.4997 20.7793 14.2256 20.6701 13.969C20.5487 13.6839 20.371 13.4262 20.1477 13.2114C19.9403 13.0118 19.701 12.8529 19.442 12.7397L22.4242 9.83801C22.6446 9.62835 22.8217 9.37744 22.9455 9.09952C23.07 8.81987 23.138 8.51837 23.1457 8.21233C23.1533 7.90631 23.1004 7.60179 22.99 7.31627C22.8795 7.03075 22.7138 6.76987 22.5022 6.54861L22.5023 6.54856L22.4949 6.54105C22.0502 6.08879 21.445 5.83023 20.8107 5.82152C20.1765 5.8128 19.5644 6.05463 19.1074 6.49449L19.1074 6.49448L19.1045 6.49734L10.6806 14.6945C10.6801 14.695 10.6796 14.6954 10.6791 14.6959C10.205 15.1527 9.82786 15.7002 9.57015 16.306C9.31217 16.9124 9.1792 17.5646 9.1792 18.2236C9.1792 18.8826 9.31217 19.5349 9.57015 20.1413C9.82785 20.747 10.205 21.2946 10.679 21.7513C10.6796 21.7518 10.6801 21.7523 10.6806 21.7528L13.7382 24.728L13.7414 24.7311C14.7066 25.6593 15.9937 26.1777 17.3328 26.1777C18.6719 26.1777 19.959 25.6593 20.9243 24.7311L20.9303 24.7253L20.9361 24.7194L23.9479 21.6922C24.3989 21.2834 24.6939 20.7303 24.782 20.1275C24.8712 19.5165 24.742 18.8936 24.4172 18.3684L24.4037 18.3466L24.3887 18.3257C24.0867 17.9049 23.6519 17.5981 23.1543 17.4546L22.9465 18.1752L23.1543 17.4546C23.1397 17.4504 23.1252 17.4464 23.1106 17.4425Z" stroke="#A5ACB8" stroke-width="1.5"/>
</svg>
