<svg width="20" height="20" viewBox="0 0 20 20" fill="none" xmlns="http://www.w3.org/2000/svg">
<path d="M10.0001 1.66602C5.40841 1.66602 1.66675 5.40768 1.66675 9.99935C1.66675 14.591 5.40841 18.3327 10.0001 18.3327C14.5917 18.3327 18.3334 14.591 18.3334 9.99935C18.3334 5.40768 14.5917 1.66602 10.0001 1.66602ZM12.8001 11.916C13.0417 12.1577 13.0417 12.5577 12.8001 12.7993C12.6751 12.9243 12.5167 12.9827 12.3584 12.9827C12.2001 12.9827 12.0417 12.9243 11.9167 12.7993L10.0001 10.8827L8.08342 12.7993C7.95842 12.9243 7.80008 12.9827 7.64175 12.9827C7.48342 12.9827 7.32508 12.9243 7.20008 12.7993C6.95842 12.5577 6.95842 12.1577 7.20008 11.916L9.11675 9.99935L7.20008 8.08268C6.95842 7.84102 6.95842 7.44102 7.20008 7.19935C7.44175 6.95768 7.84175 6.95768 8.08342 7.19935L10.0001 9.11602L11.9167 7.19935C12.1584 6.95768 12.5584 6.95768 12.8001 7.19935C13.0417 7.44102 13.0417 7.84102 12.8001 8.08268L10.8834 9.99935L12.8001 11.916Z" fill="#727985"/>
</svg>
