<svg width="57" height="57" viewBox="0 0 57 57" fill="none" xmlns="http://www.w3.org/2000/svg">
<g clip-path="url(#clip0_603_29740)">
<path d="M21.4291 30.9041C20.7456 30.2207 20.7456 29.1126 21.4291 28.4292L27.2624 22.5959C27.5906 22.2677 28.0357 22.0833 28.4998 22.0833C28.964 22.0833 29.4091 22.2677 29.7373 22.5959L35.5706 28.4292C36.254 29.1126 36.254 30.2207 35.5706 30.9041C34.8872 31.5875 33.7792 31.5875 33.0957 30.9041L30.2498 28.0582V37.8333C30.2498 38.7998 29.4663 39.5833 28.4998 39.5833C27.5333 39.5833 26.7498 38.7998 26.7498 37.8333V28.0582L23.9039 30.9041C23.2205 31.5875 22.1125 31.5875 21.4291 30.9041Z" fill="white"/>
<path fill-rule="evenodd" clip-rule="evenodd" d="M13.3332 5.75C7.85635 5.75 3.4165 10.1898 3.4165 15.6667V41.3333C3.4165 46.8102 7.85635 51.25 13.3332 51.25H43.6665C49.1433 51.25 53.5832 46.8102 53.5832 41.3333V20.3333C53.5832 15.5008 49.6657 11.5833 44.8332 11.5833H28.058L22.7373 6.26256C22.4091 5.93437 21.964 5.75 21.4998 5.75H13.3332ZM6.9165 15.6667C6.9165 12.1228 9.78934 9.25 13.3332 9.25H20.775L26.0957 14.5708C26.4239 14.899 26.869 15.0833 27.3332 15.0833H44.8332C47.7327 15.0833 50.0832 17.4338 50.0832 20.3333V41.3333C50.0832 44.8772 47.2103 47.75 43.6665 47.75H13.3332C9.78934 47.75 6.9165 44.8772 6.9165 41.3333V15.6667Z" fill="white"/>
</g>
<defs>
<clipPath id="clip0_603_29740">
<rect width="56" height="56" fill="white" transform="translate(0.5 0.5)"/>
</clipPath>
</defs>
</svg>
