<svg width="20" height="20" viewBox="0 0 20 20" fill="none" xmlns="http://www.w3.org/2000/svg">
<g clip-path="url(#clip0_275_16388)">
<path d="M9.16623 13.75C9.16623 13.2898 9.53933 12.9167 9.99957 12.9167C10.4598 12.9167 10.8329 13.2898 10.8329 13.75C10.8329 14.2102 10.4598 14.5833 9.99957 14.5833C9.53933 14.5833 9.16623 14.2102 9.16623 13.75Z" fill="black"/>
<path d="M9.37457 6.66667V10.8333C9.37457 11.1785 9.65439 11.4583 9.99957 11.4583C10.3447 11.4583 10.6246 11.1785 10.6246 10.8333V6.66667C10.6246 6.32149 10.3447 6.04167 9.99957 6.04167C9.65439 6.04167 9.37457 6.32149 9.37457 6.66667Z" fill="black"/>
<path fill-rule="evenodd" clip-rule="evenodd" d="M7.64865 3.23227C8.69102 1.42258 11.3081 1.42258 12.3505 3.23227L18.5943 14.0724C19.6347 15.8786 18.3248 18.125 16.2434 18.125H3.75571C1.67431 18.125 0.364451 15.8786 1.4048 14.0724L7.64865 3.23227ZM11.2673 3.85617C10.7058 2.88128 9.29335 2.88128 8.73182 3.85616L2.48797 14.6963C1.93096 15.6633 2.62928 16.875 3.75571 16.875H16.2434C17.3698 16.875 18.0681 15.6633 17.5111 14.6963L11.2673 3.85617Z" fill="black"/>
</g>
<defs>
<clipPath id="clip0_275_16388">
<rect width="20" height="20" fill="white"/>
</clipPath>
</defs>
</svg>
