<svg width="22" height="22" viewBox="0 0 22 22" fill="none" xmlns="http://www.w3.org/2000/svg">
<path fill-rule="evenodd" clip-rule="evenodd" d="M9 0.25C6.1005 0.25 3.75 2.6005 3.75 5.5C3.75 8.3995 6.1005 10.75 9 10.75C11.8995 10.75 14.25 8.3995 14.25 5.5C14.25 2.6005 11.8995 0.25 9 0.25ZM5.25 5.5C5.25 3.42893 6.92893 1.75 9 1.75C11.0711 1.75 12.75 3.42893 12.75 5.5C12.75 7.57107 11.0711 9.25 9 9.25C6.92893 9.25 5.25 7.57107 5.25 5.5Z" fill="#1A6AFC"/>
<path fill-rule="evenodd" clip-rule="evenodd" d="M8.99972 12.25C5.14883 12.25 1.39907 14.0689 0.39489 17.951C0.308493 18.285 0.251551 18.5978 0.250031 18.9216C0.248482 19.2517 0.304556 19.5572 0.404532 19.8803C0.496504 20.1775 0.66701 20.4682 0.85164 20.707C1.03576 20.9452 1.27716 21.1876 1.55149 21.3522C2.21769 21.7518 2.89803 21.751 3.74056 21.7501H14.2589C15.1014 21.751 15.7818 21.7518 16.448 21.3522C16.7215 21.1881 16.9629 20.9467 17.1475 20.7088C17.3325 20.4705 17.5038 20.1797 17.596 19.8817C17.8115 19.1854 17.7882 18.661 17.6046 17.951C16.6004 14.0689 12.8506 12.25 8.99972 12.25ZM1.84709 18.3266C2.61527 15.3569 5.5342 13.75 8.99972 13.75C12.4652 13.75 15.3842 15.3569 16.1524 18.3266C16.2824 18.8291 16.2791 19.0631 16.163 19.4383C16.1387 19.5168 16.0718 19.6483 15.9625 19.7892C15.8528 19.9306 15.7438 20.0254 15.6764 20.0658C15.4046 20.2288 15.1574 20.25 14.135 20.25H3.86443C2.84207 20.25 2.59483 20.2288 2.32305 20.0658C2.25645 20.0259 2.14797 19.9314 2.03832 19.7896C1.92919 19.6484 1.86203 19.5162 1.8375 19.4369C1.77169 19.2242 1.74934 19.0729 1.75001 18.9286C1.75072 18.778 1.77666 18.5989 1.84709 18.3266Z" fill="#1A6AFC"/>
<path d="M21.5303 5.46967C21.8232 5.76256 21.8232 6.23744 21.5303 6.53033L20.0607 8L21.5303 9.46967C21.8232 9.76256 21.8232 10.2374 21.5303 10.5303C21.2374 10.8232 20.7626 10.8232 20.4697 10.5303L19 9.06066L17.5303 10.5303C17.2374 10.8232 16.7626 10.8232 16.4697 10.5303C16.1768 10.2374 16.1768 9.76256 16.4697 9.46967L17.9393 8L16.4697 6.53033C16.1768 6.23744 16.1768 5.76256 16.4697 5.46967C16.7626 5.17678 17.2374 5.17678 17.5303 5.46967L19 6.93934L20.4697 5.46967C20.7626 5.17678 21.2374 5.17678 21.5303 5.46967Z" fill="#1A6AFC"/>
</svg>
