<svg width="24" height="25" viewBox="0 0 24 25" fill="none" xmlns="http://www.w3.org/2000/svg">
<g clip-path="url(#clip0_511_9785)">
<path fill-rule="evenodd" clip-rule="evenodd" d="M1.25 8C1.25 5.65279 3.15279 3.75 5.5 3.75H13.5C15.8472 3.75 17.75 5.65279 17.75 8V8.81598L19.8293 6.9446C20.9555 5.93105 22.75 6.73026 22.75 8.24536V16.7546C22.75 18.2697 20.9555 19.0689 19.8293 18.0554L17.75 16.184V17C17.75 19.3472 15.8472 21.25 13.5 21.25H5.5C3.15279 21.25 1.25 19.3472 1.25 17V8ZM17.75 14.166V10.834L20.8328 8.05954C20.9936 7.91474 21.25 8.02892 21.25 8.24536V16.7546C21.25 16.9711 20.9936 17.0853 20.8328 16.9405L17.75 14.166ZM16.25 8V17C16.25 18.5188 15.0188 19.75 13.5 19.75H5.5C3.98122 19.75 2.75 18.5188 2.75 17V8C2.75 6.48122 3.98122 5.25 5.5 5.25H13.5C15.0188 5.25 16.25 6.48122 16.25 8Z" fill="#1A6AFC"/>
</g>
<defs>
<clipPath id="clip0_511_9785">
<rect width="24" height="24" fill="white" transform="translate(0 0.5)"/>
</clipPath>
</defs>
</svg>
