<svg width="60" height="60" viewBox="0 0 60 60" fill="none" xmlns="http://www.w3.org/2000/svg">
<rect width="60" height="60" rx="13" fill="url(#paint0_radial_2797_117591)"/>
<path d="M28.9447 34.1491L15.0646 35.3304L33.7842 8.59888C33.9211 8.36369 34.3257 8.457 34.2496 8.74202C30.569 26.3231 32.1933 18.7924 28.9447 34.1491Z" fill="url(#paint1_linear_2797_117591)"/>
<path d="M31.3074 25.2882L44.8921 24.4022L26.0106 51.5231C25.8736 51.7583 25.4691 51.665 25.5452 51.38C29.3877 33.7048 27.7635 41.3832 31.3074 25.2882Z" fill="url(#paint2_linear_2797_117591)"/>
<path d="M21.7097 25.8789L15.065 35.3292L38.2477 33.8526L44.8924 24.4023L21.7097 25.8789Z" fill="url(#paint3_linear_2797_117591)"/>
<defs>
<radialGradient id="paint0_radial_2797_117591" cx="0" cy="0" r="1" gradientUnits="userSpaceOnUse" gradientTransform="translate(8.05714 2.4) rotate(49.4387) scale(79.88)">
<stop stop-color="#229FD0"/>
<stop offset="0.537592" stop-color="#1A6AFC"/>
<stop offset="1" stop-color="#00007A"/>
</radialGradient>
<linearGradient id="paint1_linear_2797_117591" x1="26.1392" y1="24.8465" x2="30.569" y2="32.8202" gradientUnits="userSpaceOnUse">
<stop stop-color="white"/>
<stop offset="0.875" stop-color="#4076A8"/>
</linearGradient>
<linearGradient id="paint2_linear_2797_117591" x1="33.8175" y1="35.4767" x2="25.8439" y2="25.7311" gradientUnits="userSpaceOnUse">
<stop stop-color="white"/>
<stop offset="0.0001" stop-color="white"/>
<stop offset="0.821696" stop-color="#4076A8"/>
</linearGradient>
<linearGradient id="paint3_linear_2797_117591" x1="29.0343" y1="24.8453" x2="30.5875" y2="34.1399" gradientUnits="userSpaceOnUse">
<stop stop-color="#FBFBFB"/>
<stop offset="1" stop-color="white"/>
</linearGradient>
</defs>
</svg>
