<svg width="24" height="24" viewBox="0 0 24 24" fill="none" xmlns="http://www.w3.org/2000/svg">
    <g clip-path="url(#clip0_3396_24902)">
        <path fill-rule="evenodd" clip-rule="evenodd"
            d="M9.25 4C9.25 2.48122 10.4812 1.25 12 1.25C13.5188 1.25 14.75 2.48122 14.75 4V4.28983C17.3904 5.37327 19.25 7.97006 19.25 11.0007V13C19.25 13.4704 19.4639 13.7851 19.85 14.3L19.8797 14.3395C20.2423 14.8222 20.75 15.4981 20.75 16.5C20.75 17.0099 20.6185 17.528 20.2512 17.9901C19.895 18.4382 19.3685 18.7688 18.6968 19.0163C17.9631 19.2866 16.9846 19.4829 15.7016 19.6041C15.4127 21.3879 13.8654 22.75 12 22.75C10.1346 22.75 8.58728 21.3879 8.2984 19.6041C7.01541 19.4829 6.03694 19.2866 5.30322 19.0163C4.63152 18.7688 4.10496 18.4382 3.74882 17.9901C3.38147 17.528 3.25 17.0099 3.25 16.5C3.25 15.4981 3.75774 14.8222 4.12033 14.3395L4.15 14.3C4.53615 13.7851 4.75 13.4704 4.75 13V11.0007C4.75 7.97006 6.60956 5.37327 9.25 4.28983V4ZM9.86372 19.7082C10.1605 20.6039 11.0048 21.25 12 21.25C12.9952 21.25 13.8395 20.6039 14.1363 19.7082C13.4857 19.736 12.7752 19.75 12 19.75C11.2248 19.75 10.5143 19.736 9.86372 19.7082ZM12 2.75C12.6416 2.75 13.1704 3.23345 13.2418 3.85596C12.8383 3.7863 12.4234 3.75 12 3.75C11.5766 3.75 11.1617 3.7863 10.7582 3.85596C10.8296 3.23345 11.3584 2.75 12 2.75ZM12 5.25C8.82446 5.25 6.25 7.82494 6.25 11.0007V13C6.25 14.0019 5.74226 14.6778 5.37967 15.1605L5.35 15.2C4.96385 15.7149 4.75 16.0296 4.75 16.5C4.75 16.7401 4.80603 16.9095 4.92305 17.0568C5.05129 17.2181 5.30598 17.4187 5.82178 17.6087C6.87513 17.9968 8.75931 18.25 12 18.25C15.2407 18.25 17.1249 17.9968 18.1782 17.6087C18.694 17.4187 18.9487 17.2181 19.0769 17.0568C19.194 16.9095 19.25 16.7401 19.25 16.5C19.25 16.0296 19.0361 15.7149 18.65 15.2L18.6203 15.1605C18.2577 14.6778 17.75 14.0019 17.75 13V11.0007C17.75 7.82494 15.1755 5.25 12 5.25Z"
            fill="#1A6AFC" />
    </g>
    <defs>
        <clipPath id="clip0_3396_24902">
            <rect width="24" height="24" fill="white" />
        </clipPath>
    </defs>
</svg>