<svg width="16" height="17" viewBox="0 0 16 17" fill="none" xmlns="http://www.w3.org/2000/svg">
<path fill-rule="evenodd" clip-rule="evenodd" d="M16 8.02684C16 3.60856 12.4183 0.0268402 8 0.0268402C3.58172 0.0268402 0 3.60856 0 8.02684C0 12.4451 3.58172 16.0268 8 16.0268C12.4183 16.0268 16 12.4451 16 8.02684ZM15 8.02684C15 4.16085 11.866 1.02684 8 1.02684C4.13401 1.02684 1 4.16085 1 8.02684C1 11.8928 4.13401 15.0268 8 15.0268C11.866 15.0268 15 11.8928 15 8.02684ZM7.66667 7.68317H8.66667V2.02684H7.66667V7.68317ZM8.66667 8.33951V8.68317H4V7.68317H7.66667V8.33951H8.66667Z" fill="#707174"/>
</svg>
