<svg width="20" height="20" viewBox="0 0 20 20" fill="none" xmlns="http://www.w3.org/2000/svg">
<g clip-path="url(#clip0_3557_187251)">
<path fill-rule="evenodd" clip-rule="evenodd" d="M7.70801 3.33329C7.70801 2.06764 8.73402 1.04163 9.99967 1.04163C11.2653 1.04163 12.2913 2.06764 12.2913 3.33329V3.57482C14.4917 4.47768 16.0413 6.64167 16.0413 9.16719V10.8333C16.0413 11.2253 16.2196 11.4876 16.5413 11.9166L16.5661 11.9496C16.8682 12.3518 17.2913 12.915 17.2913 13.75C17.2913 14.1749 17.1818 14.6066 16.8757 14.9917C16.5789 15.3651 16.1401 15.6406 15.5803 15.8468C14.9689 16.0721 14.1535 16.2357 13.0843 16.3367C12.8436 17.8232 11.5542 18.9583 9.99967 18.9583C8.44515 18.9583 7.15574 17.8232 6.91501 16.3367C5.84585 16.2357 5.03045 16.0721 4.41903 15.8468C3.85927 15.6406 3.42047 15.3651 3.12369 14.9917C2.81756 14.6066 2.70801 14.1749 2.70801 13.75C2.70801 12.915 3.13112 12.3518 3.43328 11.9496L3.45801 11.9166C3.7798 11.4876 3.95801 11.2253 3.95801 10.8333V9.16719C3.95801 6.64167 5.50764 4.47768 7.70801 3.57482V3.33329ZM8.21944 16.4235C8.46675 17.1698 9.17033 17.7083 9.99967 17.7083C10.829 17.7083 11.5326 17.1698 11.7799 16.4235C11.2378 16.4467 10.6457 16.4583 9.99967 16.4583C9.35366 16.4583 8.76156 16.4467 8.21944 16.4235ZM9.99967 2.29163C10.5344 2.29163 10.975 2.6945 11.0345 3.21326C10.6983 3.15521 10.3525 3.12496 9.99967 3.12496C9.64685 3.12496 9.30109 3.15521 8.96485 3.21326C9.02437 2.6945 9.46497 2.29163 9.99967 2.29163ZM9.99967 4.37496C7.35339 4.37496 5.20801 6.52074 5.20801 9.16719V10.8333C5.20801 11.6682 4.78489 12.2315 4.48273 12.6337L4.45801 12.6666C4.13622 13.0957 3.95801 13.3579 3.95801 13.75C3.95801 13.9501 4.0047 14.0912 4.10222 14.2139C4.20909 14.3484 4.42133 14.5156 4.85116 14.6739C5.72895 14.9973 7.2991 15.2083 9.99967 15.2083C12.7002 15.2083 14.2704 14.9973 15.1482 14.6739C15.578 14.5156 15.7903 14.3484 15.8971 14.2139C15.9946 14.0912 16.0413 13.9501 16.0413 13.75C16.0413 13.3579 15.8631 13.0957 15.5413 12.6666L15.5166 12.6337C15.2145 12.2315 14.7913 11.6682 14.7913 10.8333V9.16719C14.7913 6.52074 12.646 4.37496 9.99967 4.37496Z" fill="black"/>
</g>
<defs>
<clipPath id="clip0_3557_187251">
<rect width="20" height="20" fill="white"/>
</clipPath>
</defs>
</svg>
