<svg width="20" height="20" viewBox="0 0 20 20" fill="none" xmlns="http://www.w3.org/2000/svg">
<g clip-path="url(#clip0_90_1291)">
<path d="M1.58824 12.7224H8.11027C8.9338 12.7224 9.85296 12.8478 10.7868 13.1056C12.7279 13.635 14.5588 14.7358 16.3162 16.4426C17.3603 17.5086 19 16.9651 19 15.4951V5.50483C19 4.03484 17.3603 3.49143 16.3162 4.55735C13.7353 7.09325 10.7353 8.2776 8.11027 8.2776H1.58824V9.39925H8.11027C11.0368 9.39925 14.3309 8.10343 17.125 5.37246C17.5147 4.99625 17.8162 5.07289 17.8162 5.50483V15.4951C17.8162 15.9271 17.5147 15.9968 17.125 15.6206C14.3309 12.8966 11.0368 11.6008 8.11027 11.6008H1.58824V12.7224ZM1.58824 13.5445C1.91912 13.5445 2.18382 13.2867 2.18382 12.9802V8.00589C2.18382 7.69936 1.91912 7.44855 1.58824 7.44855C1.26471 7.44855 1 7.69936 1 8.00589V12.9802C1 13.2867 1.26471 13.5445 1.58824 13.5445ZM3.05147 13.8092C3.05147 14.9378 4.02941 15.8574 5.22059 15.8574H9.38971C10.5809 15.8574 11.5588 14.9378 11.5588 13.8092C11.5588 12.6806 10.5809 11.754 9.38971 11.754H5.22059C4.02941 11.754 3.05147 12.6806 3.05147 13.8092ZM4.23529 13.8092C4.23529 13.3006 4.68382 12.8757 5.22059 12.8757H9.38971C9.92649 12.8757 10.375 13.3006 10.375 13.8092C10.375 14.3178 9.92649 14.7288 9.38971 14.7288H5.22059C4.68382 14.7288 4.23529 14.3178 4.23529 13.8092Z" fill="black" fill-opacity="0.85"/>
</g>
<defs>
<clipPath id="clip0_90_1291">
<rect width="20" height="20" fill="white"/>
</clipPath>
</defs>
</svg>
