<svg width="20" height="20" viewBox="0 0 20 20" fill="none" xmlns="http://www.w3.org/2000/svg">
<path d="M18.0676 17.4696C16.2382 16.6128 15.1887 14.7727 15.1887 12.4242V11.1136C15.1886 10.9015 15.1225 10.6942 14.9989 10.5187C14.8753 10.3431 14.6999 10.2073 14.4953 10.1288L12.5386 9.3841C12.4426 9.34729 12.3551 9.29261 12.281 9.22317C12.207 9.15374 12.1479 9.07093 12.107 8.97946C12.0662 8.88799 12.0445 8.78967 12.0432 8.69011C12.0418 8.59056 12.0608 8.49172 12.0992 8.39926L13.7736 4.38641C13.8788 4.14158 13.9317 3.87881 13.929 3.61384C13.9263 3.34886 13.8682 3.08714 13.7581 2.84432C13.648 2.6015 13.4882 2.38259 13.2883 2.20068C13.0883 2.01878 12.8523 1.87762 12.5944 1.78567C11.5764 1.41976 10.4027 1.92506 9.97578 2.92202L8.32487 6.94548C8.28683 7.03812 8.23019 7.12263 8.15821 7.19415C8.08622 7.26567 8.0003 7.32281 7.90537 7.36229C7.81044 7.40176 7.70836 7.42281 7.60497 7.42421C7.50159 7.42562 7.39893 7.40736 7.30288 7.37048L5.31236 6.59094C5.11085 6.51204 4.88948 6.49289 4.6766 6.53594C4.46372 6.57899 4.26902 6.68229 4.11742 6.8326C2.49167 8.44092 1.66701 10.3227 1.66701 12.4242C1.66295 14.5754 2.52601 16.6441 4.07418 18.1939C4.11871 18.2385 4.17221 18.2738 4.23142 18.2978C4.29063 18.3218 4.3543 18.3339 4.41852 18.3333H17.8616C17.9684 18.3334 18.0721 18.2985 18.1556 18.2344C18.2392 18.1704 18.2978 18.0808 18.3217 17.9805C18.3456 17.8802 18.3335 17.7751 18.2873 17.6823C18.2412 17.5895 18.1637 17.5145 18.0676 17.4696ZM4.79351 7.46366C4.81512 7.4434 4.84232 7.42956 4.87187 7.42378C4.90142 7.41801 4.93207 7.42054 4.96017 7.43108L6.95698 8.21062C7.16832 8.29216 7.39428 8.33268 7.6219 8.32988C7.84953 8.32708 8.07434 8.281 8.28344 8.19429C8.49255 8.10758 8.68183 7.98194 8.84044 7.82458C8.99905 7.66722 9.12386 7.48124 9.20771 7.27729L10.8586 3.26217C11.0945 2.72202 11.7234 2.44324 12.2737 2.64021C12.4125 2.69026 12.5395 2.76683 12.6469 2.86533C12.7542 2.96382 12.8399 3.08221 12.8986 3.21338C12.9573 3.34455 12.988 3.48581 12.9887 3.62867C12.9893 3.77153 12.9601 3.91305 12.9026 4.04474L11.2234 8.06744C11.0564 8.47757 11.0644 8.93466 11.2455 9.33918C11.4266 9.7437 11.7662 10.0629 12.1904 10.2273L14.1463 10.972C14.1757 10.9832 14.2008 11.0028 14.2185 11.0281C14.2362 11.0533 14.2455 11.0832 14.2453 11.1136V12.4242C14.2453 12.5257 14.2453 12.625 14.2516 12.7273L3.76916 8.68259C4.07008 8.24615 4.41305 7.83803 4.79351 7.46366ZM8.61103 17.4242C7.62922 16.5333 6.93344 15.3895 6.60636 14.1288C6.59087 14.071 6.56372 14.0167 6.52646 13.969C6.4892 13.9213 6.44256 13.8811 6.3892 13.8508C6.33583 13.8205 6.2768 13.8006 6.21545 13.7923C6.15411 13.7839 6.09167 13.7873 6.03169 13.8022C5.9717 13.8172 5.91536 13.8433 5.86587 13.8792C5.81638 13.9151 5.77472 13.9601 5.74325 14.0115C5.71179 14.0629 5.69115 14.1198 5.6825 14.1789C5.67385 14.2381 5.67737 14.2982 5.69286 14.356C5.98869 15.4823 6.54199 16.5305 7.31232 17.4242H4.61977C3.32411 16.0587 2.60709 14.2745 2.61038 12.4242C2.60049 11.4052 2.83482 10.3978 3.29511 9.48031L14.3515 13.7424C14.5991 15.2515 15.2768 16.5197 16.3168 17.4242H8.61103Z" fill="black"/>
</svg>
