<svg width="24" height="25" viewBox="0 0 24 25" fill="none" xmlns="http://www.w3.org/2000/svg">
<g clip-path="url(#clip0_371_20239)">
<path d="M12 11.6323C11.3096 11.6323 10.75 12.192 10.75 12.8823C10.75 13.5727 11.3096 14.1323 12 14.1323C12.6904 14.1323 13.25 13.5727 13.25 12.8823C13.25 12.192 12.6904 11.6323 12 11.6323Z" fill="#727985"/>
<path fill-rule="evenodd" clip-rule="evenodd" d="M17.5537 8.59388C17.8143 7.81213 17.0705 7.06836 16.2888 7.32894L9.97443 9.43365C9.30254 9.65761 8.77531 10.1849 8.55137 10.8567L6.44688 17.1709C6.18632 17.9526 6.93006 18.6963 7.71181 18.4357L14.0258 16.331C14.6976 16.1071 15.2248 15.5799 15.4487 14.9081L17.5537 8.59388ZM10.4488 10.8567L15.8144 9.0682L14.0257 14.4337C13.9511 14.6576 13.7753 14.8333 13.5514 14.908L8.18611 16.6965L9.97441 11.331C10.0491 11.1071 10.2248 10.9313 10.4488 10.8567Z" fill="#727985"/>
<path fill-rule="evenodd" clip-rule="evenodd" d="M12 2.13232C6.06294 2.13232 1.25 6.94526 1.25 12.8823C1.25 18.8194 6.06294 23.6323 12 23.6323C17.9371 23.6323 22.75 18.8194 22.75 12.8823C22.75 6.94526 17.9371 2.13232 12 2.13232ZM2.75 12.8823C2.75 7.77369 6.89137 3.63232 12 3.63232C17.1086 3.63232 21.25 7.77369 21.25 12.8823C21.25 17.991 17.1086 22.1323 12 22.1323C6.89137 22.1323 2.75 17.991 2.75 12.8823Z" fill="#727985"/>
</g>
<defs>
<clipPath id="clip0_371_20239">
<rect width="24" height="24" fill="white" transform="translate(0 0.882324)"/>
</clipPath>
</defs>
</svg>
