<svg width="32" height="32" viewBox="0 0 32 32" fill="none" xmlns="http://www.w3.org/2000/svg">
<g clip-path="url(#clip0_573_14305)">
<path d="M16.6279 11.814C16.6279 11.4672 16.3468 11.186 16 11.186C15.6532 11.186 15.3721 11.4672 15.3721 11.814V16C15.3721 16.1863 15.4549 16.3631 15.598 16.4824L18.1097 18.5754C18.3761 18.7974 18.772 18.7614 18.994 18.495C19.216 18.2286 19.18 17.8327 18.9136 17.6107L16.6279 15.7059V11.814Z" fill="#A5ACB8"/>
<path fill-rule="evenodd" clip-rule="evenodd" d="M16 7C11.0294 7 7 11.0294 7 16C7 20.9706 11.0294 25 16 25C20.9706 25 25 20.9706 25 16C25 11.0294 20.9706 7 16 7ZM8.25581 16C8.25581 11.723 11.723 8.25581 16 8.25581C20.277 8.25581 23.7442 11.723 23.7442 16C23.7442 20.277 20.277 23.7442 16 23.7442C11.723 23.7442 8.25581 20.277 8.25581 16Z" fill="#A5ACB8"/>
</g>
<defs>
<clipPath id="clip0_573_14305">
<rect width="24" height="24" fill="white" transform="translate(4 4)"/>
</clipPath>
</defs>
</svg>
