<svg width="13" height="17" viewBox="0 0 13 17" fill="none" xmlns="http://www.w3.org/2000/svg">
<path fill-rule="evenodd" clip-rule="evenodd" d="M8.94234 15.0161L8.89883 15.0151H8.94234V13.0628L9.04501 12.1935C9.18678 11.0504 9.74792 10.0007 10.6197 9.24782C11.7174 8.25991 12.3205 6.83602 12.2663 5.36017C12.2663 2.41952 9.724 0.0268707 6.59969 0.0268707C3.47537 0.0268707 0.933052 2.41952 0.933052 5.36017C0.878839 6.83602 1.48194 8.25991 2.57971 9.24782C3.45145 10.0007 4.0126 11.0504 4.15437 12.1935L4.25703 13.0638V15.0161C4.26719 15.4582 4.59533 15.8282 5.03303 15.8911C5.55119 15.9749 6.07484 16.0202 6.59969 16.0268C7.12454 16.0202 7.64818 15.9749 8.16635 15.8911C8.60404 15.8282 8.93218 15.4582 8.94234 15.0161ZM9.95073 8.5045C8.91769 9.39639 8.2392 10.6547 8.05819 12.0268H5.14112C4.95829 10.6512 4.28007 9.39499 3.23332 8.49099C2.37113 7.71481 1.88904 6.57661 1.93305 5.36017C1.93305 2.98586 4.01451 1.02687 6.59969 1.02687C9.18487 1.02687 11.2663 2.98586 11.267 5.39688C11.3103 6.57661 10.8282 7.71481 9.95073 8.5045ZM5.25703 13.0638V13.0268H7.94235V14.9141C7.48407 14.9843 7.03613 15.0213 6.58722 15.0269C6.15711 15.0212 5.70528 14.9835 5.25677 14.9141L5.25703 13.0638ZM7.26635 7.69349C7.26635 7.74621 7.27247 7.79749 7.28403 7.84668L6.59985 8.47776L5.9154 7.84643C5.92693 7.79732 5.93302 7.74612 5.93302 7.69349C5.93302 7.32531 5.63455 7.02683 5.26636 7.02683C4.89817 7.02683 4.5997 7.32531 4.5997 7.69349C4.5997 8.06168 4.89817 8.36016 5.26636 8.36016C5.32238 8.36016 5.37679 8.35325 5.42877 8.34023L6.26636 9.11282V11.3601H6.93302V9.11312L7.77087 8.3403C7.82277 8.35327 7.87709 8.36016 7.93301 8.36016C8.3012 8.36016 8.59968 8.06168 8.59968 7.69349C8.59968 7.32531 8.3012 7.02683 7.93301 7.02683C7.56483 7.02683 7.26635 7.32531 7.26635 7.69349ZM5.26636 13.6935V14.3601H6.59969V13.6935H5.26636Z" fill="#707174"/>
</svg>
