<svg width="11" height="11" viewBox="0 0 11 11" fill="none" xmlns="http://www.w3.org/2000/svg">
    <g clip-path="url(#clip0_4052_12172)">
    <path d="M5.08822 8.73332C5.08822 8.90591 5.22813 9.04582 5.40072 9.04582C5.5733 9.04582 5.71322 8.90591 5.71322 8.73332V5.71248H8.73405C8.90664 5.71248 9.04655 5.57257 9.04655 5.39998C9.04655 5.22739 8.90664 5.08748 8.73405 5.08748H5.71322V2.06665C5.71322 1.89406 5.57331 1.75415 5.40072 1.75415C5.22813 1.75415 5.08822 1.89406 5.08822 2.06665V5.08748H2.06738C1.89479 5.08748 1.75488 5.22739 1.75488 5.39998C1.75488 5.57257 1.89479 5.71248 2.06738 5.71248H5.08822V8.73332Z" fill="white"/>
    </g>
    <defs>
    <clipPath id="clip0_4052_12172">
    <rect width="10" height="10" fill="white" transform="translate(0.400391 0.400024)"/>
    </clipPath>
    </defs>
    </svg>
    