<svg width="24" height="24" viewBox="0 0 24 24" fill="none" xmlns="http://www.w3.org/2000/svg">
<g clip-path="url(#clip0_188_854)">
<path fill-rule="evenodd" clip-rule="evenodd" d="M3.94988 2.71083C5.00165 1.65905 6.7435 1.79238 7.62294 2.99199L9.97944 6.20639C10.7284 7.22798 10.6201 8.64318 9.72435 9.53888C9.26691 9.99633 9.26691 10.738 9.72435 11.1954L12.8046 14.2756C13.262 14.7331 14.0037 14.7331 14.4611 14.2756C15.3568 13.3799 16.772 13.2716 17.7936 14.0206L21.008 16.3771C22.2076 17.2565 22.3409 18.9983 21.2892 20.0501L21.0619 20.2774C19.6287 21.7106 17.5586 22.3047 15.5836 21.8499C13.8314 21.4463 12.1762 20.7007 10.7129 19.6559L9.69921 18.932C7.91028 17.6547 6.34534 16.0897 5.06796 14.3008L4.34413 13.2871C3.29927 11.8238 2.55368 10.1686 2.15014 8.41642C1.69527 6.44136 2.28945 4.37126 3.72259 2.93812L3.94988 2.71083ZM6.49761 3.81698C6.12384 3.30715 5.38355 3.25048 4.93654 3.69749L4.70925 3.92478C3.61615 5.01788 3.16294 6.59681 3.50989 8.10325C3.8722 9.67638 4.5416 11.1625 5.47969 12.4762L6.20352 13.4899C7.39134 15.1534 8.84656 16.6087 10.5101 17.7965L11.5238 18.5203C12.8375 19.4584 14.3236 20.1278 15.8967 20.4901C17.4032 20.8371 18.9821 20.3839 20.0752 19.2908L20.3025 19.0635C20.7495 18.6165 20.6929 17.8762 20.183 17.5024L16.9686 15.1459C16.5024 14.8041 15.8565 14.8535 15.4478 15.2623C14.4454 16.2647 12.8203 16.2647 11.8179 15.2623L8.73769 12.1821C7.73533 11.1797 7.73533 9.55459 8.73769 8.55223C9.14646 8.14346 9.1959 7.4976 8.85411 7.03138L6.49761 3.81698Z" fill="#1A6AFC"/>
</g>
<defs>
<clipPath id="clip0_188_854">
<rect width="24" height="24" fill="white"/>
</clipPath>
</defs>
</svg>
