<svg width="24" height="24" viewBox="0 0 24 24" fill="none" xmlns="http://www.w3.org/2000/svg">
<path d="M12.8198 19C12.2679 19 11.862 18.5911 11.862 18.0431V14.9188H11.6266C8.48539 14.9188 6.49675 15.7203 5.08442 18.3948C4.80032 18.9182 4.42695 19 4.08604 19C3.64773 19 3.25 18.6074 3.25 17.904C3.25 11.8599 5.79058 8.08942 11.6266 8.08942H11.862V4.99782C11.862 4.44984 12.2679 4 12.836 4C13.2338 4 13.5016 4.17176 13.9318 4.5807L20.336 10.6167C20.6526 10.9193 20.75 11.2219 20.75 11.5C20.75 11.7699 20.6445 12.0807 20.336 12.3751L13.9318 18.4684C13.5422 18.8364 13.2175 19 12.8198 19ZM13.2825 17.2415C13.3312 17.2415 13.3799 17.217 13.4205 17.1679L19.2078 11.6554C19.2727 11.59 19.289 11.5491 19.289 11.5C19.289 11.4509 19.2646 11.4019 19.2078 11.3446L13.4286 5.75845C13.388 5.72574 13.3393 5.69302 13.2906 5.69302C13.2175 5.69302 13.1688 5.74209 13.1688 5.80752V9.05453C13.1688 9.24264 13.0877 9.32443 12.901 9.32443H11.8133C6.23701 9.32443 4.56494 13.2176 4.4026 17.078C4.4026 17.1434 4.42695 17.1679 4.45942 17.1679C4.5 17.1679 4.51623 17.1434 4.54058 17.0862C5.49838 15.0333 7.95779 13.6838 11.8133 13.6838H12.901C13.0877 13.6838 13.1688 13.7655 13.1688 13.9537V17.1189C13.1688 17.1925 13.2175 17.2415 13.2825 17.2415Z" fill="#1A6AFC"/>
</svg>
