<svg width="17" height="16" viewBox="0 0 17 16" fill="none" xmlns="http://www.w3.org/2000/svg">
<path fill-rule="evenodd" clip-rule="evenodd" d="M0.980469 8.02683C0.980469 12.4313 4.551 16.0018 8.95547 16.0018C13.3599 16.0018 16.9305 12.4313 16.9305 8.02683C16.9305 3.62236 13.3599 0.0518341 8.95547 0.0518341C4.551 0.0518341 0.980469 3.62236 0.980469 8.02683ZM13.5392 8.48679L14.1329 8.32876L14.4904 8.89526L13.8849 9.03496L13.5392 8.48679ZM15.8301 8.58618L14.4904 8.89526L14.5012 8.91228L12.8502 11.39L12.8513 10.4834L12.3447 11.2454L12.2353 11.2033L12.2236 11.7171L10.2821 10.9895L10.8459 10.6859L10.2696 10.4699V10.2903L9.94693 10.4642V7.92507L10.0214 7.96685L10.103 7.82114H10.1623L10.1773 7.85062L10.2351 7.82114H10.2683V7.80423L10.6546 7.6072L10.3209 7.41973L12.2298 6.44099L12.2292 6.97012L12.543 6.80942L12.8499 7.3001L12.8512 6.29767L14.1329 8.32876L15.7575 7.89636L15.679 8.30387L15.8301 8.58618ZM15.9671 8.84212C15.9783 8.74474 15.9875 8.64675 15.9947 8.5482L15.8301 8.58618L15.9671 8.84212ZM16.0274 8.95479L15.9671 8.84212C15.7504 10.7262 14.7918 12.3845 13.3909 13.5176L12.8479 13.38L12.8502 11.39L12.5506 11.8396L12.2236 11.7171L12.1779 13.7303L10.8327 14.6867L10.8411 14.762L7.93101 13.7016V12.2552L10.2821 10.9895L9.94693 10.8639V10.4642L7.60963 11.7238L5.16707 10.3666L5.15438 7.65773L7.15638 6.35943L9.94693 7.92507V7.61145L10.3209 7.41973L7.54154 5.85874L7.38075 3.73228L10.1794 2.27592L12.2331 3.56995L12.2298 6.44099L12.7676 6.16527L12.8512 6.29767L12.8544 3.8098L14.115 3.21039C15.0662 4.22894 15.7194 5.52939 15.9355 6.97277L15.7575 7.89636L16.011 7.8289C16.003 7.53881 15.9775 7.2531 15.9355 6.97277L15.9457 6.92003H16.0044C16.1099 7.59364 16.1177 8.27896 16.0274 8.95479ZM16.0274 8.95479L16.0274 8.95528H16.0277L16.0274 8.95479ZM12.8544 3.8098L12.8556 2.82231L12.2337 3.11783L12.2331 3.56995L12.7173 3.87498L12.8544 3.8098ZM9.92992 1.69087L10.2786 1.5094V2.22426L10.1794 2.27592L9.92992 2.11876V1.69087ZM7.25625 3.08221L9.92992 1.69087V1.03533C11.5732 1.26227 13.0359 2.05493 14.115 3.21039L14.4982 3.02821C13.284 1.75421 11.6734 0.929849 9.92992 0.689914V1.03533C9.6114 0.991348 9.28609 0.968616 8.95547 0.968616C7.46021 0.968616 6.07355 1.43357 4.93218 2.22679L5.19173 3.08221H4.75227L4.60785 3.31328L4.38745 2.64597C3.40166 3.48367 2.64902 4.58744 2.24052 5.84629L3.32829 5.36041L3.14007 5.66154L3.42403 6.05906L2.02499 6.68316C1.94115 7.11815 1.89725 7.56737 1.89725 8.02683C1.89725 9.37515 2.27531 10.6352 2.93121 11.7067L3.50891 11.6144L3.98577 12.1594L3.31273 12.2676C3.90148 13.0497 4.64907 13.7055 5.50757 14.187L5.51452 13.9066L5.86741 14.31H6.12704L6.12165 14.4931C6.989 14.8738 7.94756 15.0851 8.95547 15.0851C9.18853 15.0851 9.41896 15.0738 9.64623 15.0517L7.68711 14.31H7.93101V13.7016L7.34127 13.4867V13.7646H6.24653L7.68711 14.31H6.12704L6.16367 13.0655L5.93867 13.1493L5.53998 12.8796L5.51452 13.9066L3.98577 12.1594L4.56461 12.0664L3.54813 11.6082L3.50891 11.6144L3.45978 11.5583L4.54489 10.4732L4.54798 11.1872L4.94186 10.7933L5.16966 10.9201L5.16707 10.3666L4.83562 10.1824L4.54489 10.4732L4.53249 7.6108L4.75227 7.91849L5.15438 7.65773L5.1528 7.32144L4.95106 7.468L4.52932 6.87953L4.53249 7.6108L3.42403 6.05906L3.81849 5.88309L3.67214 5.67778L4.08036 5.02447L3.32829 5.36041L4.60785 3.31328L4.79657 3.8847L5.00656 3.5426H5.33142L5.19173 3.08221H7.25625ZM7.25625 3.08221H7.3316L7.38075 3.73228L6.68318 4.09529V3.38043L7.25625 3.08221ZM7.54154 5.85874L6.8252 5.45642V5.66149L6.43438 5.95435L7.15638 6.35943L7.55963 6.09793L7.54154 5.85874ZM7.60963 11.7238L7.93101 11.9023V12.2552L7.34127 12.5728V12.1251L7.10671 11.9948L7.60963 11.7238ZM10.8411 14.762L10.857 14.9057C11.8187 14.6401 12.7137 14.1752 13.484 13.5412L13.3909 13.5176C13.2164 13.6588 13.035 13.7918 12.8473 13.916L12.8479 13.38L12.7173 13.3468L12.1779 13.7303L12.1646 14.315C11.7778 14.5128 11.3704 14.6759 10.9464 14.8004L10.8411 14.762Z" fill="#707174"/>
</svg>
