<svg width="24" height="24" viewBox="0 0 24 24" fill="none" xmlns="http://www.w3.org/2000/svg">
<g clip-path="url(#clip0_3396_20738)">
<path d="M16.4697 10.4697C16.1768 10.7626 16.1768 11.2374 16.4697 11.5303C16.7626 11.8232 17.2374 11.8232 17.5303 11.5303L21.5303 7.53033C21.8232 7.23744 21.8232 6.76256 21.5303 6.46967L17.5303 2.46967C17.2374 2.17678 16.7626 2.17678 16.4697 2.46967C16.1768 2.76256 16.1768 3.23744 16.4697 3.53033L19.1893 6.25L7 6.25C6.58579 6.25 6.25 6.58579 6.25 7C6.25 7.41421 6.58579 7.75 7 7.75L19.1893 7.75L16.4697 10.4697Z" fill="#1A6AFC"/>
<path d="M7.53033 13.5303C7.82322 13.2374 7.82322 12.7626 7.53033 12.4697C7.23744 12.1768 6.76256 12.1768 6.46967 12.4697L2.46967 16.4697C2.17678 16.7626 2.17678 17.2374 2.46967 17.5303L6.46967 21.5303C6.76256 21.8232 7.23744 21.8232 7.53033 21.5303C7.82322 21.2374 7.82322 20.7626 7.53033 20.4697L4.81066 17.75H17C17.4142 17.75 17.75 17.4142 17.75 17C17.75 16.5858 17.4142 16.25 17 16.25L4.81066 16.25L7.53033 13.5303Z" fill="#1A6AFC"/>
</g>
<defs>
<clipPath id="clip0_3396_20738">
<rect width="24" height="24" fill="white"/>
</clipPath>
</defs>
</svg>
