<svg width="16" height="16" viewBox="0 0 16 16" fill="none" xmlns="http://www.w3.org/2000/svg">
<g clip-path="url(#clip0_3557_186702)">
<path d="M4.83366 1.83337V5.34624C4.83366 5.45045 4.8011 5.55206 4.74053 5.63686L4.19818 6.39614C3.52752 7.33507 3.16699 8.46008 3.16699 9.61393C3.16699 10.2874 3.71296 10.8334 4.38643 10.8334H7.33366V14.6667C7.33366 14.9429 7.55752 15.1667 7.83366 15.1667C8.1098 15.1667 8.33366 14.9429 8.33366 14.6667V10.8334H11.3337C12.0071 10.8334 12.5531 10.2874 12.5531 9.61393C12.5531 8.46008 12.1926 7.33507 11.5219 6.39614L10.9796 5.63686C10.919 5.55206 10.8864 5.45045 10.8864 5.34624V1.83337H11.7198C11.9959 1.83337 12.2198 1.60952 12.2198 1.33337C12.2198 1.05723 11.9959 0.833374 11.7198 0.833374L4.00033 0.833374C3.72418 0.833374 3.50033 1.05723 3.50033 1.33337C3.50033 1.60952 3.72418 1.83337 4.00033 1.83337H4.83366Z" fill="#1A6AFC"/>
</g>
<defs>
<clipPath id="clip0_3557_186702">
<rect width="16" height="16" fill="white"/>
</clipPath>
</defs>
</svg>
