<svg width="20" height="20" viewBox="0 0 20 20" fill="none" xmlns="http://www.w3.org/2000/svg">
<g clip-path="url(#clip0_3557_187247)">
<path d="M1.66699 0.833374L18.3337 17.5" stroke="black" stroke-width="1.5" stroke-linecap="round"/>
<path fill-rule="evenodd" clip-rule="evenodd" d="M6.04134 4.60229V6.68272C6.04134 6.81299 6.00064 6.94 5.92492 7.046L5.24699 7.9951C4.40867 9.16876 3.95801 10.575 3.95801 12.0173C3.95801 12.8592 4.64046 13.5416 5.48231 13.5416L9.58301 13.5416V18.3333C9.58301 18.6785 9.86283 18.9583 10.208 18.9583C10.5532 18.9583 10.833 18.6785 10.833 18.3333V13.5416H14.7254C14.806 13.5416 14.8851 13.5354 14.9624 13.5233L13.7307 12.2916L5.48231 12.2916C5.33082 12.2916 5.20801 12.1688 5.20801 12.0173C5.20801 10.8356 5.57726 9.6833 6.26416 8.72165L6.94209 7.77255C7.16924 7.45454 7.29134 7.07352 7.29134 6.68272V5.85229L6.04134 4.60229ZM14.9667 11.4063C14.8621 10.4418 14.5114 9.5166 13.9435 8.72164L13.2656 7.77253C13.0384 7.45453 12.9163 7.0735 12.9163 6.68271V2.29163L7.29134 2.29164V3.73097L6.04134 2.48097V2.29164H5.85201L4.6862 1.12582C4.77835 1.07229 4.88543 1.04164 4.99967 1.04164L15.208 1.04163C15.5532 1.04163 15.833 1.32145 15.833 1.66663C15.833 2.0118 15.5532 2.29163 15.208 2.29163H14.1663V6.68271C14.1663 6.81298 14.207 6.93999 14.2828 7.04599L14.9607 7.99509C15.799 9.16875 16.2497 10.575 16.2497 12.0173C16.2497 12.2166 16.2114 12.407 16.1419 12.5815L14.9667 11.4063Z" fill="black"/>
</g>
<defs>
<clipPath id="clip0_3557_187247">
<rect width="20" height="20" fill="white"/>
</clipPath>
</defs>
</svg>
