<svg width="20" height="20" viewBox="0 0 20 20" fill="none" xmlns="http://www.w3.org/2000/svg">
<g clip-path="url(#clip0_3557_187813)">
<path fill-rule="evenodd" clip-rule="evenodd" d="M3.54102 5.41667C3.54102 3.46066 5.12667 1.875 7.08268 1.875C9.03869 1.875 10.6243 3.46066 10.6243 5.41667C10.6243 7.37267 9.03869 8.95833 7.08268 8.95833C5.12667 8.95833 3.54102 7.37267 3.54102 5.41667ZM7.08268 3.125C5.81703 3.125 4.79102 4.15101 4.79102 5.41667C4.79102 6.68232 5.81703 7.70833 7.08268 7.70833C8.34834 7.70833 9.37435 6.68232 9.37435 5.41667C9.37435 4.15101 8.34834 3.125 7.08268 3.125Z" fill="black"/>
<path fill-rule="evenodd" clip-rule="evenodd" d="M3.1666 11.4151C4.18596 10.6352 5.50881 10.2083 7.08249 10.2083C8.65617 10.2083 9.97903 10.6352 10.9984 11.4151C12.0174 12.1948 12.6918 13.2959 13.0221 14.5729C13.1507 15.0698 13.1685 15.4476 13.0148 15.9441C12.9471 16.1631 12.8229 16.3724 12.6918 16.5414C12.561 16.7099 12.3871 16.8849 12.1858 17.0056C11.7061 17.2934 11.214 17.2926 10.6532 17.2918L10.5595 17.2917H3.60547L3.51184 17.2918C2.951 17.2926 2.45893 17.2934 1.97915 17.0056C1.77717 16.8845 1.60334 16.7088 1.47285 16.54C1.34195 16.3707 1.21843 16.1614 1.15088 15.9432C1.08052 15.7158 1.03992 15.4969 1.04104 15.2589C1.04213 15.0261 1.08311 14.8038 1.14285 14.5729C1.47318 13.2959 2.14763 12.1948 3.1666 11.4151ZM3.92619 12.4079C3.15711 12.9963 2.62271 13.8433 2.35302 14.8859C2.30658 15.0654 2.29144 15.1763 2.29102 15.2647C2.29063 15.3479 2.30313 15.4383 2.34502 15.5737C2.35636 15.6103 2.39376 15.6875 2.46176 15.7754C2.53018 15.8639 2.59324 15.9163 2.62211 15.9337C2.77279 16.024 2.90371 16.0417 3.60547 16.0417H10.5595C11.2613 16.0417 11.3922 16.024 11.5429 15.9337C11.5724 15.9159 11.6358 15.8632 11.7043 15.775C11.7724 15.6872 11.8096 15.6106 11.8207 15.5746C11.8915 15.3456 11.8958 15.2099 11.812 14.8859C11.5423 13.8433 11.0079 12.9963 10.2388 12.4079C9.47009 11.8197 8.42566 11.4583 7.08249 11.4583C5.73932 11.4583 4.69489 11.8197 3.92619 12.4079Z" fill="black"/>
<path fill-rule="evenodd" clip-rule="evenodd" d="M11.4577 6.25C11.4577 4.75423 12.6702 3.54167 14.166 3.54167C15.6618 3.54167 16.8743 4.75423 16.8743 6.25C16.8743 7.74577 15.6618 8.95833 14.166 8.95833C12.6702 8.95833 11.4577 7.74577 11.4577 6.25ZM14.166 4.79167C13.3606 4.79167 12.7077 5.44458 12.7077 6.25C12.7077 7.05541 13.3606 7.70833 14.166 7.70833C14.9714 7.70833 15.6243 7.05541 15.6243 6.25C15.6243 5.44458 14.9714 4.79167 14.166 4.79167Z" fill="black"/>
<path d="M14.1658 11.1417C13.903 11.1417 13.6564 11.1602 13.4258 11.1949C13.0845 11.2464 12.7661 11.0114 12.7147 10.6701C12.6632 10.3288 12.8982 10.0104 13.2395 9.95889C13.5354 9.91428 13.8444 9.89166 14.1658 9.89166C15.4029 9.89166 16.4526 10.2276 17.2656 10.8496C18.0783 11.4714 18.6133 12.3477 18.8744 13.357C19.0696 14.1116 18.8713 14.9648 18.1656 15.3881C17.761 15.6307 17.3437 15.6298 16.9215 15.6288L14.9993 15.6286C14.6542 15.6286 14.3743 15.3488 14.3743 15.0036C14.3743 14.6585 14.6542 14.3786 14.9993 14.3786H16.8404C17.392 14.3786 17.4477 14.361 17.5226 14.3161C17.7367 14.1671 17.7221 13.894 17.6642 13.67C17.4637 12.8951 17.0688 12.273 16.5061 11.8424C15.9437 11.4121 15.1724 11.1417 14.1658 11.1417Z" fill="black"/>
</g>
<defs>
<clipPath id="clip0_3557_187813">
<rect width="20" height="20" fill="white"/>
</clipPath>
</defs>
</svg>
