<svg width="16" height="16" viewBox="0 0 16 16" fill="none" xmlns="http://www.w3.org/2000/svg">
<g clip-path="url(#clip0_3557_186988)">
<path fill-rule="evenodd" clip-rule="evenodd" d="M0.979454 0.979821C1.17472 0.784558 1.4913 0.784558 1.68656 0.979821L15.0199 14.3132C15.2152 14.5084 15.2152 14.825 15.0199 15.0203C14.8246 15.2155 14.508 15.2155 14.3128 15.0203L12.0896 12.7971C11.6559 12.9167 11.1212 13.0077 10.4674 13.0694C10.2748 14.2587 9.2433 15.1667 7.99967 15.1667C6.75606 15.1667 5.72453 14.2587 5.53194 13.0694C4.67661 12.9886 4.0243 12.8578 3.53516 12.6776C3.08735 12.5126 2.73631 12.2922 2.49889 11.9935C2.25399 11.6854 2.16634 11.34 2.16634 11C2.16634 10.3321 2.50483 9.88151 2.74656 9.55973L2.76634 9.53338C3.02377 9.19014 3.16634 8.98034 3.16634 8.66671V7.33383C3.16634 6.3509 3.46021 5.43554 3.96463 4.6721L0.979454 1.68693C0.784192 1.49167 0.784192 1.17508 0.979454 0.979821ZM6.57549 13.1388C6.77333 13.736 7.3362 14.1667 7.99967 14.1667C8.66315 14.1667 9.22602 13.7359 9.42387 13.1388C8.99028 13.1574 8.5166 13.1667 7.99967 13.1667C7.48286 13.1667 7.00918 13.1574 6.57549 13.1388Z" fill="#1A6AFC"/>
<path d="M9.83301 2.66671V2.85993C11.5933 3.58223 12.833 5.31342 12.833 7.33383V8.66671C12.833 8.92957 12.9359 9.12651 13.1242 9.38662C13.1517 9.42465 13.183 9.46601 13.2167 9.51056C13.3906 9.74061 13.6287 10.0556 13.7471 10.4338C13.8159 10.6533 13.726 10.8915 13.5293 11.0107C13.3325 11.13 13.0798 11.0997 12.9169 10.9373L5.75007 3.79014C5.63556 3.67595 5.58335 3.51342 5.60994 3.3539C5.63653 3.19438 5.73863 3.05757 5.884 2.98669C5.9765 2.94158 6.07066 2.89934 6.16634 2.86008V2.66671C6.16634 1.65419 6.98715 0.83338 7.99967 0.83338C9.0122 0.83338 9.83301 1.65419 9.83301 2.66671Z" fill="#1A6AFC"/>
</g>
<defs>
<clipPath id="clip0_3557_186988">
<rect width="16" height="16" fill="white"/>
</clipPath>
</defs>
</svg>
