<svg width="60" height="60" viewBox="0 0 60 60" fill="none" xmlns="http://www.w3.org/2000/svg">
<g clip-path="url(#clip0_2797_117605)">
<path d="M13.7687 3.28274e-05H46.232C48.0413 -0.00392219 49.8335 0.349533 51.5058 1.04007C53.178 1.73061 54.6975 2.74463 55.9768 4.02396C57.2561 5.30329 58.2702 6.82271 58.9607 8.49499C59.6512 10.1673 60.0047 11.9595 60.0007 13.7687V46.232C60.0047 48.0413 59.6512 49.8335 58.9607 51.5058C58.2702 53.1781 57.2561 54.6975 55.9768 55.9768C54.6975 57.2561 53.178 58.2702 51.5058 58.9607C49.8335 59.6512 48.0413 60.0047 46.232 60.0007H13.7687C11.9595 60.0047 10.1673 59.6512 8.49499 58.9607C6.82271 58.2702 5.30329 57.2561 4.02396 55.9768C2.74464 54.6975 1.73059 53.1781 1.04006 51.5058C0.349515 49.8335 -0.00392219 48.0413 3.2829e-05 46.232V13.7687C-0.00392219 11.9595 0.349515 10.1673 1.04006 8.49499C1.73059 6.82271 2.74464 5.30329 4.02396 4.02396C5.30329 2.74463 6.82271 1.73061 8.49499 1.04007C10.1673 0.349533 11.9595 -0.00392219 13.7687 3.28274e-05Z" fill="url(#paint0_linear_2797_117605)"/>
<path d="M13.1462 17.0625C12.8302 17.0625 12.5322 17.1172 12.2502 17.2292L17.8962 23.0418L23.6048 28.9585L23.7088 29.0838L23.8755 29.2505L24.0422 29.4172L24.3755 29.7712L29.2715 34.7918C29.3528 34.8425 29.5895 35.0612 29.7742 35.1539C30.0122 35.2725 30.2695 35.3825 30.5348 35.3919C30.8215 35.4019 31.1142 35.3198 31.3722 35.1945C31.5655 35.1005 31.6515 34.9659 31.8755 34.7925L37.5422 28.9385L43.2715 23.0425L48.7922 17.3552C48.434 17.1614 48.0328 17.0609 47.6255 17.0632H13.1462V17.0625ZM11.4168 17.7705C10.8148 18.3412 10.4375 19.1985 10.4375 20.1665V39.2499C10.4375 40.0332 10.6888 40.7452 11.1042 41.2912L11.8955 40.5412L17.7915 34.8119L23.0208 29.7492L22.9168 29.6245L17.1875 23.7285L11.4582 17.8118L11.4168 17.7705ZM49.5422 17.9585L43.9589 23.7292L38.2502 29.6252L38.1462 29.7292L43.5835 34.9998L49.4795 40.7292L49.8335 41.0625C50.1509 40.5532 50.3335 39.9259 50.3335 39.2499V20.1665C50.3335 19.3038 50.0349 18.5212 49.5422 17.9585ZM23.6875 30.4372L18.4795 35.4998L12.5628 41.2292L11.8128 41.9586C12.2082 42.2132 12.6582 42.3752 13.1462 42.3752H47.6255C48.2122 42.3752 48.7442 42.1499 49.1882 41.7919L48.8135 41.4172L42.8969 35.6878L37.4595 30.4378L32.5635 35.4792C32.2988 35.6552 32.1215 35.8498 31.8628 35.9692C31.4462 36.1618 30.9902 36.3245 30.5315 36.3178C30.0715 36.3105 29.6202 36.1305 29.2075 35.9279C29.0002 35.8259 28.8895 35.7245 28.6468 35.5212L23.6875 30.4372Z" fill="white"/>
</g>
<defs>
<linearGradient id="paint0_linear_2797_117605" x1="29.9707" y1="59.7581" x2="29.9707" y2="-0.000245747" gradientUnits="userSpaceOnUse">
<stop stop-color="#1ABFFA"/>
<stop offset="1" stop-color="#1D71F1"/>
</linearGradient>
<clipPath id="clip0_2797_117605">
<rect width="60" height="60" fill="white"/>
</clipPath>
</defs>
</svg>
