<svg width="60" height="60" viewBox="0 0 60 60" fill="none" xmlns="http://www.w3.org/2000/svg">
<g clip-path="url(#clip0_2797_117611)">
<path d="M0 20.5714C0 13.3708 0 9.77042 1.40134 7.02012C2.634 4.6009 4.6009 2.634 7.02012 1.40134C9.77042 0 13.3708 0 20.5714 0H39.4286C46.6292 0 50.2296 0 52.9799 1.40134C55.3991 2.634 57.366 4.6009 58.5987 7.02012C60 9.77042 60 13.3708 60 20.5714V39.4286C60 46.6292 60 50.2296 58.5987 52.9799C57.366 55.3991 55.3991 57.366 52.9799 58.5987C50.2296 60 46.6292 60 39.4286 60H20.5714C13.3708 60 9.77042 60 7.02012 58.5987C4.6009 57.366 2.634 55.3991 1.40134 52.9799C0 50.2296 0 46.6292 0 39.4286V20.5714Z" fill="url(#paint0_linear_2797_117611)"/>
<path d="M29.9996 45.0003C40.6508 45.0003 49.2853 37.8049 49.2853 28.9289C49.2853 20.0528 40.6508 12.8574 29.9996 12.8574C19.3484 12.8574 10.7139 20.0528 10.7139 28.9289C10.7139 34.5549 14.1829 39.5058 19.4357 42.377C19.2599 43.806 18.7313 45.7132 17.1424 47.1431C20.147 46.6023 22.5449 45.5155 24.3362 44.2962C26.127 44.7539 28.0287 45.0003 29.9996 45.0003Z" fill="white"/>
</g>
<defs>
<linearGradient id="paint0_linear_2797_117611" x1="30" y1="0" x2="30" y2="60" gradientUnits="userSpaceOnUse">
<stop stop-color="#5AF575"/>
<stop offset="1" stop-color="#13BD2C"/>
</linearGradient>
<clipPath id="clip0_2797_117611">
<rect width="60" height="60" fill="white"/>
</clipPath>
</defs>
</svg>
