<svg width="60" height="60" viewBox="0 0 60 60" fill="none" xmlns="http://www.w3.org/2000/svg">
    <g clip-path="url(#clip0_3557_258142)">
    <path fill-rule="evenodd" clip-rule="evenodd" d="M50 3.125C46.203 3.125 43.125 6.20304 43.125 10C43.125 13.797 46.203 16.875 50 16.875C53.797 16.875 56.875 13.797 56.875 10C56.875 6.20304 53.797 3.125 50 3.125ZM46.875 10C46.875 8.27411 48.2741 6.875 50 6.875C51.7259 6.875 53.125 8.27411 53.125 10C53.125 11.7259 51.7259 13.125 50 13.125C48.2741 13.125 46.875 11.7259 46.875 10Z" fill="#A5ACB8"/>
    <path d="M13.75 9.375C9.95304 9.375 6.875 12.453 6.875 16.25V39.2262C6.875 43.0232 9.95304 46.1012 13.75 46.1012H20.7313C22.673 46.1012 24.4774 47.1026 25.5047 48.7503L27.9544 52.6798C28.3215 53.2685 29.1785 53.2685 29.5456 52.6798L31.9953 48.7503C33.0226 47.1026 34.827 46.1012 36.7687 46.1012H43.75C47.547 46.1012 50.625 43.0231 50.625 39.2262V23.75C50.625 22.7145 51.4645 21.875 52.5 21.875C53.5355 21.875 54.375 22.7145 54.375 23.75V39.2262C54.375 45.0942 49.618 49.8512 43.75 49.8512H36.7687C36.1215 49.8512 35.52 50.185 35.1776 50.7342L32.7278 54.6637C30.8927 57.6072 26.6073 57.6072 24.7722 54.6637L22.3224 50.7342C21.98 50.185 21.3785 49.8512 20.7313 49.8512H13.75C7.88198 49.8512 3.125 45.0942 3.125 39.2262V16.25C3.125 10.382 7.88197 5.625 13.75 5.625H36.25C37.2855 5.625 38.125 6.46447 38.125 7.5C38.125 8.53553 37.2855 9.375 36.25 9.375H13.75Z" fill="#A5ACB8"/>
    <path d="M16.25 27.5C16.25 26.1193 17.3693 25 18.75 25C20.1307 25 21.25 26.1193 21.25 27.5C21.25 28.8807 20.1307 30 18.75 30C17.3693 30 16.25 28.8807 16.25 27.5Z" fill="#A5ACB8"/>
    <path d="M26.25 27.5C26.25 26.1193 27.3693 25 28.75 25C30.1307 25 31.25 26.1193 31.25 27.5C31.25 28.8807 30.1307 30 28.75 30C27.3693 30 26.25 28.8807 26.25 27.5Z" fill="#A5ACB8"/>
    <path d="M38.75 25C37.3693 25 36.25 26.1193 36.25 27.5C36.25 28.8807 37.3693 30 38.75 30C40.1307 30 41.25 28.8807 41.25 27.5C41.25 26.1193 40.1307 25 38.75 25Z" fill="#A5ACB8"/>
    </g>
    <defs>
    <clipPath id="clip0_3557_258142">
    <rect width="60" height="60" fill="white"/>
    </clipPath>
    </defs>
    </svg>
    