<svg width="24" height="24" viewBox="0 0 24 24" fill="none" xmlns="http://www.w3.org/2000/svg">
    <g clip-path="url(#clip0_3396_199073)">
        <path fill-rule="evenodd" clip-rule="evenodd"
            d="M10.1307 2.93898C5.91816 3.80349 2.75 7.53176 2.75 12C2.75 17.1086 6.89137 21.25 12 21.25C16.4682 21.25 20.1965 18.0818 21.061 13.8693C19.7036 15.0407 17.9347 15.75 16 15.75C11.7198 15.75 8.25 12.2802 8.25 8C8.25 6.0653 8.95928 4.29638 10.1307 2.93898ZM1.25 12C1.25 6.06294 6.06294 1.25 12 1.25C12.4395 1.25 12.74 1.5585 12.8301 1.88095C12.9183 2.19712 12.8272 2.59783 12.483 2.83262C10.8316 3.95903 9.75 5.85331 9.75 8C9.75 11.4518 12.5482 14.25 16 14.25C18.1467 14.25 20.041 13.1684 21.1674 11.517C21.4022 11.1728 21.8029 11.0817 22.1191 11.1699C22.4415 11.26 22.75 11.5605 22.75 12C22.75 17.9371 17.9371 22.75 12 22.75C6.06294 22.75 1.25 17.9371 1.25 12Z"
            fill="#1A6AFC" />
    </g>
    <defs>
        <clipPath id="clip0_3396_199073">
            <rect width="24" height="24" fill="white" />
        </clipPath>
    </defs>
</svg>