<svg width="17" height="17" viewBox="0 0 17 17" fill="none" xmlns="http://www.w3.org/2000/svg">
<path fill-rule="evenodd" clip-rule="evenodd" d="M4.26302 0.0268402H11.263V4.01651H16.9297V15.0165H15.9297V6.02684V5.02684H11.263V6.02684H10.263V1.02684H5.26302L5.25446 7.02684H1.92969V15.0165H0.929688V6.01651H4.26991L4.26302 0.0268402ZM2.92969 8.01651H3.92969V9.01651H2.92969V8.01651ZM9.26302 4.02684H8.26302V5.02684H9.26302V4.02684ZM6.26302 4.02684H7.26302V5.02684H6.26302V4.02684ZM14.9297 6.01651H13.9297V7.01651H14.9297V6.01651ZM13.9297 8.01651H14.9297V9.01651H13.9297V8.01651ZM7.26302 2.02684L6.26302 2.01651V3.02684H7.26302V2.02684ZM8.26302 2.02684H9.26302V3.02684H8.26302V2.02684ZM13.9297 10.6935L12.9297 10.6935V9.69351C12.8706 8.01302 11.4862 6.684 9.80469 6.69351H8.05469C6.37319 6.684 4.98879 8.01302 4.92969 9.69351V10.6935L3.92969 10.6935C3.5615 10.6935 3.26302 10.992 3.26302 11.3602V14.0268C3.26302 14.395 3.5615 14.6935 3.92969 14.6935V16.0268H5.92969V14.6935H11.9297V16.0268H13.9297V14.6935C14.2979 14.6935 14.5964 14.395 14.5964 14.0268V11.3602C14.5964 10.992 14.2979 10.6935 13.9297 10.6935ZM11.9297 10.6935C11.9297 9.16851 11.9297 7.69351 8.92969 7.69351C5.92969 7.69351 5.92969 9.17017 5.92969 10.6935H11.9297ZM5.07569 11.4332C5.4899 11.4332 5.82569 11.769 5.82569 12.1832C5.82569 12.5974 5.4899 12.9332 5.07569 12.9332C4.66147 12.9332 4.32569 12.5974 4.32569 12.1832C4.32569 11.769 4.66147 11.4332 5.07569 11.4332ZM13.5134 12.1832C13.5134 11.769 13.1776 11.4332 12.7634 11.4332H12.763C12.3489 11.4334 12.0134 11.7691 12.0134 12.1832C12.0134 12.5974 12.3491 12.9332 12.7634 12.9332C13.1776 12.9332 13.5134 12.5974 13.5134 12.1832ZM13.9297 13.3602V14.0165H11.0972C11.0969 14.0165 11.0966 14.0165 11.0964 14.0165H6.76302C6.76275 14.0165 6.76248 14.0165 6.76222 14.0165H3.92969V13.3602H6.42969V13.3498C6.42969 13.1657 6.57893 13.0165 6.76302 13.0165H11.0964C11.2804 13.0165 11.4297 13.1657 11.4297 13.3498V13.3602H13.9297Z" fill="#707174"/>
</svg>
