<svg width="32" height="32" viewBox="0 0 32 32" fill="none" xmlns="http://www.w3.org/2000/svg">
<g clip-path="url(#clip0_200_25866)">
<path d="M12.5997 18.55C12.3509 18.2188 11.8807 18.152 11.5495 18.4009C11.2184 18.6497 11.1516 19.1198 11.4004 19.451C12.4482 20.8456 14.1186 21.75 16 21.75C17.8815 21.75 19.5519 20.8456 20.5997 19.451C20.8485 19.1198 20.7817 18.6497 20.4506 18.4009C20.1194 18.152 19.6492 18.2188 19.4004 18.55C18.6238 19.5837 17.3898 20.25 16 20.25C14.6103 20.25 13.3763 19.5837 12.5997 18.55Z" fill="#A5ACB8"/>
<path d="M20 13.75C20 14.7165 19.4404 15.5 18.75 15.5C18.0596 15.5 17.5 14.7165 17.5 13.75C17.5 12.7835 18.0596 12 18.75 12C19.4404 12 20 12.7835 20 13.75Z" fill="#A5ACB8"/>
<path d="M13.25 15.5C13.9404 15.5 14.5 14.7165 14.5 13.75C14.5 12.7835 13.9404 12 13.25 12C12.5596 12 12 12.7835 12 13.75C12 14.7165 12.5596 15.5 13.25 15.5Z" fill="#A5ACB8"/>
<path fill-rule="evenodd" clip-rule="evenodd" d="M16 5.25C10.0629 5.25 5.25 10.0629 5.25 16C5.25 21.9371 10.0629 26.75 16 26.75C21.9371 26.75 26.75 21.9371 26.75 16C26.75 10.0629 21.9371 5.25 16 5.25ZM6.75 16C6.75 10.8914 10.8914 6.75 16 6.75C21.1086 6.75 25.25 10.8914 25.25 16C25.25 21.1086 21.1086 25.25 16 25.25C10.8914 25.25 6.75 21.1086 6.75 16Z" fill="#A5ACB8"/>
</g>
<defs>
<clipPath id="clip0_200_25866">
<rect width="24" height="24" fill="white" transform="translate(4 4)"/>
</clipPath>
</defs>
</svg>
