<svg width="32" height="33" viewBox="0 0 32 33" fill="none" xmlns="http://www.w3.org/2000/svg">
    <g clip-path="url(#clip0_513_12462)">
        <path
            d="M11.3332 3.88232C8.20356 3.88232 5.6665 6.41938 5.6665 9.54899C5.6665 12.6786 8.20356 15.2157 11.3332 15.2157C14.4628 15.2157 16.9998 12.6786 16.9998 9.54899C16.9998 6.41938 14.4628 3.88232 11.3332 3.88232Z"
            fill="#fff" />
        <path
            d="M11.3329 17.2157C8.81497 17.2157 6.69842 17.8986 5.06745 19.1466C3.43708 20.394 2.35796 22.1557 1.82944 24.1989C1.73385 24.5685 1.66829 24.9241 1.66654 25.2965C1.66475 25.6773 1.72971 26.0275 1.84229 26.3914C1.95036 26.7406 2.14799 27.0754 2.35745 27.3463C2.56622 27.6163 2.84435 27.8975 3.16751 28.0913C3.93517 28.5518 4.72248 28.5505 5.61983 28.5491L5.76964 28.549H16.8961L17.0459 28.5491C17.9433 28.5505 18.7306 28.5518 19.4982 28.0913C19.8203 27.8981 20.0984 27.6182 20.3078 27.3485C20.5176 27.0781 20.7162 26.7433 20.8246 26.3929C21.0705 25.5984 21.042 24.9941 20.8363 24.1989C20.3078 22.1557 19.2287 20.394 17.5983 19.1466C15.9673 17.8986 13.8508 17.2157 11.3329 17.2157Z"
            fill="#fff" />
        <path
            d="M22.6665 6.54899C20.2733 6.54899 18.3332 8.48909 18.3332 10.8823C18.3332 13.2756 20.2733 15.2157 22.6665 15.2157C25.0597 15.2157 26.9998 13.2756 26.9998 10.8823C26.9998 8.48909 25.0597 6.54899 22.6665 6.54899Z"
            fill="#fff" />
        <path
            d="M22.9985 25.4372C22.993 25.6753 23.177 25.8824 23.4152 25.8824H26.9458L27.0755 25.8826C27.751 25.8842 28.4187 25.8857 29.0661 25.4974C29.3456 25.3298 29.5799 25.092 29.7525 24.8696C29.9255 24.6467 30.0943 24.3646 30.1882 24.0613C30.3926 23.4007 30.3666 22.8912 30.2001 22.2476C29.7824 20.6326 28.9264 19.2306 27.6261 18.2357C26.3253 17.2403 24.6458 16.7029 22.6664 16.7029C21.4545 16.7029 20.355 16.9043 19.386 17.289C19.1115 17.3979 19.0754 17.7603 19.2986 17.9537C21.049 19.4702 22.1996 21.4827 22.7727 23.6981C22.9244 24.2846 23.0122 24.8474 22.9985 25.4372Z"
            fill="#fff" />
    </g>
    <defs>
        <clipPath id="clip0_513_12462">
            <rect width="32" height="32" fill="white" transform="translate(0 0.882324)" />
        </clipPath>
    </defs>
</svg>