<svg width="24" height="24" viewBox="0 0 24 24" fill="none" xmlns="http://www.w3.org/2000/svg">
    <g clip-path="url(#clip0_3664_1975)">
    <path fill-rule="evenodd" clip-rule="evenodd" d="M12.75 16.7313C13.6239 16.4225 14.25 15.589 14.25 14.6094C14.25 13.3667 13.2426 12.3594 12 12.3594C10.7574 12.3594 9.75 13.3667 9.75 14.6094C9.75 15.589 10.3761 16.4225 11.25 16.7313V18.1094C11.25 18.5236 11.5858 18.8594 12 18.8594C12.4142 18.8594 12.75 18.5236 12.75 18.1094V16.7313ZM12 13.8594C11.5858 13.8594 11.25 14.1952 11.25 14.6094C11.25 15.0236 11.5858 15.3594 12 15.3594C12.4142 15.3594 12.75 15.0236 12.75 14.6094C12.75 14.1952 12.4142 13.8594 12 13.8594Z" fill="#1A6AFC"/>
    <path fill-rule="evenodd" clip-rule="evenodd" d="M12 1.35938C9.18599 1.35938 6.75 3.40542 6.75 6.10938L6.75 8.42534C4.76049 8.77957 3.25 10.5181 3.25 12.6094V18.6094C3.25 20.9566 5.15279 22.8594 7.5 22.8594H16.5C18.8472 22.8594 20.75 20.9566 20.75 18.6094V12.6094C20.75 10.5181 19.2395 8.77957 17.25 8.42534V6.10938C17.25 3.40542 14.814 1.35938 12 1.35938ZM15.75 8.35938V6.10938C15.75 4.39505 14.1566 2.85938 12 2.85938C9.84345 2.85938 8.25 4.39505 8.25 6.10938L8.25 8.35938H15.75ZM7.5 9.85938C5.98122 9.85938 4.75 11.0906 4.75 12.6094V18.6094C4.75 20.1282 5.98122 21.3594 7.5 21.3594H16.5C18.0188 21.3594 19.25 20.1282 19.25 18.6094V12.6094C19.25 11.0906 18.0188 9.85938 16.5 9.85938H7.5Z" fill="#1A6AFC"/>
    </g>
    <defs>
    <clipPath id="clip0_3664_1975">
    <rect width="24" height="24" fill="white"/>
    </clipPath>
    </defs>
    </svg>
    