<svg width="24" height="24" viewBox="0 0 24 24" fill="none" xmlns="http://www.w3.org/2000/svg">
<g clip-path="url(#clip0_786_10579)">
<path d="M14.25 5.5C14.25 3.98122 13.0188 2.75 11.5 2.75H5.5C3.98122 2.75 2.75 3.98122 2.75 5.5V18.5C2.75 20.0188 3.98122 21.25 5.5 21.25H11.5C13.0188 21.25 14.25 20.0188 14.25 18.5V16C14.25 15.5858 14.5858 15.25 15 15.25C15.4142 15.25 15.75 15.5858 15.75 16V18.5C15.75 20.8472 13.8472 22.75 11.5 22.75H5.5C3.15279 22.75 1.25 20.8472 1.25 18.5V5.5C1.25 3.15279 3.15279 1.25 5.5 1.25H11.5C13.8472 1.25 15.75 3.15279 15.75 5.5V8C15.75 8.41421 15.4142 8.75 15 8.75C14.5858 8.75 14.25 8.41421 14.25 8V5.5Z" fill="#FF1A1A"/>
<path d="M18.4697 15.5303C18.7626 15.8232 19.2374 15.8232 19.5303 15.5303L22.5303 12.5303C22.6022 12.4584 22.6565 12.3755 22.6931 12.2871C22.7298 12.1987 22.75 12.1017 22.75 12C22.75 11.8081 22.6768 11.6161 22.5303 11.4697L19.5303 8.46967C19.2374 8.17678 18.7626 8.17678 18.4697 8.46967C18.1768 8.76256 18.1768 9.23744 18.4697 9.53033L20.1893 11.25L8.9997 11.25C8.58548 11.25 8.2497 11.5858 8.2497 12C8.2497 12.4142 8.58548 12.75 8.9997 12.75L20.1893 12.75L18.4697 14.4697C18.1768 14.7626 18.1768 15.2374 18.4697 15.5303Z" fill="#FF1A1A"/>
</g>
<defs>
<clipPath id="clip0_786_10579">
<rect width="24" height="24" fill="white"/>
</clipPath>
</defs>
</svg>
