<svg width="180" height="240" viewBox="0 0 180 240" fill="none" xmlns="http://www.w3.org/2000/svg">
<rect width="180" height="240" rx="8" fill="#D8DFEB"/>
<g clip-path="url(#clip0_1446_37441)">
<path d="M81 114.75C81 113.093 82.3431 111.75 84 111.75C85.6569 111.75 87 113.093 87 114.75C87 116.407 85.6569 117.75 84 117.75C82.3431 117.75 81 116.407 81 114.75Z" fill="#A5ACB8"/>
<path fill-rule="evenodd" clip-rule="evenodd" d="M73.875 111.75C73.875 108.229 76.7292 105.375 80.25 105.375H99.75C103.271 105.375 106.125 108.229 106.125 111.75V128.25C106.125 131.771 103.271 134.625 99.75 134.625H80.25C76.7292 134.625 73.875 131.771 73.875 128.25V111.75ZM80.25 107.625C77.9718 107.625 76.125 109.472 76.125 111.75V126.284L80.1135 122.296C81.4315 120.978 83.5685 120.977 84.8865 122.296L87.75 125.159L95.1135 117.796C96.4315 116.478 98.5685 116.478 99.8865 117.796L103.875 121.784V111.75C103.875 109.472 102.028 107.625 99.75 107.625H80.25Z" fill="#A5ACB8"/>
</g>
<defs>
<clipPath id="clip0_1446_37441">
<rect width="36" height="36" fill="white" transform="translate(72 102)"/>
</clipPath>
</defs>
</svg>
