<svg width="18" height="18" viewBox="0 0 18 18" fill="none" xmlns="http://www.w3.org/2000/svg">
<path d="M8.16073 1.39366C8.58593 0.868779 9.41407 0.868778 9.83927 1.39366L10.6247 2.36327C10.8917 2.69291 11.342 2.83296 11.7604 2.71654L12.9912 2.37408C13.6574 2.1887 14.3274 2.65471 14.3491 3.3186L14.3893 4.54502C14.4029 4.96195 14.6812 5.32861 15.0912 5.46987L16.2971 5.88538C16.95 6.11031 17.2059 6.86432 16.8158 7.41365L16.0953 8.42841C15.8503 8.77339 15.8503 9.22661 16.0953 9.57159L16.8158 10.5864C17.2059 11.1357 16.95 11.8897 16.2971 12.1146L15.0912 12.5301C14.6812 12.6714 14.4029 13.0381 14.3893 13.455L14.3491 14.6814C14.3274 15.3453 13.6574 15.8113 12.9912 15.6259L11.7604 15.2835C11.342 15.167 10.8917 15.3071 10.6247 15.6367L9.83927 16.6063C9.41407 17.1312 8.58593 17.1312 8.16073 16.6063L7.37528 15.6367C7.10825 15.3071 6.65801 15.167 6.23959 15.2835L5.00882 15.6259C4.34256 15.8113 3.67258 15.3453 3.65086 14.6814L3.61074 13.455C3.5971 13.0381 3.31883 12.6714 2.90885 12.5301L1.70287 12.1146C1.05004 11.8897 0.794124 11.1357 1.18418 10.5864L1.90471 9.57159C2.14967 9.22661 2.14967 8.77339 1.90471 8.42841L1.18418 7.41365C0.794125 6.86432 1.05004 6.11031 1.70287 5.88538L2.90885 5.46987C3.31883 5.32861 3.5971 4.96195 3.61074 4.54502L3.65086 3.31861C3.67258 2.65471 4.34256 2.1887 5.00882 2.37408L6.23959 2.71654C6.65801 2.83296 7.10825 2.69291 7.37528 2.36327L8.16073 1.39366Z" fill="#1A6AFC" stroke="white" stroke-width="0.5"/>
<path d="M12.3965 7.3061C12.5778 7.09131 12.5778 6.74307 12.3965 6.52828C12.2152 6.31349 11.9212 6.31349 11.7399 6.52828L8.3539 10.5394L6.82506 8.72828C6.64374 8.51349 6.34977 8.51349 6.16846 8.72828C5.98714 8.94307 5.98714 9.29131 6.16846 9.5061L8.0256 11.7061C8.20691 11.9209 8.50088 11.9209 8.6822 11.7061L12.3965 7.3061Z" fill="white"/>
</svg>
