<svg width="16" height="16" viewBox="0 0 16 16" fill="none" xmlns="http://www.w3.org/2000/svg">
<path d="M0.155229 6.49104C0.381396 6.71721 0.685109 6.69136 0.904811 6.47812L1.52516 5.86423L2.48152 4.84971V11.9061C2.48152 13.2437 3.16649 13.9094 4.51057 13.9094H9.77058C10.1389 13.9094 10.3522 13.7219 10.3457 13.3924C10.3393 13.0564 10.1389 12.8689 9.77058 12.8689H4.52995C3.88376 12.8689 3.5219 12.5265 3.5219 11.8544V4.83679L4.48472 5.86423L5.10507 6.47812C5.32477 6.69136 5.63494 6.71721 5.85463 6.49104C6.07437 6.2778 6.06141 5.96116 5.84172 5.74146L3.66406 3.57025C3.24403 3.15669 2.77231 3.15669 2.35228 3.57025L0.174615 5.74146C-0.051553 5.96116 -0.0580148 6.2778 0.155229 6.49104ZM5.65435 2.52988C5.6608 2.85943 5.86113 3.0533 6.22942 3.0533H11.4766C12.1227 3.0533 12.4781 3.39578 12.4781 4.06782V11.0855L11.5153 10.0516L10.895 9.44414C10.6752 9.23091 10.3716 9.20505 10.1454 9.42473C9.92569 9.64447 9.93859 9.9611 10.1583 10.1808L12.336 12.3455C12.7625 12.7656 13.2277 12.7656 13.6542 12.3455L15.8254 10.1808C16.0516 9.9611 16.0581 9.64447 15.8448 9.42473C15.6251 9.20505 15.3149 9.22446 15.0952 9.44414L14.4749 10.0516L13.5185 11.0725V4.01612C13.5185 2.6785 12.84 2.01292 11.4895 2.01292H6.22942C5.86113 2.01292 5.64784 2.20032 5.65435 2.52988Z" fill="#A5ACB8"/>
</svg>
