<svg width="32" height="32" viewBox="0 0 32 32" fill="none" xmlns="http://www.w3.org/2000/svg">
<g clip-path="url(#clip0_200_25868)">
<path fill-rule="evenodd" clip-rule="evenodd" d="M22.8691 7.67783C21.6093 6.44073 19.5611 6.44072 18.3013 7.67782L9.27102 16.545C7.24299 18.5365 7.24299 21.7594 9.27102 23.7508C11.3061 25.7492 14.6108 25.7497 16.6466 23.7525L16.6483 23.7508L24.471 15.9683C24.7647 15.6762 25.2396 15.6774 25.5317 15.971C25.8238 16.2647 25.8226 16.7396 25.529 17.0317L17.6993 24.8211C15.0801 27.393 10.8392 27.393 8.22007 24.8211C5.59331 22.2418 5.59331 18.0541 8.22007 15.4748L17.2503 6.60755C19.0937 4.79748 22.0768 4.79749 23.9201 6.60755C25.7711 8.42509 25.7711 11.3777 23.9201 13.1952L15.2912 21.6683C14.2236 22.7166 12.4984 22.7166 11.4308 21.6683C10.3557 20.6126 10.3557 18.8951 11.4308 17.8394L18.8557 10.5485C19.1512 10.2583 19.6261 10.2626 19.9163 10.5582C20.2065 10.8537 20.2022 11.3286 19.9067 11.6188L12.4818 18.9096C12.0053 19.3775 12.0053 20.1302 12.4818 20.598C12.9658 21.0734 13.7562 21.0734 14.2402 20.598L22.8691 12.1249C24.1214 10.8953 24.1214 8.90745 22.8691 7.67783Z" fill="#A5ACB8"/>
</g>
<defs>
<clipPath id="clip0_200_25868">
<rect width="24" height="24" fill="white" transform="translate(4 4)"/>
</clipPath>
</defs>
</svg>
