<svg width="16" height="16" viewBox="0 0 16 16" fill="none" xmlns="http://www.w3.org/2000/svg">
<g clip-path="url(#clip0_1087_6082)">
<path d="M5.26226 1.5C2.572 1.5 0.833374 3.79054 0.833374 6.31625C0.833374 8.69609 2.28916 10.741 3.83493 12.1582C4.61515 12.8735 5.43944 13.4492 6.16045 13.8486C6.52089 14.0483 6.86171 14.2074 7.16365 14.3178C7.45542 14.4246 7.74814 14.5 8.00004 14.5C8.25194 14.5 8.54467 14.4246 8.83643 14.3178C9.13837 14.2074 9.47919 14.0483 9.83963 13.8486C10.5606 13.4492 11.3849 12.8735 12.1652 12.1582C13.7109 10.741 15.1667 8.69609 15.1667 6.31625C15.1667 3.79054 13.4281 1.5 10.7378 1.5C9.4999 1.5 8.6022 2.00833 8.00004 2.56194C7.39788 2.00833 6.50018 1.5 5.26226 1.5Z" fill="#FF1A1A"/>
</g>
<defs>
<clipPath id="clip0_1087_6082">
<rect width="16" height="16" fill="white"/>
</clipPath>
</defs>
</svg>
