<svg width="24" height="25" viewBox="0 0 24 25" fill="none" xmlns="http://www.w3.org/2000/svg">
<g clip-path="url(#clip0_371_20094)">
<path d="M8 13.8823C7.44 13.8823 7 13.4323 7 12.8823C7 12.3323 7.45 11.8823 8 11.8823C8.55 11.8823 9 12.3323 9 12.8823C9 13.4323 8.56 13.8823 8 13.8823Z" fill="#727985"/>
<path d="M11 12.8823C11 13.4323 11.44 13.8823 12 13.8823C12.56 13.8823 13 13.4323 13 12.8823C13 12.3323 12.55 11.8823 12 11.8823C11.45 11.8823 11 12.3323 11 12.8823Z" fill="#727985"/>
<path d="M15 12.8823C15 13.4323 15.44 13.8823 16 13.8823C16.56 13.8823 17 13.4323 17 12.8823C17 12.3323 16.55 11.8823 16 11.8823C15.45 11.8823 15 12.3323 15 12.8823Z" fill="#727985"/>
<path fill-rule="evenodd" clip-rule="evenodd" d="M12 2.13232C6.06294 2.13232 1.25 6.94526 1.25 12.8823C1.25 14.8138 1.76008 16.6285 2.6534 18.1965C2.70639 18.2895 2.71002 18.3805 2.68822 18.4459L1.92094 20.7478C1.46492 22.1159 2.76646 23.4174 4.13454 22.9614L6.43638 22.1941C6.50178 22.1723 6.5928 22.1759 6.6858 22.2289C8.25383 23.1222 10.0685 23.6323 12 23.6323C17.9371 23.6323 22.75 18.8194 22.75 12.8823C22.75 6.94526 17.9371 2.13232 12 2.13232ZM2.75 12.8823C2.75 7.77369 6.89137 3.63232 12 3.63232C17.1086 3.63232 21.25 7.77369 21.25 12.8823C21.25 17.991 17.1086 22.1323 12 22.1323C10.3357 22.1323 8.77608 21.6934 7.42832 20.9256C6.99885 20.6809 6.46708 20.6027 5.96204 20.7711L3.6602 21.5384C3.46476 21.6035 3.27882 21.4176 3.34397 21.2221L4.11125 18.9203C4.2796 18.4152 4.20141 17.8835 3.95673 17.454C3.18889 16.1062 2.75 14.5467 2.75 12.8823Z" fill="#727985"/>
</g>
<defs>
<clipPath id="clip0_371_20094">
<rect width="24" height="24" fill="white" transform="translate(0 0.882324)"/>
</clipPath>
</defs>
</svg>
