<svg width="24" height="24" viewBox="0 0 24 24" fill="none" xmlns="http://www.w3.org/2000/svg">
    <g clip-path="url(#clip0_3396_193083)">
        <path fill-rule="evenodd" clip-rule="evenodd"
            d="M10.4108 3.16103C11.0963 1.94632 12.9038 1.94632 13.5892 3.16103L15.9876 7.41108C16.0234 7.47457 16.0998 7.53616 16.2094 7.5543L21.2451 8.38776C22.6261 8.61632 23.3002 10.2933 22.2244 11.3408L18.6709 14.8009C18.6108 14.8594 18.5933 14.9275 18.602 14.985L19.3159 19.7502C19.5366 21.2231 17.9653 22.1386 16.7464 21.5784L12.1519 19.4669C12.0572 19.4234 11.9428 19.4234 11.8481 19.4669L7.25359 21.5784C6.03468 22.1386 4.46345 21.2231 4.68412 19.7502L5.39805 14.985C5.40666 14.9275 5.38918 14.8594 5.32912 14.8009L1.77561 11.3408C0.699807 10.2932 1.37392 8.61632 2.75487 8.38776L7.79065 7.5543C7.90022 7.53616 7.9766 7.47457 8.01243 7.41108L10.4108 3.16103ZM12 3.75C11.8637 3.75 11.7655 3.81249 11.7171 3.89822L9.31878 8.14827C9.04821 8.62774 8.56935 8.94582 8.03559 9.03416L2.9998 9.86763C2.8569 9.89128 2.78717 9.97329 2.76184 10.0466C2.74845 10.0854 2.74714 10.1225 2.75432 10.1546C2.7609 10.1839 2.77744 10.2226 2.82205 10.2661L6.37557 13.7262C6.76948 14.1098 6.96409 14.656 6.88149 15.2073L6.16756 19.9724C6.15636 20.0472 6.18259 20.1249 6.2757 20.1885C6.37127 20.2539 6.50102 20.2735 6.6272 20.2155L11.2218 18.1039C11.714 17.8777 12.286 17.8777 12.7783 18.1039L17.3728 20.2155C17.499 20.2735 17.6287 20.2539 17.7243 20.1885C17.8174 20.1249 17.8436 20.0472 17.8324 19.9724L17.1185 15.2073C17.0359 14.656 17.2305 14.1098 17.6244 13.7262L21.178 10.2661C21.2226 10.2226 21.2391 10.1839 21.2457 10.1546C21.2529 10.1225 21.2516 10.0854 21.2382 10.0466C21.2128 9.97329 21.1431 9.89128 21.0002 9.86763L15.9644 9.03416C15.4307 8.94582 14.9518 8.62774 14.6812 8.14827L12.2829 3.89822C12.2345 3.81249 12.1363 3.75 12 3.75Z"
            fill="#1A6AFC" />
    </g>
    <defs>
        <clipPath id="clip0_3396_193083">
            <rect width="24" height="24" fill="white" />
        </clipPath>
    </defs>
</svg>