<svg width="16" height="16" viewBox="0 0 16 16" fill="none" xmlns="http://www.w3.org/2000/svg">
<path fill-rule="evenodd" clip-rule="evenodd" d="M0.833008 8.00001C0.833008 4.04197 4.04163 0.833344 7.99967 0.833344C11.9577 0.833344 15.1663 4.04197 15.1663 8.00001C15.1663 11.9581 11.9577 15.1667 7.99967 15.1667C4.04163 15.1667 0.833008 11.9581 0.833008 8.00001ZM10.3532 10.3536C10.158 10.5488 9.84138 10.5488 9.64612 10.3536L7.99967 8.70712L6.35323 10.3536C6.15797 10.5488 5.84138 10.5488 5.64612 10.3536C5.45086 10.1583 5.45086 9.84172 5.64612 9.64646L7.29257 8.00001L5.64612 6.35356C5.45086 6.1583 5.45086 5.84172 5.64612 5.64646C5.84138 5.45119 6.15797 5.45119 6.35323 5.64646L7.99967 7.2929L9.64612 5.64646C9.84138 5.45119 10.158 5.45119 10.3532 5.64646C10.5485 5.84172 10.5485 6.1583 10.3532 6.35356L8.70678 8.00001L10.3532 9.64646C10.5485 9.84172 10.5485 10.1583 10.3532 10.3536Z" fill="#A5ACB8"/>
</svg>
