<svg width="16" height="17" viewBox="0 0 16 17" fill="none" xmlns="http://www.w3.org/2000/svg">
<path fill-rule="evenodd" clip-rule="evenodd" d="M15.4474 9.92887C15.4628 10.1065 14.8924 10.3112 14.8924 10.3112L15.9798 10.9409C15.9798 10.9409 15.8261 11.1269 15.5164 11.2959C15.9068 11.6052 15.9661 11.9485 15.9661 12.3095C15.9661 12.7539 15.7951 13.1395 15.2198 13.5002C15.5058 13.7605 15.7874 14.7205 15.7874 15.0172C15.7874 15.5245 14.3428 16.0129 14.0101 16.0129C13.6764 16.0129 10.9981 16.0165 9.1771 16.0165C8.36743 16.0165 7.5971 16.0209 6.8841 16.0165L1.28877 16.0015L0.00976562 3.67954H5.86843L6.68477 0.393869H6.68643C6.73877 0.188202 6.92343 0.035202 7.1451 0.035202C7.1881 0.035202 7.2291 0.043202 7.26843 0.0535354L7.26943 0.0518687L7.32843 0.072202C7.32943 0.0725354 7.32977 0.0725354 7.33043 0.073202L10.5661 1.17887L10.2594 2.0772L7.48077 1.1272L6.84643 3.67954H8.34343L8.04777 6.71454C8.43577 6.69454 8.83377 6.68354 9.24143 6.68354C12.8238 6.68354 15.7408 7.44054 15.7408 9.22754C15.7408 9.56087 15.5614 9.57287 15.3741 9.8752C15.3988 9.89154 15.4451 9.89787 15.4474 9.92887V9.92887ZM4.15843 14.7549C4.4961 15.0889 5.27777 15.0172 5.27777 15.0172H8.99643H13.6634C13.6634 15.0172 14.0574 15.0142 14.3608 14.7142C14.7958 14.2839 14.2614 13.6752 13.7204 13.6752C12.6554 13.6752 5.93043 13.6665 4.69677 13.6665C4.14443 13.6665 3.82077 14.4202 4.15843 14.7549V14.7549ZM9.2711 12.9752L15.1814 11.0172H3.60177L9.2711 12.9752ZM1.0571 4.67954L2.08577 15.0172H2.69143C2.68343 14.7205 3.03643 13.7919 3.32177 13.5315C2.74643 13.1712 2.4781 12.8479 2.4781 12.4032C2.4781 12.0219 2.5811 11.5052 3.0131 11.1829C2.47543 10.9979 2.3861 10.6189 2.7311 10.5172C3.11343 10.4035 3.15643 10.6655 3.38343 10.3735C2.9411 9.93587 2.69143 9.7512 2.69143 9.22754C2.69143 7.8122 4.5561 7.04554 7.10943 6.78687L7.3431 4.67954H1.0571ZM9.2411 7.6522C7.31077 7.6522 3.6021 8.07854 3.6721 9.24487C3.69343 9.59754 4.99643 10.0169 4.99643 10.0169H9.2621H13.4964C13.4964 10.0169 14.7834 9.5592 14.7924 9.24487C14.8268 8.07754 11.1104 7.6522 9.2411 7.6522V7.6522ZM0.00976562 3.67954C0.0227656 3.82787 0.00976562 3.70754 0.00976562 3.67954V3.67954Z" fill="#707174"/>
</svg>
