<svg width="24" height="25" viewBox="0 0 24 25" fill="none" xmlns="http://www.w3.org/2000/svg">
<g clip-path="url(#clip0_371_20137)">
<path fill-rule="evenodd" clip-rule="evenodd" d="M1.25 8.38232C1.25 6.03511 3.15279 4.13232 5.5 4.13232H13.5C15.8472 4.13232 17.75 6.03511 17.75 8.38232V9.1983L19.8293 7.32692C20.9555 6.31338 22.75 7.11258 22.75 8.62769V17.137C22.75 18.6521 20.9555 19.4513 19.8293 18.4377L17.75 16.5663V17.3823C17.75 19.7295 15.8472 21.6323 13.5 21.6323H5.5C3.15279 21.6323 1.25 19.7295 1.25 17.3823V8.38232ZM17.75 14.5483V11.2163L20.8328 8.44186C20.9936 8.29707 21.25 8.41125 21.25 8.62769V17.137C21.25 17.3534 20.9936 17.4676 20.8328 17.3228L17.75 14.5483ZM16.25 8.38232V17.3823C16.25 18.9011 15.0188 20.1323 13.5 20.1323H5.5C3.98122 20.1323 2.75 18.9011 2.75 17.3823V8.38232C2.75 6.86354 3.98122 5.63232 5.5 5.63232H13.5C15.0188 5.63232 16.25 6.86354 16.25 8.38232Z" fill="#727985"/>
</g>
<defs>
<clipPath id="clip0_371_20137">
<rect width="24" height="24" fill="white" transform="translate(0 0.882324)"/>
</clipPath>
</defs>
</svg>
