<svg width="14" height="14" viewBox="0 0 14 14" fill="none" xmlns="http://www.w3.org/2000/svg">
<g clip-path="url(#clip0_203_17585)">
<path fill-rule="evenodd" clip-rule="evenodd" d="M9.72933 0.923676C10.2528 0.664276 10.8674 0.664276 11.3908 0.923676C11.6674 1.06071 11.9111 1.30474 12.248 1.64203L12.3579 1.75193C12.6952 2.08884 12.9392 2.33257 13.0763 2.60911C13.3357 3.13258 13.3357 3.74717 13.0763 4.27063C12.9392 4.54717 12.6952 4.79091 12.3579 5.12782L5.34318 12.1425C5.17458 12.3112 5.05071 12.4352 4.90593 12.5341C4.778 12.6215 4.63971 12.6927 4.49424 12.746C4.3296 12.8063 4.15675 12.835 3.92147 12.8742L1.79006 13.2294C1.69577 13.2451 1.59844 13.2614 1.51531 13.2677C1.4259 13.2744 1.29655 13.2755 1.16222 13.2178C0.99145 13.1446 0.855368 13.0085 0.782124 12.8377C0.724508 12.7034 0.725556 12.5741 0.732304 12.4847C0.738579 12.4015 0.754818 12.3042 0.77055 12.2099L1.12579 10.0785C1.16492 9.84321 1.19367 9.67035 1.254 9.50572C1.3073 9.36025 1.37847 9.22196 1.46586 9.09403C1.56477 8.94925 1.68871 8.82538 1.85742 8.65679L8.87215 1.64203C9.20905 1.30473 9.45279 1.06071 9.72933 0.923676ZM11.0023 1.70769C10.7237 1.5696 10.3965 1.5696 10.1178 1.70769C9.9876 1.77223 9.85172 1.89993 9.43593 2.31572L8.51854 3.23311L10.7668 5.48142L11.6842 4.56402C12.1 4.14824 12.2277 4.01236 12.2923 3.88212C12.4304 3.60346 12.4304 3.27629 12.2923 2.99763C12.2277 2.86738 12.1 2.73151 11.6842 2.31572C11.2685 1.89993 11.1326 1.77223 11.0023 1.70769ZM10.1481 6.10014L7.89982 3.85183L2.50141 9.25024C2.29713 9.45452 2.23548 9.51863 2.18836 9.5876C2.14184 9.6557 2.10396 9.72932 2.07558 9.80676C2.04684 9.88519 2.03051 9.97261 1.98302 10.2576L1.63115 12.3688L3.74238 12.0169C4.02734 11.9694 4.11477 11.9531 4.1932 11.9244C4.27064 11.896 4.34425 11.8581 4.41236 11.8116C4.48133 11.7645 4.54544 11.7028 4.74971 11.4986L10.1481 6.10014Z" fill="#A5ACB8"/>
<path d="M12.8333 12.6875H8.16667C7.92504 12.6875 7.72917 12.4916 7.72917 12.25C7.72917 12.0083 7.92504 11.8125 8.16667 11.8125H12.8333C13.075 11.8125 13.2708 12.0083 13.2708 12.25C13.2708 12.4916 13.075 12.6875 12.8333 12.6875Z" fill="#A5ACB8"/>
</g>
<defs>
<clipPath id="clip0_203_17585">
<rect width="14" height="14" fill="white"/>
</clipPath>
</defs>
</svg>
