<svg width="22" height="22" viewBox="0 0 22 22" fill="none" xmlns="http://www.w3.org/2000/svg">
<path fill-rule="evenodd" clip-rule="evenodd" d="M11.0001 7.26709C8.92905 7.26709 7.25012 8.94602 7.25012 11.0171C7.25012 13.0882 8.92905 14.7671 11.0001 14.7671C13.0712 14.7671 14.7501 13.0882 14.7501 11.0171C14.7501 8.94602 13.0712 7.26709 11.0001 7.26709ZM8.75012 11.0171C8.75012 9.77445 9.75748 8.76709 11.0001 8.76709C12.2428 8.76709 13.2501 9.77445 13.2501 11.0171C13.2501 12.2597 12.2428 13.2671 11.0001 13.2671C9.75748 13.2671 8.75012 12.2597 8.75012 11.0171Z" fill="#A5ACB8"/>
<path fill-rule="evenodd" clip-rule="evenodd" d="M2.00251 11.8734C0.804285 12.5665 0.394761 14.1002 1.08575 15.2991L2.32518 17.4497C3.01661 18.6495 4.54914 19.0616 5.74814 18.3681C6.41625 17.9816 7.25544 18.4633 7.25544 19.2416C7.25544 20.6257 8.3758 21.75 9.76066 21.75H12.2395C13.6244 21.75 14.7448 20.6256 14.7448 19.2416C14.7448 18.4632 15.584 17.9816 16.252 18.368C17.451 19.0614 18.9836 18.6494 19.675 17.4496L20.9145 15.299C21.6054 14.1 21.1959 12.5664 19.9977 11.8734C19.327 11.4854 19.327 10.5143 19.9977 10.1264C21.1959 9.43337 21.6054 7.8997 20.9145 6.70078L19.675 4.55011C18.9836 3.35038 17.451 2.93833 16.252 3.6318C15.5839 4.01823 14.7448 3.53654 14.7448 2.7583C14.7448 1.37427 13.6244 0.25 12.2396 0.25H9.76058C8.37577 0.25 7.25544 1.37425 7.25544 2.75827C7.25544 3.53644 6.41631 4.01814 5.74818 3.6317C4.5492 2.93824 3.01662 3.35027 2.32518 4.55001L1.08575 6.70061C0.39476 7.89956 0.804285 9.43328 2.00251 10.1263C2.67334 10.5143 2.67334 11.4854 2.00251 11.8734ZM2.38536 14.5502C2.10696 14.0671 2.27271 13.45 2.75352 13.1719C4.42301 12.2063 4.42301 9.79346 2.75352 8.82786C2.27271 8.54977 2.10696 7.93268 2.38536 7.4496L3.6248 5.29901C3.90273 4.81675 4.51715 4.65253 4.99717 4.93016C6.66922 5.89724 8.75544 4.68712 8.75544 2.75827C8.75544 2.20015 9.20671 1.75 9.76058 1.75L12.2396 1.75C12.7935 1.75 13.2448 2.20017 13.2448 2.7583C13.2448 4.68715 15.3309 5.89737 17.003 4.93026C17.483 4.65263 18.0974 4.81685 18.3754 5.29911L19.6149 7.44978C19.8932 7.93282 19.7275 8.54986 19.2467 8.82792C17.5773 9.79349 17.5773 12.2063 19.2467 13.1718C19.7275 13.4499 19.8932 14.0669 19.6149 14.55L18.3754 16.7006C18.0974 17.1829 17.483 17.3471 17.003 17.0695C15.3309 16.1023 13.2448 17.3128 13.2448 19.2416C13.2448 19.7998 12.7934 20.25 12.2395 20.25H9.76066C9.20676 20.25 8.75544 19.7998 8.75544 19.2416C8.75544 17.3128 6.66929 16.1025 4.99714 17.0696C4.51714 17.3472 3.90275 17.183 3.6248 16.7008L2.38536 14.5502Z" fill="#A5ACB8"/>
</svg>
