<svg width="22" height="22" viewBox="0 0 22 22" fill="none" xmlns="http://www.w3.org/2000/svg">
<path fill-rule="evenodd" clip-rule="evenodd" d="M16 8.35986C16.4142 8.35986 16.75 8.69565 16.75 9.10986V11.1099C16.75 11.5241 16.4142 11.8599 16 11.8599C15.9935 11.8599 15.9871 11.8598 15.9807 11.8596H13.0273C13.0183 11.8599 13.0091 11.8601 13 11.8601C12.9909 11.8601 12.9817 11.8599 12.9727 11.8596H10.6457C10.5222 12.297 10.2883 12.7097 9.94408 13.0539C8.87019 14.1278 7.12931 14.1278 6.05542 13.0539C4.98153 11.9801 4.98153 10.2392 6.05542 9.16528C7.12931 8.09139 8.87019 8.09139 9.94408 9.16528C10.2883 9.50951 10.5222 9.92227 10.6457 10.3596H12.25V9.60986C12.25 9.19565 12.5858 8.85986 13 8.85986C13.4142 8.85986 13.75 9.19565 13.75 9.60986V10.3596H15.25V9.10986C15.25 8.69565 15.5858 8.35986 16 8.35986ZM8.88342 10.2259C8.39531 9.73784 7.60419 9.73784 7.11608 10.2259C6.62797 10.7141 6.62797 11.5052 7.11608 11.9933C7.60419 12.4814 8.39531 12.4814 8.88342 11.9933C9.37153 11.5052 9.37153 10.7141 8.88342 10.2259Z" fill="#1A6AFC"/>
<path fill-rule="evenodd" clip-rule="evenodd" d="M0.25 4.60986C0.25 2.26265 2.15279 0.359863 4.5 0.359863H17.5C19.8472 0.359863 21.75 2.26265 21.75 4.60986V17.6099C21.75 19.9571 19.8472 21.8599 17.5 21.8599H4.5C2.15279 21.8599 0.25 19.9571 0.25 17.6099V4.60986ZM4.5 1.85986C2.98122 1.85986 1.75 3.09108 1.75 4.60986V17.6099C1.75 19.1286 2.98122 20.3599 4.5 20.3599H17.5C19.0188 20.3599 20.25 19.1286 20.25 17.6099V4.60986C20.25 3.09108 19.0188 1.85986 17.5 1.85986H4.5Z" fill="#1A6AFC"/>
</svg>
