<svg width="21" height="16" viewBox="0 0 21 16" fill="none" xmlns="http://www.w3.org/2000/svg">
    <path d="M4.7206 9.49146C2.64314 8.38523 0.830391 7.32359 0.902469 6.86769C0.969119 6.44613 3.41386 4.95449 8.45263 3.86539C8.59979 3.83358 8.72692 3.73724 8.79743 3.60422C9.84223 1.63313 10.7194 0.835552 11.6322 0.25293C11.861 0.106892 12.1633 0.18481 12.3051 0.416267C12.8912 1.37292 13.2886 2.04723 13.7647 3.12736C13.8456 3.31092 14.026 3.43099 14.2266 3.43339C16.9055 3.46533 20.3145 3.87699 20.0898 4.47508C19.9548 4.83446 12.6649 6.51815 7.31978 12.608C9.32843 10.5863 15.1531 8.20677 15.4034 8.86646C15.6682 9.56436 16.4169 12.4844 16.5237 15.3361C16.5362 15.6684 16.2187 15.907 15.9023 15.8047C14.2983 15.286 11.6873 14.2922 10.5153 13.6599C10.3827 13.5883 10.2277 13.5725 10.0923 13.6386C9.21138 14.0693 7.2231 15.3993 4.40855 15.7289C4.09333 15.7658 3.83826 15.4875 3.90382 15.177C4.79944 10.9348 8.31848 7.97131 10.9281 6.18882C11.3431 5.90533 11.1826 5.51234 10.7277 5.7262C8.93516 6.56902 6.6342 8.31449 5.27545 9.43505C5.11849 9.5645 4.90018 9.58708 4.7206 9.49146Z" fill="url(#paint0_linear_2797_114483)"/>
    <defs>
    <linearGradient id="paint0_linear_2797_114483" x1="17.7004" y1="15.6788" x2="8.58039" y2="2.23875" gradientUnits="userSpaceOnUse">
    <stop offset="0.015" stop-color="#FBA401"/>
    <stop offset="0.621879" stop-color="#FCB901"/>
    <stop offset="0.961052" stop-color="#FFDD00"/>
    </linearGradient>
    </defs>
    </svg>
    