<svg width="20" height="20" viewBox="0 0 20 20" fill="none" xmlns="http://www.w3.org/2000/svg">
<g clip-path="url(#clip0_275_16404)">
<path d="M11.6667 7.70834C12.0118 7.70834 12.2917 7.98816 12.2917 8.33334V14.1667C12.2917 14.5119 12.0118 14.7917 11.6667 14.7917C11.3215 14.7917 11.0417 14.5119 11.0417 14.1667V8.33334C11.0417 7.98816 11.3215 7.70834 11.6667 7.70834Z" fill="#FF1A1A"/>
<path d="M8.95833 8.33334C8.95833 7.98816 8.67851 7.70834 8.33333 7.70834C7.98816 7.70834 7.70833 7.98816 7.70833 8.33334L7.70833 14.1667C7.70833 14.5119 7.98816 14.7917 8.33333 14.7917C8.67851 14.7917 8.95833 14.5119 8.95833 14.1667V8.33334Z" fill="#FF1A1A"/>
<path fill-rule="evenodd" clip-rule="evenodd" d="M6.71066 1.84782C6.95768 1.35376 7.46265 1.04167 8.01503 1.04167H11.985C12.5373 1.04167 13.0423 1.35376 13.2893 1.84782L14.0787 3.42651C14.114 3.49709 14.1861 3.54167 14.265 3.54167H17.5C17.8452 3.54167 18.125 3.82149 18.125 4.16667C18.125 4.51185 17.8452 4.79167 17.5 4.79167H16.6667V15.8333C16.6667 17.5592 15.2676 18.9583 13.5417 18.9583H6.45833C4.73244 18.9583 3.33333 17.5592 3.33333 15.8333V4.79167H2.5C2.15482 4.79167 1.875 4.51185 1.875 4.16667C1.875 3.82149 2.15482 3.54167 2.5 3.54167H5.73497C5.81388 3.54167 5.88602 3.49709 5.92131 3.42651L6.71066 1.84782ZM7.26127 3.54167H12.7387L12.1713 2.40684C12.136 2.33626 12.0639 2.29167 11.985 2.29167H8.01503C7.93612 2.29167 7.86398 2.33626 7.82869 2.40684L7.26127 3.54167ZM4.58333 4.79167V15.8333C4.58333 16.8689 5.4228 17.7083 6.45833 17.7083H13.5417C14.5772 17.7083 15.4167 16.8689 15.4167 15.8333V4.79167H4.58333Z" fill="#FF1A1A"/>
</g>
<defs>
<clipPath id="clip0_275_16404">
<rect width="20" height="20" fill="white"/>
</clipPath>
</defs>
</svg>
