<svg width="24" height="24" viewBox="0 0 24 24" fill="none" xmlns="http://www.w3.org/2000/svg">
<g clip-path="url(#clip0_3344_24241)">
<path fill-rule="evenodd" clip-rule="evenodd" d="M2.74155 6.5C2.74155 4.70507 4.19663 3.25 5.99155 3.25C7.78648 3.25 9.24155 4.70507 9.24155 6.5C9.24155 8.29493 7.78648 9.75 5.99155 9.75C4.19663 9.75 2.74155 8.29493 2.74155 6.5ZM5.99155 4.75C5.02506 4.75 4.24155 5.5335 4.24155 6.5C4.24155 7.4665 5.02506 8.25 5.99155 8.25C6.95805 8.25 7.74155 7.4665 7.74155 6.5C7.74155 5.5335 6.95805 4.75 5.99155 4.75Z" fill="#1A6AFC"/>
<path d="M5.99169 12.25C6.2895 12.25 6.57944 12.276 6.85546 12.327C7.26279 12.4021 7.65394 12.1329 7.7291 11.7255C7.80427 11.3182 7.53499 10.927 7.12765 10.8519C6.75756 10.7836 6.37633 10.75 5.99169 10.75C3.96992 10.75 1.88731 11.7125 1.32622 13.8816C1.17301 14.4739 1.24068 15.0935 1.62153 15.5843C2.04816 16.1341 2.67247 16.2524 3.33964 16.2502C4.37981 16.2467 5.42001 16.2478 6.46021 16.2489C6.97066 16.2495 7.48111 16.25 7.99155 16.25C8.40577 16.25 8.74155 15.9142 8.74155 15.5C8.74155 15.0858 8.40577 14.75 7.99155 14.75H3.42404C3.02574 14.75 2.65731 14.7254 2.77842 14.2572C3.10351 13.0005 4.35529 12.25 5.99169 12.25Z" fill="#1A6AFC"/>
<path fill-rule="evenodd" clip-rule="evenodd" d="M8.74996 12C8.74996 10.2051 10.205 8.75 12 8.75C13.7949 8.75 15.25 10.2051 15.25 12C15.25 13.7949 13.7949 15.25 12 15.25C10.205 15.25 8.74996 13.7949 8.74996 12ZM12 10.25C11.0335 10.25 10.25 11.0335 10.25 12C10.25 12.9665 11.0335 13.75 12 13.75C12.9665 13.75 13.75 12.9665 13.75 12C13.75 11.0335 12.9665 10.25 12 10.25Z" fill="#1A6AFC"/>
<path fill-rule="evenodd" clip-rule="evenodd" d="M7.33436 19.3816C7.89545 17.2125 9.97803 16.25 11.9998 16.25C14.0216 16.25 16.1042 17.2125 16.6653 19.3816C16.8185 19.9739 16.7508 20.5935 16.37 21.0843C15.9434 21.6341 15.319 21.7524 14.6519 21.7502C12.8839 21.7443 11.1157 21.7443 9.34778 21.7502C8.94962 21.7515 8.50846 21.753 8.08282 21.4977C7.35255 21.0597 7.13095 20.1679 7.33436 19.3816ZM11.9998 17.75C10.3634 17.75 9.11164 18.5005 8.78656 19.7572C8.65841 20.2526 9.01092 20.2514 9.37667 20.2501L9.43218 20.25H14.5675L14.6228 20.2501C14.9883 20.2514 15.3412 20.2526 15.2131 19.7572C14.888 18.5005 13.6362 17.75 11.9998 17.75Z" fill="#1A6AFC"/>
<path fill-rule="evenodd" clip-rule="evenodd" d="M18.0084 3.25C19.8034 3.25 21.2584 4.70507 21.2584 6.5C21.2584 8.29493 19.8034 9.75 18.0084 9.75C16.2135 9.75 14.7584 8.29493 14.7584 6.5C14.7584 4.70507 16.2135 3.25 18.0084 3.25ZM19.7584 6.5C19.7584 5.5335 18.9749 4.75 18.0084 4.75C17.0419 4.75 16.2584 5.5335 16.2584 6.5C16.2584 7.4665 17.0419 8.25 18.0084 8.25C18.9749 8.25 19.7584 7.4665 19.7584 6.5Z" fill="#1A6AFC"/>
<path d="M17.1445 12.327C17.4206 12.276 17.7105 12.25 18.0083 12.25C19.6447 12.25 20.8965 13.0005 21.2216 14.2572C21.3427 14.7254 20.9743 14.75 20.576 14.75H16.0084C15.5942 14.75 15.2584 15.0858 15.2584 15.5C15.2584 15.9142 15.5942 16.25 16.0084 16.25C16.5189 16.25 17.0293 16.2495 17.5398 16.2489C18.58 16.2478 19.6202 16.2467 20.6604 16.2502C21.3275 16.2524 21.9518 16.1341 22.3785 15.5843C22.7593 15.0935 22.827 14.4739 22.6738 13.8816C22.1127 11.7125 20.0301 10.75 18.0083 10.75C17.6237 10.75 17.2424 10.7836 16.8723 10.8519C16.465 10.927 16.1957 11.3182 16.2709 11.7255C16.3461 12.1329 16.7372 12.4021 17.1445 12.327Z" fill="#1A6AFC"/>
</g>
<defs>
<clipPath id="clip0_3344_24241">
<rect width="24" height="24" fill="white"/>
</clipPath>
</defs>
</svg>
