<svg width="24" height="25" viewBox="0 0 24 25" fill="none" xmlns="http://www.w3.org/2000/svg">
<g clip-path="url(#clip0_511_10892)">
<path fill-rule="evenodd" clip-rule="evenodd" d="M12 8.75C14.6234 8.75 16.75 10.8766 16.75 13.5C16.75 16.1234 14.6234 18.25 12 18.25C9.37665 18.25 7.25 16.1234 7.25 13.5C7.25 10.8766 9.37665 8.75 12 8.75ZM15.25 13.5C15.25 11.7051 13.7949 10.25 12 10.25C10.2051 10.25 8.75 11.7051 8.75 13.5C8.75 15.2949 10.2051 16.75 12 16.75C13.7949 16.75 15.25 15.2949 15.25 13.5Z" fill="#1A6AFC"/>
<path fill-rule="evenodd" clip-rule="evenodd" d="M10.2361 2.25C9.19445 2.25 8.24222 2.83851 7.77639 3.77016L7.38197 4.55902C7.17023 4.9825 6.7374 5.25 6.26393 5.25H5.5C3.15279 5.25 1.25 7.15279 1.25 9.5V18.5C1.25 20.8472 3.15279 22.75 5.5 22.75H18.5C20.8472 22.75 22.75 20.8472 22.75 18.5V9.5C22.75 7.15279 20.8472 5.25 18.5 5.25H17.7361C17.2626 5.25 16.8298 4.9825 16.618 4.55902L16.2236 3.77016C15.7578 2.83851 14.8056 2.25 13.7639 2.25H10.2361ZM9.11803 4.44098C9.32977 4.0175 9.7626 3.75 10.2361 3.75H13.7639C14.2374 3.75 14.6702 4.0175 14.882 4.44098L15.2764 5.22984C15.7422 6.16149 16.6944 6.75 17.7361 6.75H18.5C20.0188 6.75 21.25 7.98122 21.25 9.5V18.5C21.25 20.0188 20.0188 21.25 18.5 21.25H5.5C3.98122 21.25 2.75 20.0188 2.75 18.5V9.5C2.75 7.98122 3.98122 6.75 5.5 6.75H6.26393C7.30556 6.75 8.25778 6.16149 8.72361 5.22984L9.11803 4.44098Z" fill="#1A6AFC"/>
</g>
<defs>
<clipPath id="clip0_511_10892">
<rect width="24" height="24" fill="white" transform="translate(0 0.5)"/>
</clipPath>
</defs>
</svg>
