<svg width="60" height="60" viewBox="0 0 60 60" fill="none" xmlns="http://www.w3.org/2000/svg">
<g clip-path="url(#clip0_2797_117623)">
<path d="M0.5 21.3333C0.5 17.5914 0.500389 14.815 0.679995 12.6167C0.859125 10.4243 1.21403 8.85097 1.89875 7.50712C3.12912 5.09238 5.09238 3.12912 7.50712 1.89875C8.85097 1.21403 10.4243 0.859125 12.6167 0.679995C14.815 0.500389 17.5914 0.5 21.3333 0.5H38.6667C42.4086 0.5 45.185 0.500389 47.3833 0.679995C49.5757 0.859125 51.149 1.21403 52.4929 1.89875C54.9076 3.12912 56.8709 5.09238 58.1012 7.50712C58.786 8.85097 59.1409 10.4243 59.32 12.6167C59.4996 14.815 59.5 17.5914 59.5 21.3333V38.6667C59.5 42.4086 59.4996 45.185 59.32 47.3833C59.1409 49.5757 58.786 51.149 58.1012 52.4929C56.8709 54.9076 54.9076 56.8709 52.4929 58.1012C51.149 58.786 49.5757 59.1409 47.3833 59.32C45.185 59.4996 42.4086 59.5 38.6667 59.5H21.3333C17.5914 59.5 14.815 59.4996 12.6167 59.32C10.4243 59.1409 8.85097 58.786 7.50712 58.1012C5.09238 56.8709 3.12912 54.9076 1.89875 52.4929C1.21403 51.149 0.859125 49.5757 0.679995 47.3833C0.500389 45.185 0.5 42.4086 0.5 38.6667V21.3333Z" fill="white" stroke="#D8DFEB"/>
<path d="M41.346 15.9805L30.1202 24.7413L18.6377 15.9805V15.9828L18.6516 15.9947V28.2621L29.9907 37.2124L41.346 28.6078V15.9805Z" fill="#EA4335"/>
<path d="M44.2938 13.8495L41.3457 15.9805V28.6078L50.6223 21.4856V17.1951C50.6223 17.1951 49.4963 11.0673 44.2938 13.8495Z" fill="#FBBC05"/>
<path d="M41.3457 28.6076V44.9856H48.4558C48.4558 44.9856 50.479 44.7772 50.6246 42.471V21.4854L41.3457 28.6076Z" fill="#34A853"/>
<path d="M18.6521 44.9997V28.2618L18.6377 28.25L18.6521 44.9997Z" fill="#C5221F"/>
<path d="M18.6378 15.9835L15.7059 13.8643C10.5034 11.0822 9.375 17.2076 9.375 17.2076V21.4981L18.6378 28.251V15.9835Z" fill="#C5221F"/>
<path d="M18.6377 15.9824V28.2499L18.6521 28.2617V15.9943L18.6377 15.9824Z" fill="#C5221F"/>
<path d="M9.375 21.5V42.4856C9.51836 44.7942 11.5439 45.0002 11.5439 45.0002H18.6539L18.6378 28.2505L9.375 21.5Z" fill="#4285F4"/>
</g>
<defs>
<clipPath id="clip0_2797_117623">
<rect width="60" height="60" fill="white"/>
</clipPath>
</defs>
</svg>
