<svg width="24" height="24" viewBox="0 0 24 24" fill="none" xmlns="http://www.w3.org/2000/svg">
<path d="M21.6807 20.9636C19.4855 19.9354 18.2261 17.7273 18.2261 14.9091V13.3364C18.2259 13.0818 18.1466 12.8331 17.9983 12.6224C17.8499 12.4118 17.6394 12.2488 17.394 12.1546L15.0459 11.261C14.9307 11.2168 14.8257 11.1512 14.7368 11.0679C14.648 10.9845 14.577 10.8852 14.5281 10.7754C14.4791 10.6656 14.453 10.5477 14.4514 10.4282C14.4498 10.3087 14.4726 10.1901 14.5186 10.0792L16.528 5.26374C16.6542 4.96994 16.7176 4.65462 16.7144 4.33665C16.7112 4.01869 16.6415 3.70461 16.5094 3.41323C16.3772 3.12185 16.1855 2.85915 15.9455 2.64087C15.7056 2.42258 15.4224 2.2532 15.1129 2.14285C13.8913 1.70376 12.4828 2.31012 11.9705 3.50648L9.98946 8.33462C9.9438 8.4458 9.87584 8.5472 9.78946 8.63303C9.70307 8.71885 9.59997 8.78742 9.48605 8.83479C9.37214 8.88216 9.24964 8.90742 9.12558 8.9091C9.00152 8.91079 8.87833 8.88888 8.76307 8.84462L6.37445 7.90917C6.13262 7.81449 5.86698 7.79151 5.61153 7.84318C5.35608 7.89484 5.12243 8.01879 4.94052 8.19917C2.98962 10.1292 2.00002 12.3873 2.00002 14.9091C1.99515 17.4906 3.03083 19.9729 4.88863 21.8327C4.94206 21.8862 5.00627 21.9287 5.07732 21.9574C5.14837 21.9862 5.22477 22.0007 5.30183 22H21.4335C21.5617 22.0001 21.6861 21.9583 21.7864 21.8814C21.8867 21.8045 21.9569 21.6971 21.9856 21.5767C22.0143 21.4563 21.9998 21.3302 21.9444 21.2188C21.889 21.1074 21.796 21.0175 21.6807 20.9636ZM5.75182 8.95644C5.77775 8.93213 5.8104 8.91552 5.84586 8.90859C5.88132 8.90166 5.9181 8.9047 5.95181 8.91735L8.34799 9.85279C8.60159 9.95064 8.87274 9.99927 9.14589 9.99591C9.41904 9.99254 9.68882 9.93725 9.93974 9.8332C10.1907 9.72915 10.4178 9.57838 10.6081 9.38955C10.7985 9.20072 10.9482 8.97753 11.0489 8.7328L13.03 3.91465C13.313 3.26648 14.0677 2.93193 14.728 3.1683C14.8947 3.22836 15.047 3.32025 15.1758 3.43844C15.3047 3.55663 15.4075 3.6987 15.4779 3.8561C15.5484 4.01351 15.5852 4.18302 15.586 4.35445C15.5868 4.52588 15.5517 4.69571 15.4827 4.85374L13.4677 9.68098C13.2673 10.1731 13.2769 10.7216 13.4942 11.2071C13.7115 11.6925 14.119 12.0755 14.628 12.2728L16.9751 13.1664C17.0104 13.1799 17.0406 13.2034 17.0618 13.2337C17.083 13.2641 17.0942 13.2998 17.094 13.3364V14.9091C17.094 15.0309 17.094 15.15 17.1016 15.2728L4.5226 10.4192C4.88371 9.89542 5.29527 9.40568 5.75182 8.95644ZM10.3328 20.9091C9.15468 19.84 8.31974 18.4675 7.92724 16.9546C7.90866 16.8852 7.87608 16.82 7.83137 16.7628C7.78665 16.7056 7.73068 16.6574 7.66664 16.621C7.60261 16.5846 7.53176 16.5608 7.45815 16.5508C7.38454 16.5408 7.30961 16.5448 7.23763 16.5627C7.16566 16.5807 7.09804 16.612 7.03866 16.6551C6.97927 16.6982 6.92927 16.7522 6.89151 16.8139C6.85376 16.8756 6.82898 16.9438 6.81861 17.0148C6.80823 17.0857 6.81246 17.1579 6.83104 17.2273C7.18603 18.5788 7.85 19.8367 8.77439 20.9091H5.54333C3.98855 19.2705 3.12812 17.1295 3.13207 14.9091C3.1202 13.6863 3.40139 12.4774 3.95375 11.3764L17.2214 16.4909C17.5185 18.3018 18.3317 19.8236 19.5798 20.9091H10.3328Z" fill="#1A6AFC"/>
</svg>
