<svg width="32" height="33" viewBox="0 0 32 33" fill="none" xmlns="http://www.w3.org/2000/svg">
<g clip-path="url(#clip0_513_12498)">
<path fill-rule="evenodd" clip-rule="evenodd" d="M7.33317 5.21582C4.20356 5.21582 1.6665 7.75287 1.6665 10.8825V22.8825C1.6665 26.0121 4.20356 28.5492 7.33317 28.5492H16.6665C19.7961 28.5492 22.3332 26.0121 22.3332 22.8825V10.8825C22.3332 7.75287 19.7961 5.21582 16.6665 5.21582H7.33317Z" fill="#1A6AFC"/>
<path d="M26.4389 9.47528C27.9405 8.12389 30.3332 9.1895 30.3332 11.2096V22.5553C30.3332 24.5755 27.9405 25.6411 26.4389 24.2897L24.1079 22.1918C23.8269 21.9389 23.6665 21.5787 23.6665 21.2007V12.5643C23.6665 12.1863 23.8269 11.8261 24.1079 11.5732L26.4389 9.47528Z" fill="#1A6AFC"/>
</g>
<defs>
<clipPath id="clip0_513_12498">
<rect width="32" height="32" fill="white" transform="translate(0 0.882324)"/>
</clipPath>
</defs>
</svg>
