<svg width="12" height="12" viewBox="0 0 12 12" fill="none" xmlns="http://www.w3.org/2000/svg">
<g clip-path="url(#clip0_3583_16696)">
<path fill-rule="evenodd" clip-rule="evenodd" d="M9.39298 2.60577C9.53567 2.74679 9.53567 2.97543 9.39298 3.11646L3.54683 8.89423C3.40414 9.03526 3.17279 9.03526 3.0301 8.89423L0.107019 6.00534C-0.0356729 5.86432 -0.0356729 5.63568 0.107019 5.49466C0.24971 5.35363 0.481059 5.35363 0.623751 5.49466L3.28846 8.1282L8.87625 2.60577C9.01894 2.46474 9.25029 2.46474 9.39298 2.60577Z" fill="#727985"/>
<path fill-rule="evenodd" clip-rule="evenodd" d="M11.8966 2.60577C12.0345 2.74679 12.0345 2.97543 11.8966 3.11646L6.24614 8.89423C6.10823 9.03526 5.88462 9.03526 5.74671 8.89423L4.60344 7.64583C4.46552 7.50481 4.46552 7.27617 4.60344 7.13515C4.74135 6.99412 4.96495 6.99412 5.10287 7.13515L5.99643 8.1282L11.3971 2.60577C11.535 2.46474 11.7586 2.46474 11.8966 2.60577Z" fill="#727985"/>
</g>
<defs>
<clipPath id="clip0_3583_16696">
<rect width="12" height="12" fill="white"/>
</clipPath>
</defs>
</svg>
