<svg width="24" height="24" viewBox="0 0 24 24" fill="none" xmlns="http://www.w3.org/2000/svg">
<g clip-path="url(#clip0_1875_59034)">
<path d="M7.25 13C7.25 12.5858 7.58579 12.25 8 12.25H16C16.4142 12.25 16.75 12.5858 16.75 13C16.75 13.4142 16.4142 13.75 16 13.75H8C7.58579 13.75 7.25 13.4142 7.25 13Z" fill="#1A6AFC"/>
<path d="M8 15.75C7.58579 15.75 7.25 16.0858 7.25 16.5C7.25 16.9142 7.58579 17.25 8 17.25H12C12.4142 17.25 12.75 16.9142 12.75 16.5C12.75 16.0858 12.4142 15.75 12 15.75H8Z" fill="#1A6AFC"/>
<path fill-rule="evenodd" clip-rule="evenodd" d="M20.75 18.5C20.75 20.8472 18.8472 22.75 16.5 22.75H7.5C5.15279 22.75 3.25 20.8472 3.25 18.5V5.5C3.25 3.15279 5.15279 1.25 7.5 1.25H12.4645C13.3264 1.25 14.1531 1.59241 14.7626 2.2019L19.7981 7.23744C20.4076 7.84693 20.75 8.67358 20.75 9.53553V18.5ZM4.75 5.5C4.75 3.98122 5.98122 2.75 7.5 2.75H11.5C12.1904 2.75 12.75 3.30964 12.75 4V6.5C12.75 8.01878 13.9812 9.25 15.5 9.25H18C18.6904 9.25 19.25 9.80964 19.25 10.5V18.5C19.25 20.0188 18.0188 21.25 16.5 21.25H7.5C5.98122 21.25 4.75 20.0188 4.75 18.5V5.5ZM18.1962 7.75689L14.2431 3.80377C14.2477 3.86858 14.25 3.93402 14.25 4V6.5C14.25 7.19036 14.8096 7.75 15.5 7.75H18C18.066 7.75 18.1314 7.75232 18.1962 7.75689Z" fill="#1A6AFC"/>
</g>
<defs>
<clipPath id="clip0_1875_59034">
<rect width="24" height="24" fill="white"/>
</clipPath>
</defs>
</svg>
