<svg width="16" height="16" viewBox="0 0 16 16" fill="none" xmlns="http://www.w3.org/2000/svg">
<path fill-rule="evenodd" clip-rule="evenodd" d="M5.26226 2.5C3.24882 2.5 1.83337 4.20946 1.83337 6.31625C1.83337 8.28716 3.05241 10.0841 4.51071 11.4211C5.23253 12.0829 5.99259 12.6124 6.64505 12.9739C6.97135 13.1546 7.26454 13.2899 7.50725 13.3787C7.76013 13.4713 7.92268 13.5 8.00004 13.5C8.0774 13.5 8.23995 13.4713 8.49284 13.3787C8.73554 13.2899 9.02874 13.1546 9.35503 12.9739C10.0075 12.6124 10.7676 12.0829 11.4894 11.4211C12.9477 10.0841 14.1667 8.28716 14.1667 6.31625C14.1667 4.20946 12.7513 2.5 10.7378 2.5C9.583 2.5 8.82867 3.07685 8.38209 3.6058C8.28708 3.71833 8.14731 3.78325 8.00004 3.78325C7.85278 3.78325 7.713 3.71833 7.618 3.6058C7.17141 3.07685 6.41708 2.5 5.26226 2.5ZM0.833374 6.31625C0.833374 3.79054 2.572 1.5 5.26226 1.5C6.50018 1.5 7.39788 2.00833 8.00004 2.56194C8.6022 2.00833 9.4999 1.5 10.7378 1.5C13.4281 1.5 15.1667 3.79054 15.1667 6.31625C15.1667 8.69609 13.7109 10.741 12.1652 12.1582C11.3849 12.8735 10.5606 13.4492 9.83963 13.8486C9.47919 14.0483 9.13837 14.2074 8.83643 14.3178C8.54467 14.4246 8.25194 14.5 8.00004 14.5C7.74814 14.5 7.45542 14.4246 7.16365 14.3178C6.86171 14.2074 6.52089 14.0483 6.16045 13.8486C5.43944 13.4492 4.61515 12.8735 3.83493 12.1582C2.28916 10.741 0.833374 8.69609 0.833374 6.31625Z" fill="#A5ACB8"/>
</svg>
