<svg width="15" height="15" viewBox="0 0 15 15" fill="none" xmlns="http://www.w3.org/2000/svg">
<rect x="1.325" y="1.45" width="12.3" height="12.3" rx="6.15" fill="#A5ACB8"/>
<rect x="1.325" y="1.45" width="12.3" height="12.3" rx="6.15" stroke="#F6F6F6" stroke-width="2.4"/>
<g clip-path="url(#clip0_573_14362)">
<path d="M7.16243 10.9333C7.16243 11.1059 7.30235 11.2458 7.47493 11.2458C7.64752 11.2458 7.78743 11.1059 7.78743 10.9333V7.91243H10.8083C10.9809 7.91243 11.1208 7.77252 11.1208 7.59993C11.1208 7.42735 10.9809 7.28743 10.8083 7.28743H7.78743V4.2666C7.78743 4.09401 7.64752 3.9541 7.47493 3.9541C7.30235 3.9541 7.16243 4.09401 7.16243 4.2666V7.28743H4.1416C3.96901 7.28743 3.8291 7.42735 3.8291 7.59993C3.8291 7.77252 3.96901 7.91243 4.1416 7.91243H7.16243V10.9333Z" fill="white"/>
</g>
<defs>
<clipPath id="clip0_573_14362">
<rect width="10" height="10" fill="white" transform="translate(2.4751 2.6001)"/>
</clipPath>
</defs>
</svg>
