<svg width="20" height="20" viewBox="0 0 20 20" fill="none" xmlns="http://www.w3.org/2000/svg">
<g clip-path="url(#clip0_124_1851)">
<path fill-rule="evenodd" clip-rule="evenodd" d="M18.8013 4.70082C19.553 2.53758 17.4884 0.435219 15.3169 1.20071L2.87064 5.58813C0.48196 6.43016 0.417096 9.80202 2.76991 10.7374L2.78309 10.7425L6.91074 12.2765C7.29584 12.4315 7.60027 12.743 7.74817 13.1367L9.35168 17.1869C10.257 19.583 13.6453 19.5378 14.4866 17.1168L18.8013 4.70082ZM15.7325 2.37961C16.8953 1.96971 18.0358 3.09548 17.6205 4.29051L13.3059 16.7065C12.8476 18.0252 11.0105 18.0477 10.5199 16.7418L8.91635 12.6916C8.85199 12.5214 8.7715 12.3594 8.67668 12.2074L11.6919 9.19215C11.936 8.94807 11.936 8.55234 11.6919 8.30826C11.4479 8.06418 11.0521 8.06418 10.8081 8.30826L7.79073 11.3256C7.65675 11.243 7.51495 11.1715 7.36655 11.1125L7.35337 11.1074L3.22566 9.57344C1.95135 9.06097 1.99012 7.22391 3.28621 6.76703L15.7325 2.37961Z" fill="black"/>
</g>
<defs>
<clipPath id="clip0_124_1851">
<rect width="20" height="20" fill="white"/>
</clipPath>
</defs>
</svg>
