<svg width="24" height="24" viewBox="0 0 24 24" fill="none" xmlns="http://www.w3.org/2000/svg">
<path d="M1.89888 8.16489C2.49438 8.16489 2.80899 7.82798 2.80899 7.24401V4.59368C2.80899 3.42573 3.42697 2.83053 4.55056 2.83053H7.26966C7.86518 2.83053 8.19102 2.50485 8.19102 1.92088C8.19102 1.33691 7.86518 1.02246 7.26966 1.02246H4.52809C2.17978 1.02246 1 2.17918 1 4.4926V7.24401C1 7.82798 1.32584 8.16489 1.89888 8.16489ZM22.0899 8.16489C22.6854 8.16489 23 7.82798 23 7.24401V4.4926C23 2.17918 21.8202 1.02246 19.4719 1.02246H16.7191C16.1349 1.02246 15.809 1.33691 15.809 1.92088C15.809 2.50485 16.1349 2.83053 16.7191 2.83053H19.4382C20.5505 2.83053 21.191 3.42573 21.191 4.59368V7.24401C21.191 7.82798 21.5168 8.16489 22.0899 8.16489ZM4.52809 23H7.26966C7.86518 23 8.19102 22.6744 8.19102 22.1016C8.19102 21.5177 7.86518 21.1919 7.26966 21.1919H4.55056C3.42697 21.1919 2.80899 20.5967 2.80899 19.4288V16.7784C2.80899 16.1833 2.48315 15.8576 1.89888 15.8576C1.31461 15.8576 1 16.1833 1 16.7784V19.5186C1 21.8433 2.17978 23 4.52809 23ZM16.7191 23H19.4719C21.8202 23 23 21.8321 23 19.5186V16.7784C23 16.1833 22.6742 15.8576 22.0899 15.8576C21.5056 15.8576 21.191 16.1833 21.191 16.7784V19.4288C21.191 20.5967 20.5505 21.1919 19.4382 21.1919H16.7191C16.1349 21.1919 15.809 21.5177 15.809 22.1016C15.809 22.6744 16.1349 23 16.7191 23Z" fill="black"/>
<path d="M7.10107 17.3962H11.0112C11.2921 17.3962 11.5055 17.1827 11.5055 16.9021V12.9939C11.5055 12.7132 11.2921 12.4998 11.0112 12.4998H7.10107C6.82017 12.4998 6.60669 12.7132 6.60669 12.9939V16.9021C6.60669 17.1827 6.82017 17.3962 7.10107 17.3962ZM7.58422 16.4191V13.4768H10.528V16.4191H7.58422ZM8.43815 15.5544H9.67411V14.3303H8.43815V15.5544ZM7.10107 11.5228H11.0112C11.2921 11.5228 11.5055 11.3093 11.5055 11.0399V7.12048C11.5055 6.85095 11.2921 6.62634 11.0112 6.62634H7.10107C6.82017 6.62634 6.60669 6.85095 6.60669 7.12048V11.0399C6.60669 11.3093 6.82017 11.5228 7.10107 11.5228ZM7.58422 10.5457V7.60337H10.528V10.5457H7.58422ZM8.43815 9.6922H9.67411V8.45687H8.43815V9.6922ZM12.9663 11.5228H16.8764C17.1573 11.5228 17.3707 11.3093 17.3707 11.0399V7.12048C17.3707 6.85095 17.1573 6.62634 16.8764 6.62634H12.9663C12.6853 6.62634 12.4718 6.85095 12.4718 7.12048V11.0399C12.4718 11.3093 12.6853 11.5228 12.9663 11.5228ZM13.4494 10.5457V7.60337H16.3932V10.5457H13.4494ZM14.3145 9.6922H15.5393V8.45687H14.3145V9.6922ZM12.6179 17.2501H13.8426V16.0261H12.6179V17.2501ZM15.9999 17.2501H17.2247V16.0261H15.9999V17.2501ZM14.3033 15.5544H15.5393V14.3303H14.3033V15.5544ZM12.6179 13.8586H13.8426V12.6345H12.6179V13.8586ZM15.9999 13.8586H17.2247V12.6345H15.9999V13.8586Z" fill="black"/>
</svg>
