<svg width="16" height="16" viewBox="0 0 16 16" fill="none" xmlns="http://www.w3.org/2000/svg">
<g clip-path="url(#clip0_1036_4902)">
<path d="M14.1666 2.54042V5.33342C14.1666 5.60956 14.3905 5.83342 14.6666 5.83342C14.9428 5.83342 15.1666 5.60956 15.1666 5.33342V1.33334C15.1666 1.0572 14.9428 0.833344 14.6666 0.833344H10.6666C10.3905 0.833344 10.1666 1.0572 10.1666 1.33334C10.1666 1.60949 10.3905 1.83334 10.6666 1.83334H13.4595L7.64643 7.64642C7.45116 7.84169 7.45116 8.15827 7.64643 8.35353C7.84169 8.54879 8.15827 8.54879 8.35353 8.35353L14.1666 2.54042Z" fill="#A5ACB8"/>
<path d="M3.66665 2.50009C2.65412 2.50009 1.83331 3.3209 1.83331 4.33342V12.3334C1.83331 13.3459 2.65412 14.1668 3.66665 14.1668H11.6666C12.6792 14.1668 13.5 13.3459 13.5 12.3334V9.03712C13.5 8.76098 13.7238 8.53712 14 8.53712C14.2761 8.53712 14.5 8.76098 14.5 9.03712V12.3334C14.5 13.8982 13.2315 15.1668 11.6666 15.1668H3.66665C2.10184 15.1668 0.833313 13.8982 0.833313 12.3334V4.33342C0.833313 2.76861 2.10184 1.50009 3.66665 1.50009H6.96294C7.23909 1.50009 7.46294 1.72395 7.46294 2.00009C7.46294 2.27623 7.23909 2.50009 6.96294 2.50009H3.66665Z" fill="#A5ACB8"/>
</g>
<defs>
<clipPath id="clip0_1036_4902">
<rect width="16" height="16" fill="white"/>
</clipPath>
</defs>
</svg>
