<svg width="16" height="16" viewBox="0 0 16 16" fill="none" xmlns="http://www.w3.org/2000/svg">
<g clip-path="url(#clip0_3557_189778)">
<path opacity="0.4" d="M3.66634 0.833496C2.10153 0.833496 0.833008 2.10202 0.833008 3.66683V12.3335C0.833008 13.8983 2.10153 15.1668 3.66634 15.1668H12.333C13.8978 15.1668 15.1663 13.8983 15.1663 12.3335V3.66683C15.1663 2.10202 13.8978 0.833496 12.333 0.833496H3.66634Z" fill="#A5ACB8"/>
<path d="M4.33301 8.00016C4.33301 8.36835 4.63148 8.66683 4.99967 8.66683C5.36786 8.66683 5.66634 8.36835 5.66634 8.00016C5.66634 7.63197 5.36786 7.3335 4.99967 7.3335C4.63148 7.3335 4.33301 7.63197 4.33301 8.00016Z" fill="#A5ACB8"/>
<path d="M10.333 8.00016C10.333 8.36835 10.6315 8.66683 10.9997 8.66683C11.3679 8.66683 11.6663 8.36835 11.6663 8.00016C11.6663 7.63197 11.3679 7.3335 10.9997 7.3335C10.6315 7.3335 10.333 7.63197 10.333 8.00016Z" fill="#A5ACB8"/>
<path d="M7.33301 8.00016C7.33301 8.36835 7.63148 8.66683 7.99967 8.66683C8.36786 8.66683 8.66634 8.36835 8.66634 8.00016C8.66634 7.63197 8.36786 7.3335 7.99967 7.3335C7.63148 7.3335 7.33301 7.63197 7.33301 8.00016Z" fill="#A5ACB8"/>
</g>
<defs>
<clipPath id="clip0_3557_189778">
<rect width="16" height="16" fill="white"/>
</clipPath>
</defs>
</svg>
