<svg width="60" height="60" viewBox="0 0 60 60" fill="none" xmlns="http://www.w3.org/2000/svg">
<rect x="0.5" y="0.5" width="59" height="59" rx="12.5" fill="white"/>
<rect x="0.5" y="0.5" width="59" height="59" rx="12.5" stroke="#D8DFEB"/>
<path d="M30.0811 10C18.8161 10 10.0811 18.2543 10.0811 29.3983C10.0811 35.2278 12.4711 40.2673 16.3611 43.747C16.6861 44.037 16.8861 44.4469 16.8961 44.8869L17.0061 48.4466C17.0411 49.5815 18.2111 50.3214 19.2511 49.8615L23.2211 48.1116C23.5561 47.9616 23.9361 47.9366 24.2911 48.0316C26.1161 48.5316 28.0561 48.8016 30.0811 48.8016C41.3461 48.8016 50.0811 40.5473 50.0811 29.4033C50.0811 18.2593 41.3461 10 30.0811 10Z" fill="url(#paint0_radial_2797_117599)"/>
<path d="M18.071 35.0725L23.946 25.7533C24.881 24.2685 26.881 23.9035 28.286 24.9534L32.961 28.4581C33.391 28.7781 33.981 28.7781 34.406 28.4531L40.716 23.6635C41.556 23.0236 42.656 24.0335 42.096 24.9284L36.216 34.2426C35.281 35.7274 33.281 36.0924 31.876 35.0425L27.201 31.5378C26.771 31.2178 26.181 31.2178 25.756 31.5428L19.446 36.3324C18.606 36.9723 17.506 35.9674 18.071 35.0725Z" fill="white"/>
<defs>
<radialGradient id="paint0_radial_2797_117599" cx="0" cy="0" r="1" gradientUnits="userSpaceOnUse" gradientTransform="translate(17.7811 49.7746) scale(43.6 43.5961)">
<stop stop-color="#0099FF"/>
<stop offset="0.61" stop-color="#A033FF"/>
<stop offset="0.935" stop-color="#FF5280"/>
<stop offset="1" stop-color="#FF7061"/>
</radialGradient>
</defs>
</svg>
