<svg width="20" height="22" viewBox="0 0 20 22" fill="none" xmlns="http://www.w3.org/2000/svg">
<path fill-rule="evenodd" clip-rule="evenodd" d="M10.272 1.91066C10.097 1.84261 9.90296 1.84261 9.72805 1.91066L2.22805 4.82875C1.93983 4.94089 1.75 5.21845 1.75 5.52772V12.906C1.75 14.5686 2.6193 16.1102 4.04199 16.9706L9.35316 20.1824C9.75085 20.4229 10.2491 20.4229 10.6468 20.1824L15.958 16.9706C17.3808 16.1102 18.25 14.5689 18.25 12.9064V5.5253C18.25 5.21743 18.0615 4.9414 17.7719 4.82875L10.272 1.91066ZM9.18415 0.512744C9.70889 0.308578 10.2911 0.308578 10.8159 0.512744L18.3159 3.43084C19.1792 3.76675 19.75 4.5961 19.75 5.5253V12.9064C19.75 15.0941 18.6061 17.1221 16.7342 18.2541L11.4231 21.466C10.5481 21.9951 9.45188 21.9951 8.57694 21.466L3.26578 18.2541C1.39382 17.1221 0.25 15.0936 0.25 12.906V5.52772C0.25 4.59992 0.819495 3.76726 1.68415 3.43084L9.18415 0.512744Z" fill="#1A6AFC"/>
</svg>
