<svg width="20" height="20" viewBox="0 0 20 20" fill="none" xmlns="http://www.w3.org/2000/svg">
<g clip-path="url(#clip0_275_16372)">
<path fill-rule="evenodd" clip-rule="evenodd" d="M14.1663 2.29166V6.68274C14.1663 6.81301 14.207 6.94002 14.2828 7.04602L14.9607 7.99512C15.799 9.16878 16.2497 10.575 16.2497 12.0174C16.2497 12.8592 15.5672 13.5417 14.7254 13.5417H10.833V18.3333C10.833 18.6785 10.5532 18.9583 10.208 18.9583C9.86283 18.9583 9.58301 18.6785 9.58301 18.3333V13.5417L5.48231 13.5417C4.64046 13.5417 3.95801 12.8592 3.95801 12.0174C3.95801 10.5751 4.40867 9.16879 5.24699 7.99513L5.92492 7.04603C6.00064 6.94003 6.04134 6.81302 6.04134 6.68275V2.29167H4.99967C4.6545 2.29167 4.37467 2.01185 4.37467 1.66667C4.37467 1.32149 4.6545 1.04167 4.99967 1.04167L15.208 1.04166C15.5532 1.04166 15.833 1.32148 15.833 1.66666C15.833 2.01183 15.5532 2.29166 15.208 2.29166H14.1663ZM14.7254 12.2917C14.8769 12.2917 14.9997 12.1688 14.9997 12.0174C14.9997 10.8356 14.6304 9.68332 13.9435 8.72167L13.2656 7.77256C13.0384 7.45456 12.9163 7.07353 12.9163 6.68274V2.29166L7.29134 2.29167V6.68275C7.29134 7.07355 7.16924 7.45458 6.94209 7.77258L6.26416 8.72168C5.57726 9.68334 5.20801 10.8356 5.20801 12.0174C5.20801 12.1689 5.33082 12.2917 5.48231 12.2917L14.7254 12.2917Z" fill="black"/>
</g>
<defs>
<clipPath id="clip0_275_16372">
<rect width="20" height="20" fill="white"/>
</clipPath>
</defs>
</svg>
