<svg width="20" height="20" viewBox="0 0 20 20" fill="none" xmlns="http://www.w3.org/2000/svg">
<path d="M18.0676 17.4697C16.2382 16.6129 15.1887 14.7727 15.1887 12.4243V11.1137C15.1886 10.9015 15.1225 10.6943 14.9989 10.5187C14.8753 10.3431 14.6999 10.2073 14.4953 10.1288L12.5386 9.38414C12.4426 9.34733 12.3551 9.29265 12.281 9.22322C12.207 9.15379 12.1479 9.07097 12.107 8.97951C12.0662 8.88804 12.0445 8.78972 12.0432 8.69016C12.0418 8.5906 12.0608 8.49177 12.0992 8.3993L13.7736 4.38645C13.8788 4.14162 13.9317 3.87885 13.929 3.61388C13.9263 3.34891 13.8682 3.08718 13.7581 2.84436C13.648 2.60155 13.4882 2.38263 13.2883 2.20073C13.0883 2.01882 12.8523 1.87767 12.5944 1.78571C11.5764 1.41981 10.4027 1.92511 9.97578 2.92207L8.32487 6.94552C8.28683 7.03817 8.23019 7.12267 8.15821 7.1942C8.08622 7.26572 8.0003 7.32285 7.90537 7.36233C7.81044 7.40181 7.70836 7.42285 7.60497 7.42426C7.50159 7.42566 7.39893 7.4074 7.30288 7.37052L5.31236 6.59098C5.11085 6.51208 4.88948 6.49293 4.6766 6.53599C4.46372 6.57904 4.26902 6.68233 4.11742 6.83265C2.49167 8.44097 1.66701 10.3228 1.66701 12.4243C1.66295 14.5755 2.52601 16.6441 4.07418 18.1939C4.11871 18.2385 4.17221 18.2739 4.23142 18.2979C4.29063 18.3218 4.3543 18.3339 4.41852 18.3333H17.8616C17.9684 18.3334 18.0721 18.2986 18.1556 18.2345C18.2392 18.1704 18.2978 18.0809 18.3217 17.9806C18.3456 17.8803 18.3335 17.7751 18.2873 17.6823C18.2412 17.5895 18.1637 17.5146 18.0676 17.4697ZM4.79351 7.4637C4.81512 7.44344 4.84232 7.4296 4.87187 7.42383C4.90142 7.41805 4.93207 7.42059 4.96017 7.43113L6.95698 8.21067C7.16832 8.2922 7.39428 8.33273 7.6219 8.32993C7.84953 8.32713 8.07434 8.28105 8.28344 8.19434C8.49255 8.10763 8.68183 7.98199 8.84044 7.82463C8.99905 7.66727 9.12386 7.48128 9.20771 7.27734L10.8586 3.26222C11.0945 2.72207 11.7234 2.44328 12.2737 2.64025C12.4125 2.69031 12.5395 2.76688 12.6469 2.86537C12.7542 2.96387 12.8399 3.08225 12.8986 3.21342C12.9573 3.3446 12.988 3.48585 12.9887 3.62871C12.9893 3.77157 12.9601 3.9131 12.9026 4.04479L11.2234 8.06749C11.0564 8.47762 11.0644 8.9347 11.2455 9.33922C11.4266 9.74374 11.7662 10.0629 12.1904 10.2273L14.1463 10.972C14.1757 10.9833 14.2008 11.0028 14.2185 11.0281C14.2362 11.0534 14.2455 11.0832 14.2453 11.1137V12.4243C14.2453 12.5258 14.2453 12.625 14.2516 12.7273L3.76916 8.68263C4.07008 8.24619 4.41305 7.83807 4.79351 7.4637ZM8.61103 17.4242C7.62922 16.5333 6.93344 15.3896 6.60636 14.1288C6.59087 14.071 6.56372 14.0167 6.52646 13.969C6.4892 13.9213 6.44256 13.8812 6.3892 13.8509C6.33583 13.8205 6.2768 13.8006 6.21545 13.7923C6.15411 13.784 6.09167 13.7874 6.03169 13.8023C5.9717 13.8172 5.91536 13.8434 5.86587 13.8793C5.81638 13.9152 5.77472 13.9601 5.74325 14.0116C5.71179 14.063 5.69115 14.1199 5.6825 14.179C5.67385 14.2381 5.67737 14.2983 5.69286 14.3561C5.98869 15.4823 6.54199 16.5306 7.31232 17.4242H4.61977C3.32411 16.0587 2.60709 14.2746 2.61038 12.4243C2.60049 11.4053 2.83482 10.3978 3.29511 9.48035L14.3515 13.7424C14.5991 15.2515 15.2768 16.5197 16.3168 17.4242H8.61103Z" fill="#FF1A1A"/>
</svg>
