<svg width="20" height="20" viewBox="0 0 20 20" fill="none" xmlns="http://www.w3.org/2000/svg">
    <path
        d="M18.3333 7.10001V3.31667C18.3333 2.14167 17.8 1.66667 16.475 1.66667H13.1083C11.7833 1.66667 11.25 2.14167 11.25 3.31667V7.09167C11.25 8.275 11.7833 8.74167 13.1083 8.74167H16.475C17.8 8.75 18.3333 8.27501 18.3333 7.10001Z"
        fill="#00000080" />
    <path
        d="M18.3333 16.475V13.1083C18.3333 11.7833 17.8 11.25 16.475 11.25H13.1083C11.7833 11.25 11.25 11.7833 11.25 13.1083V16.475C11.25 17.8 11.7833 18.3333 13.1083 18.3333H16.475C17.8 18.3333 18.3333 17.8 18.3333 16.475Z"
        fill="#00000080" />
    <path
        d="M8.74996 7.10001V3.31667C8.74996 2.14167 8.21663 1.66667 6.89163 1.66667H3.52496C2.19996 1.66667 1.66663 2.14167 1.66663 3.31667V7.09167C1.66663 8.275 2.19996 8.74167 3.52496 8.74167H6.89163C8.21663 8.75 8.74996 8.27501 8.74996 7.10001Z"
        fill="#00000080" />
    <path
        d="M8.74996 16.475V13.1083C8.74996 11.7833 8.21663 11.25 6.89163 11.25H3.52496C2.19996 11.25 1.66663 11.7833 1.66663 13.1083V16.475C1.66663 17.8 2.19996 18.3333 3.52496 18.3333H6.89163C8.21663 18.3333 8.74996 17.8 8.74996 16.475Z"
        fill="#00000080" />
</svg>