<svg width="24" height="24" viewBox="0 0 24 24" fill="none" xmlns="http://www.w3.org/2000/svg">
    <g clip-path="url(#clip0_2791_117726)">
        <path fill-rule="evenodd" clip-rule="evenodd"
            d="M12 22.75C17.9371 22.75 22.75 17.9371 22.75 12C22.75 6.06294 17.9371 1.25 12 1.25C6.06294 1.25 1.25 6.06294 1.25 12C1.25 17.9371 6.06294 22.75 12 22.75ZM12 2.75C11.2638 2.75 10.4362 3.42497 9.76361 5.19529C9.43847 6.05114 9.18341 7.08654 9.01048 8.25H14.9895C14.8166 7.08654 14.5615 6.05114 14.2364 5.19529C13.5638 3.42497 12.7362 2.75 12 2.75ZM8.36139 4.66257C7.9714 5.68911 7.68106 6.90808 7.49512 8.25H3.5417C4.58696 5.89589 6.58615 4.05928 9.04863 3.23083C8.78246 3.66894 8.55422 4.15501 8.36139 4.66257ZM7.33463 9.75H3.02556C2.84556 10.4703 2.75 11.224 2.75 12C2.75 12.776 2.84556 13.5297 3.02556 14.25H7.33463C7.27842 13.5225 7.25 12.7694 7.25 12C7.25 11.2306 7.27842 10.4775 7.33463 9.75ZM7.49512 15.75H3.5417C4.58696 18.1041 6.58615 19.9407 9.04863 20.7692C8.78247 20.3311 8.55422 19.845 8.36139 19.3374C7.9714 18.3109 7.68106 17.0919 7.49512 15.75ZM9.01048 15.75H14.9895C14.8166 16.9135 14.5615 17.9489 14.2364 18.8047C13.5638 20.575 12.7362 21.25 12 21.25C11.2638 21.25 10.4362 20.575 9.76361 18.8047C9.43847 17.9489 9.18341 16.9135 9.01048 15.75ZM15.1606 14.25H8.83937C8.78053 13.5315 8.75 12.7784 8.75 12C8.75 11.2216 8.78053 10.4685 8.83937 9.75H15.1606C15.2195 10.4685 15.25 11.2216 15.25 12C15.25 12.7784 15.2195 13.5315 15.1606 14.25ZM16.5049 15.75C16.3189 17.0919 16.0286 18.3109 15.6386 19.3374C15.4458 19.845 15.2175 20.3311 14.9514 20.7692C17.4138 19.9407 19.413 18.1041 20.4583 15.75H16.5049ZM20.9744 14.25H16.6654C16.7216 13.5225 16.75 12.7694 16.75 12C16.75 11.2306 16.7216 10.4775 16.6654 9.75H20.9744C21.1544 10.4703 21.25 11.224 21.25 12C21.25 12.776 21.1544 13.5297 20.9744 14.25ZM14.9514 3.23083C17.4138 4.05928 19.413 5.89589 20.4583 8.25H16.5049C16.3189 6.90808 16.0286 5.68911 15.6386 4.66257C15.4458 4.15501 15.2175 3.66894 14.9514 3.23083Z"
            fill="#1A6AFC" />
    </g>
    <defs>
        <clipPath id="clip0_2791_117726">
            <rect width="24" height="24" fill="white" />
        </clipPath>
    </defs>
</svg>