<svg width="24" height="24" viewBox="0 0 24 24" fill="none" xmlns="http://www.w3.org/2000/svg">
<path fill-rule="evenodd" clip-rule="evenodd" d="M20.7368 20.0589C21.4619 19.0067 21.7323 18.469 22.2853 17.2883C18.2052 15.8154 17.5538 10.286 21.5848 8.17006C20.3558 6.69711 18.623 5.84375 16.9885 5.84375C15.8087 5.84375 14.9976 6.13601 14.2725 6.40489C13.658 6.627 13.105 6.82571 12.4168 6.82571C11.6794 6.82571 11.0281 6.60362 10.3399 6.36982C9.5902 6.11264 8.80366 5.84375 7.8205 5.84375C5.98936 5.84375 4.03533 6.90755 2.79408 8.73119C1.04897 11.303 1.35621 16.1193 4.17052 20.2342C5.17826 21.7071 6.53011 23.3554 8.28751 23.3788C9.02488 23.3905 9.50417 23.1801 10.0326 22.958C10.6348 22.7008 11.2862 22.4202 12.4291 22.4202C13.572 22.4085 14.2111 22.7008 14.8133 22.958C15.3294 23.1801 15.7964 23.3905 16.5215 23.3788C18.3035 23.3554 19.7291 21.5318 20.7368 20.0589Z" fill="#727985"/>
<path fill-rule="evenodd" clip-rule="evenodd" d="M16.7302 0C16.9269 1.28591 16.3738 2.56014 15.6488 3.44858C14.8745 4.40716 13.5227 5.15531 12.22 5.10855C11.9865 3.8694 12.5887 2.59518 13.326 1.74181C14.1494 0.806602 15.5382 0.0818304 16.7302 0Z" fill="#727985"/>
</svg>
