<svg width="24" height="24" viewBox="0 0 24 24" fill="none" xmlns="http://www.w3.org/2000/svg">
<g clip-path="url(#clip0_2791_131850)">
<path d="M19.75 9.5C19.75 9.08579 19.4142 8.75 19 8.75L15 8.75C14.5858 8.75 14.25 9.08579 14.25 9.5C14.25 9.91421 14.5858 10.25 15 10.25H19C19.4142 10.25 19.75 9.91421 19.75 9.5Z" fill="#1A6AFC"/>
<path d="M19.75 13C19.75 12.5858 19.4142 12.25 19 12.25H15C14.5858 12.25 14.25 12.5858 14.25 13C14.25 13.4142 14.5858 13.75 15 13.75H19C19.4142 13.75 19.75 13.4142 19.75 13Z" fill="#1A6AFC"/>
<path d="M19 15.75C19.4142 15.75 19.75 16.0858 19.75 16.5C19.75 16.9142 19.4142 17.25 19 17.25H15C14.5858 17.25 14.25 16.9142 14.25 16.5C14.25 16.0858 14.5858 15.75 15 15.75H19Z" fill="#1A6AFC"/>
<path fill-rule="evenodd" clip-rule="evenodd" d="M5 2.25C4.58579 2.25 4.25 2.58579 4.25 3V4.25947C2.57189 4.38713 1.25 5.78919 1.25 7.5V18.5C1.25 20.2949 2.70508 21.75 4.5 21.75L19.5 21.75C21.2949 21.75 22.75 20.2949 22.75 18.5L22.75 7.5C22.75 5.70507 21.2949 4.25 19.5 4.25H12.1062C11.3553 3.04892 10.0209 2.25 8.5 2.25H5ZM12.684 5.75C12.7274 5.99346 12.75 6.24409 12.75 6.5V20.25L19.5 20.25C20.4665 20.25 21.25 19.4665 21.25 18.5L21.25 7.5C21.25 6.5335 20.4665 5.75 19.5 5.75L12.684 5.75ZM11.122 20.25C10.8131 19.3761 9.97966 18.75 9 18.75H5C4.58579 18.75 4.25 18.4142 4.25 18V5.76772C3.40193 5.88903 2.75 6.61838 2.75 7.5L2.75 18.5C2.75 19.4665 3.5335 20.25 4.5 20.25H11.122ZM11.25 6.5V17.9997C10.6233 17.529 9.8442 17.25 9 17.25H5.75V3.75H8.5C10.0188 3.75 11.25 4.98122 11.25 6.5Z" fill="#1A6AFC"/>
</g>
<defs>
<clipPath id="clip0_2791_131850">
<rect width="24" height="24" fill="white"/>
</clipPath>
</defs>
</svg>
