<svg width="30" height="30" viewBox="0 0 30 30" fill="none" xmlns="http://www.w3.org/2000/svg">
<path fill-rule="evenodd" clip-rule="evenodd" d="M0.666504 14.8822C0.666504 6.96608 7.08376 0.548828 14.9998 0.548828C22.9159 0.548828 29.3332 6.96608 29.3332 14.8822C29.3332 22.7982 22.9159 29.2155 14.9998 29.2155C12.4245 29.2155 10.0049 28.5354 7.91423 27.3443C7.79023 27.2736 7.66888 27.2688 7.58167 27.2979L4.51255 28.3209C2.68845 28.9289 0.953061 27.1935 1.56109 25.3694L2.58413 22.3003C2.6132 22.2131 2.60835 22.0918 2.53771 21.9678C1.34661 19.8771 0.666504 17.4575 0.666504 14.8822ZM9.6665 16.2155C8.91984 16.2155 8.33317 15.6155 8.33317 14.8822C8.33317 14.1488 8.93317 13.5488 9.6665 13.5488C10.3998 13.5488 10.9998 14.1488 10.9998 14.8822C10.9998 15.6155 10.4132 16.2155 9.6665 16.2155ZM13.6665 14.8822C13.6665 15.6155 14.2532 16.2155 14.9998 16.2155C15.7465 16.2155 16.3332 15.6155 16.3332 14.8822C16.3332 14.1488 15.7332 13.5488 14.9998 13.5488C14.2665 13.5488 13.6665 14.1488 13.6665 14.8822ZM18.9998 14.8822C18.9998 15.6155 19.5865 16.2155 20.3332 16.2155C21.0798 16.2155 21.6665 15.6155 21.6665 14.8822C21.6665 14.1488 21.0665 13.5488 20.3332 13.5488C19.5998 13.5488 18.9998 14.1488 18.9998 14.8822Z" fill="#1A6AFC"/>
</svg>
