<svg width="16" height="17" viewBox="0 0 16 17" fill="none" xmlns="http://www.w3.org/2000/svg">
<path fill-rule="evenodd" clip-rule="evenodd" d="M14.2865 6.53705C15.2414 5.43314 16.523 2.93091 14.7522 1.06449C14.1314 0.410344 13.3606 0.0572648 12.5224 0.0432617C10.871 0.0155888 9.52774 1.29288 9.38004 1.43857L9.3797 1.43891C9.01829 1.36723 8.6312 1.32655 8.21511 1.32655C7.67632 1.32655 7.18088 1.3949 6.72311 1.51159L6.64576 1.44091L6.64309 1.43891C6.49539 1.29288 5.15209 0.0155888 3.50072 0.0429283C2.66287 0.0569314 1.89169 0.410011 1.27055 1.06482C-0.496176 2.92691 0.776442 5.4218 1.73032 6.52972C1.06917 7.15052 -0.474171 8.88091 0.142634 11.0661C1.04417 14.2621 3.86347 14.3701 4.05218 14.3735H4.55996C5.42882 15.5031 6.91348 16.0112 8.01073 16.0112C9.01829 16.0112 10.513 15.5801 11.4395 14.3735H11.9479C12.1467 14.3701 14.966 14.2621 15.8675 11.0661C16.4826 8.88524 14.9473 7.15819 14.2865 6.53705ZM14.9046 10.7943C14.2095 13.2592 12.1687 13.3689 11.9479 13.3736H11.0774C10.8124 13.3736 10.5973 13.58 10.58 13.8407C9.85681 14.7115 8.69855 15.011 8.01073 15.011C7.33791 15.011 6.19432 14.7222 5.46616 13.8934L5.46649 13.8896L5.46691 13.8867L5.46734 13.8841C5.46792 13.8806 5.46849 13.8773 5.46849 13.8737C5.46849 13.597 5.24478 13.3736 4.96838 13.3736H4.07151C3.84113 13.3689 1.80034 13.2592 1.10518 10.7943C0.52672 8.74521 2.53584 7.14619 2.61852 7.08151L2.86824 6.88746L2.9636 6.5874C3.01828 6.41369 4.35891 2.32711 8.21511 2.32711C12.0076 2.32711 12.9862 6.34134 13.0252 6.50871L13.1072 6.85946L13.3883 7.07884C13.474 7.14619 15.4827 8.74521 14.9046 10.7943ZM3.51739 1.04315C3.01028 1.05149 2.48249 1.24086 1.99605 1.75331C0.714095 3.10461 1.765 4.89568 2.27945 5.60718C2.72455 4.62396 3.75878 2.82388 5.65254 1.90301C5.23244 1.57094 4.40826 1.02815 3.51739 1.04315ZM12.5054 1.04349C13.0125 1.05149 13.5406 1.24086 14.0264 1.75331C15.2854 3.07961 14.2968 4.82867 13.7734 5.5655C13.3849 4.5316 12.4461 2.66785 10.508 1.79799C10.9557 1.46825 11.7042 1.03015 12.5054 1.04349ZM8.43999 13.2085C8.48767 13.2579 8.56169 13.2949 8.67371 13.2949C9.01412 13.2949 9.02846 12.9662 9.02846 12.9625L9.69494 12.9925V12.9955C9.67394 13.4643 9.30886 13.9617 8.67371 13.9617C8.41666 13.9617 8.18394 13.8714 8.0069 13.7107C7.82952 13.8714 7.5968 13.9617 7.34008 13.9617C6.70494 13.9617 6.34019 13.4643 6.31885 12.9955V12.9925L6.98533 12.9625C6.98533 12.9662 7 13.2949 7.34008 13.2949C7.45211 13.2949 7.52579 13.2579 7.5738 13.2085C7.66915 13.1109 7.66549 12.9662 7.66549 12.9662V12.237C7.1427 11.9986 6.53523 11.3155 6.53523 10.873C6.53523 10.3292 7.08502 10.3292 7.08502 10.3292H8.00156H8.91877C8.91877 10.3292 9.46889 10.3292 9.46889 10.873C9.46889 11.3131 8.86876 11.9896 8.34797 12.232V12.9662C8.34797 12.9662 8.34464 13.1109 8.43999 13.2085ZM10.9972 7.32806C10.6291 7.32806 10.3304 7.77616 10.3304 8.32862C10.3304 8.88041 10.6291 9.32851 10.9972 9.32851C11.3656 9.32851 11.664 8.88041 11.664 8.32862C11.664 7.77616 11.3656 7.32806 10.9972 7.32806ZM4.32884 8.32862C4.32884 7.77616 4.62757 7.32806 4.99566 7.32806C5.36407 7.32806 5.66247 7.77616 5.66247 8.32862C5.66247 8.88041 5.36407 9.32851 4.99566 9.32851C4.62757 9.32851 4.32884 8.88041 4.32884 8.32862Z" fill="#707174"/>
</svg>
