<svg width="16" height="17" viewBox="0 0 16 17" fill="none" xmlns="http://www.w3.org/2000/svg">
<path fill-rule="evenodd" clip-rule="evenodd" d="M16 8.02684C16 3.60856 12.4183 0.0268402 8 0.0268402C3.58172 0.0268402 0 3.60856 0 8.02684C0 12.4451 3.58172 16.0268 8 16.0268C12.4183 16.0268 16 12.4451 16 8.02684ZM15.0103 8.02684C15.0103 4.16085 11.8763 1.02684 8.01033 1.02684C4.14434 1.02684 1.01033 4.16085 1.01033 8.02684C1.01033 11.8928 4.14434 15.0268 8.01033 15.0268C11.8763 15.0268 15.0103 11.8928 15.0103 8.02684ZM10.75 5.02684C11.1643 5.02684 11.5 5.47451 11.5 6.02684C11.5 6.57917 11.1643 7.02684 10.75 7.02684C10.3357 7.02684 10 6.57917 10 6.02684C10 5.47451 10.3357 5.02684 10.75 5.02684ZM6.49667 6.02684C6.49667 5.47417 6.16167 5.02684 5.74833 5.02684C5.335 5.02684 5 5.47417 5 6.02684C5 6.57951 5.33333 7.02684 5.74833 7.02684C6.16333 7.02684 6.49667 6.57951 6.49667 6.02684ZM8.006 9.70251C9.4029 9.70251 10.666 9.40044 11.5733 9.18349C12.4594 8.97159 13.006 8.84088 13.006 9.15217C13.006 11.9136 10.7674 14.1522 8.006 14.1522C5.24458 14.1522 3.006 11.9136 3.006 9.15217C3.006 8.84088 3.55259 8.97159 4.43873 9.18349C5.34596 9.40044 6.6091 9.70251 8.006 9.70251ZM11.0959 10.1593C10.3975 10.3421 9.32697 10.6222 8 10.6222C6.67303 10.6222 5.60251 10.3421 4.90407 10.1593C4.32349 10.0074 4 9.92275 4 10.1222C4 12.0362 6.908 12.1222 8 12.1222C9.226 12.1222 12 12.0358 12 10.1222C12 9.92275 11.6765 10.0074 11.0959 10.1593Z" fill="#707174"/>
</svg>
