<svg width="12" height="16" viewBox="0 0 12 16" fill="none" xmlns="http://www.w3.org/2000/svg">
<path fill-rule="evenodd" clip-rule="evenodd" d="M6.61035 2.508C6.61035 2.508 7.78902 1.879 8.67969 1.879C9.38876 1.89852 10.0779 2.10343 10.6797 2.47012V8.3351C10.055 8.04146 9.37288 7.88527 8.67969 7.879C7.84289 7.91105 7.02221 8.11889 6.27102 8.489C5.58332 8.89326 4.80939 9.12827 4.01302 9.17466C2.34635 9.17466 1.67969 8.18733 1.67969 8.18733V2.527C1.67969 2.527 2.34635 3.137 4.01302 3.137C4.91429 3.11911 5.80076 2.90444 6.61035 2.508ZM11.6797 2.94833V8.94833L11.013 8.508C10.904 8.44591 10.7928 8.38825 10.6797 8.3351V9.17466H11.6797V9.94833L11.013 9.508C10.3016 9.10292 9.49836 8.8864 8.67969 8.879C7.78902 8.879 6.61035 9.508 6.61035 9.508C5.80076 9.90445 4.91429 10.1191 4.01302 10.137C2.34635 10.137 1.67969 9.43266 1.67969 9.43266V15.1747H0.679688V1.17466H1.67969V1.18733C1.67969 1.18733 2.34635 2.17466 4.01302 2.17466C4.80939 2.12827 5.58332 1.89326 6.27102 1.489C7.02221 1.11889 7.84289 0.911052 8.67969 0.878998C9.49836 0.8864 10.3016 1.10292 11.013 1.508L11.6797 1.94833V2.08633L10.6797 1.84133V2.47012C10.7941 2.53984 10.9054 2.61541 11.013 2.69666L11.6797 2.94833Z" fill="#707174"/>
</svg>
