<svg width="24" height="25" viewBox="0 0 24 25" fill="none" xmlns="http://www.w3.org/2000/svg">
<g clip-path="url(#clip0_371_20096)">
<path fill-rule="evenodd" clip-rule="evenodd" d="M4.25 7.38232C4.25 5.03511 6.15279 3.13232 8.5 3.13232C10.8472 3.13232 12.75 5.03511 12.75 7.38232C12.75 9.72953 10.8472 11.6323 8.5 11.6323C6.15279 11.6323 4.25 9.72953 4.25 7.38232ZM8.5 4.63232C6.98122 4.63232 5.75 5.86354 5.75 7.38232C5.75 8.90111 6.98122 10.1323 8.5 10.1323C10.0188 10.1323 11.25 8.90111 11.25 7.38232C11.25 5.86354 10.0188 4.63232 8.5 4.63232Z" fill="#727985"/>
<path fill-rule="evenodd" clip-rule="evenodd" d="M3.80071 14.5805C5.02393 13.6445 6.61135 13.1323 8.49977 13.1323C10.3882 13.1323 11.9756 13.6445 13.1988 14.5805C14.4216 15.5161 15.231 16.8374 15.6274 18.3698C15.7816 18.9661 15.803 19.4194 15.6186 20.0153C15.5373 20.278 15.3883 20.5292 15.231 20.732C15.074 20.9343 14.8654 21.1442 14.6238 21.2891C14.048 21.6344 13.4576 21.6335 12.7846 21.6324L12.6722 21.6323H4.32735L4.21499 21.6324C3.54198 21.6335 2.9515 21.6344 2.37576 21.2891C2.13339 21.1437 1.92478 20.9328 1.76821 20.7303C1.61112 20.5271 1.46289 20.2761 1.38184 20.0141C1.29741 19.7412 1.24869 19.4786 1.25003 19.193C1.25134 18.9137 1.30051 18.6469 1.3722 18.3698C1.76859 16.8374 2.57793 15.5161 3.80071 14.5805ZM4.71221 15.7718C3.78932 16.4779 3.14804 17.4943 2.82441 18.7454C2.76868 18.9608 2.75051 19.0938 2.75001 19.2C2.74954 19.2998 2.76454 19.4083 2.81481 19.5707C2.82842 19.6147 2.87329 19.7073 2.95489 19.8128C3.037 19.919 3.11267 19.9819 3.14731 20.0027C3.32812 20.1112 3.48524 20.1323 4.32735 20.1323H12.6722C13.5143 20.1323 13.6714 20.1112 13.8522 20.0027C13.8877 19.9815 13.9638 19.9182 14.0459 19.8123C14.1277 19.707 14.1723 19.615 14.1856 19.5719C14.2706 19.2971 14.2757 19.1343 14.1752 18.7454C13.8515 17.4943 13.2102 16.4779 12.2873 15.7718C11.3649 15.066 10.1116 14.6323 8.49977 14.6323C6.88796 14.6323 5.63465 15.066 4.71221 15.7718Z" fill="#727985"/>
<path fill-rule="evenodd" clip-rule="evenodd" d="M13.75 8.38232C13.75 6.5874 15.2051 5.13232 17 5.13232C18.7949 5.13232 20.25 6.5874 20.25 8.38232C20.25 10.1772 18.7949 11.6323 17 11.6323C15.2051 11.6323 13.75 10.1772 13.75 8.38232ZM17 6.63232C16.0335 6.63232 15.25 7.41583 15.25 8.38232C15.25 9.34882 16.0335 10.1323 17 10.1323C17.9665 10.1323 18.75 9.34882 18.75 8.38232C18.75 7.41583 17.9665 6.63232 17 6.63232Z" fill="#727985"/>
<path d="M16.9997 14.2523C16.6844 14.2523 16.3885 14.2745 16.1118 14.3162C15.7022 14.378 15.3201 14.096 15.2584 13.6864C15.1966 13.2769 15.4786 12.8948 15.8882 12.833C16.2432 12.7795 16.614 12.7523 16.9997 12.7523C18.4843 12.7523 19.7439 13.1554 20.7195 13.9019C21.6947 14.648 22.3367 15.6995 22.65 16.9107C22.8843 17.8162 22.6463 18.8401 21.7995 19.348C21.314 19.6392 20.8132 19.638 20.3066 19.6369L18 19.6367C17.5858 19.6367 17.25 19.3009 17.25 18.8867C17.25 18.4725 17.5858 18.1367 18 18.1367H20.2093C20.8711 18.1367 20.9381 18.1155 21.0279 18.0616C21.2848 17.8828 21.2673 17.5551 21.1978 17.2864C20.9573 16.3565 20.4834 15.6099 19.8081 15.0932C19.1332 14.5768 18.2077 14.2523 16.9997 14.2523Z" fill="#727985"/>
</g>
<defs>
<clipPath id="clip0_371_20096">
<rect width="24" height="24" fill="white" transform="translate(0 0.882324)"/>
</clipPath>
</defs>
</svg>
