<svg width="102" height="102" viewBox="0 0 102 102" fill="none" xmlns="http://www.w3.org/2000/svg">
<rect width="102" height="102" rx="30" fill="white"/>
<path d="M27 51.4432C27 64.5214 37.8516 75.3496 50.9062 75.3496C63.9844 75.3496 74.8124 64.5214 74.8124 51.4432C74.8124 43.5682 70.8282 36.4901 64.8046 32.1073C63.7734 31.3104 62.4844 31.5683 61.8984 32.5292C61.3124 33.5136 61.6172 34.6151 62.5782 35.3417C67.5704 38.9042 70.8046 44.787 70.8282 51.4432C70.8516 62.5058 61.9688 71.3652 50.9062 71.3652C39.8438 71.3652 31.0078 62.5058 31.0078 51.4432C31.0078 41.9511 37.5234 34.0761 46.3828 32.0604V35.412C46.3828 37.0761 47.5312 37.5214 48.8204 36.6073L56.2968 31.3573C57.3516 30.6308 57.375 29.5058 56.2968 28.7323L48.8438 23.4823C47.5312 22.5448 46.3828 22.9901 46.3828 24.6776V27.9823C35.4141 30.1386 27 39.912 27 51.4432Z" fill="#1A6AFC"/>
</svg>
